<mxfile host="Electron" modified="2023-09-27T00:47:04.125Z" agent="Mozilla/5.0 (Macintosh; Intel Mac OS X 10_15_7) AppleWebKit/537.36 (KHTML, like Gecko) draw.io/21.6.5 Chrome/114.0.5735.243 Electron/25.3.1 Safari/537.36" etag="Zi2dMadeD-n0Ys62kdHT" version="21.6.5" type="device">
  <diagram name="Page-1" id="v1_9J7kKxN2m-gmrhL2K">
    <mxGraphModel dx="2256" dy="2126" grid="1" gridSize="10" guides="1" tooltips="1" connect="1" arrows="1" fold="1" page="1" pageScale="1" pageWidth="850" pageHeight="1100" background="#ffffff" math="0" shadow="0">
      <root>
        <mxCell id="0" />
        <mxCell id="1" parent="0" />
        <mxCell id="XejQ6Tq679sGkio31rRs-60" value="" style="endArrow=none;dashed=1;html=1;rounded=0;strokeWidth=6;opacity=50;" parent="1" edge="1">
          <mxGeometry width="50" height="50" relative="1" as="geometry">
            <mxPoint x="601" y="1560" as="sourcePoint" />
            <mxPoint x="601" y="-60" as="targetPoint" />
          </mxGeometry>
        </mxCell>
        <mxCell id="XejQ6Tq679sGkio31rRs-70" value="" style="endArrow=none;dashed=1;html=1;rounded=0;strokeWidth=6;opacity=50;" parent="1" edge="1">
          <mxGeometry width="50" height="50" relative="1" as="geometry">
            <mxPoint x="-28" y="660" as="sourcePoint" />
            <mxPoint x="1275.3333333333333" y="660" as="targetPoint" />
          </mxGeometry>
        </mxCell>
        <mxCell id="XejQ6Tq679sGkio31rRs-15" style="edgeStyle=orthogonalEdgeStyle;rounded=1;orthogonalLoop=1;jettySize=auto;html=1;exitX=0.5;exitY=1;exitDx=0;exitDy=0;entryX=0.5;entryY=0;entryDx=0;entryDy=0;strokeWidth=3;opacity=90;" parent="1" source="XejQ6Tq679sGkio31rRs-1" target="XejQ6Tq679sGkio31rRs-4" edge="1">
          <mxGeometry relative="1" as="geometry" />
        </mxCell>
        <mxCell id="XejQ6Tq679sGkio31rRs-18" style="edgeStyle=orthogonalEdgeStyle;rounded=1;orthogonalLoop=1;jettySize=auto;html=1;exitX=1;exitY=0.5;exitDx=0;exitDy=0;entryX=0;entryY=0.5;entryDx=0;entryDy=0;strokeWidth=3;opacity=90;" parent="1" source="XejQ6Tq679sGkio31rRs-1" target="XejQ6Tq679sGkio31rRs-5" edge="1">
          <mxGeometry relative="1" as="geometry" />
        </mxCell>
        <mxCell id="XejQ6Tq679sGkio31rRs-1" value="floatify_catboost_model.py" style="rounded=1;whiteSpace=wrap;html=1;fontFamily=Courier New;fontStyle=1;fontSize=14;fillColor=#b1ddf0;strokeColor=#10739e;strokeWidth=2;" parent="1" vertex="1">
          <mxGeometry x="130" y="200" width="260" height="50" as="geometry" />
        </mxCell>
        <mxCell id="XejQ6Tq679sGkio31rRs-14" style="edgeStyle=orthogonalEdgeStyle;rounded=1;orthogonalLoop=1;jettySize=auto;html=1;exitX=0.5;exitY=1;exitDx=0;exitDy=0;entryX=0.5;entryY=0;entryDx=0;entryDy=0;strokeWidth=3;opacity=90;" parent="1" source="XejQ6Tq679sGkio31rRs-2" target="XejQ6Tq679sGkio31rRs-1" edge="1">
          <mxGeometry relative="1" as="geometry" />
        </mxCell>
        <mxCell id="XejQ6Tq679sGkio31rRs-2" value="Catboost model&lt;br&gt;from Upshot&lt;br&gt;(.cbm format)" style="ellipse;whiteSpace=wrap;html=1;strokeWidth=2;fillColor=#d0cee2;strokeColor=#56517e;" parent="1" vertex="1">
          <mxGeometry x="200" y="80" width="120" height="60" as="geometry" />
        </mxCell>
        <mxCell id="XejQ6Tq679sGkio31rRs-16" style="edgeStyle=orthogonalEdgeStyle;rounded=1;orthogonalLoop=1;jettySize=auto;html=1;exitX=0.5;exitY=1;exitDx=0;exitDy=0;entryX=0.5;entryY=0;entryDx=0;entryDy=0;strokeWidth=3;opacity=90;" parent="1" source="XejQ6Tq679sGkio31rRs-4" target="XejQ6Tq679sGkio31rRs-9" edge="1">
          <mxGeometry relative="1" as="geometry" />
        </mxCell>
        <mxCell id="XejQ6Tq679sGkio31rRs-4" value="float-threshold trees&lt;br&gt;(JSON)" style="ellipse;whiteSpace=wrap;html=1;strokeWidth=2;fillColor=#d0cee2;strokeColor=#56517e;" parent="1" vertex="1">
          <mxGeometry x="200" y="310" width="120" height="60" as="geometry" />
        </mxCell>
        <mxCell id="XejQ6Tq679sGkio31rRs-19" style="edgeStyle=orthogonalEdgeStyle;rounded=1;orthogonalLoop=1;jettySize=auto;html=1;exitX=1;exitY=0.5;exitDx=0;exitDy=0;entryX=0;entryY=0.5;entryDx=0;entryDy=0;strokeWidth=3;opacity=90;" parent="1" source="XejQ6Tq679sGkio31rRs-5" target="XejQ6Tq679sGkio31rRs-6" edge="1">
          <mxGeometry relative="1" as="geometry" />
        </mxCell>
        <mxCell id="XejQ6Tq679sGkio31rRs-5" value="Feature specification&lt;br&gt;(pickle)" style="ellipse;whiteSpace=wrap;html=1;strokeWidth=2;fillColor=#d0cee2;strokeColor=#56517e;" parent="1" vertex="1">
          <mxGeometry x="535" y="195" width="130" height="60" as="geometry" />
        </mxCell>
        <mxCell id="XejQ6Tq679sGkio31rRs-20" style="edgeStyle=orthogonalEdgeStyle;rounded=1;orthogonalLoop=1;jettySize=auto;html=1;exitX=0.5;exitY=1;exitDx=0;exitDy=0;entryX=0.5;entryY=0;entryDx=0;entryDy=0;strokeWidth=3;opacity=90;" parent="1" source="XejQ6Tq679sGkio31rRs-6" target="XejQ6Tq679sGkio31rRs-8" edge="1">
          <mxGeometry relative="1" as="geometry" />
        </mxCell>
        <mxCell id="XejQ6Tq679sGkio31rRs-6" value="floatify_catboost_samples.py" style="rounded=1;whiteSpace=wrap;html=1;fontFamily=Courier New;fontStyle=1;fontSize=14;fillColor=#b1ddf0;strokeColor=#10739e;strokeWidth=2;" parent="1" vertex="1">
          <mxGeometry x="800" y="200" width="260" height="50" as="geometry" />
        </mxCell>
        <mxCell id="XejQ6Tq679sGkio31rRs-23" style="edgeStyle=orthogonalEdgeStyle;rounded=1;orthogonalLoop=1;jettySize=auto;html=1;exitX=0.5;exitY=1;exitDx=0;exitDy=0;entryX=0.5;entryY=0;entryDx=0;entryDy=0;strokeWidth=3;opacity=90;" parent="1" source="XejQ6Tq679sGkio31rRs-7" target="XejQ6Tq679sGkio31rRs-6" edge="1">
          <mxGeometry relative="1" as="geometry" />
        </mxCell>
        <mxCell id="XejQ6Tq679sGkio31rRs-7" value="Samples&lt;br&gt;from Upshot&lt;br&gt;(parquet)" style="ellipse;whiteSpace=wrap;html=1;strokeWidth=2;fillColor=#d0cee2;strokeColor=#56517e;" parent="1" vertex="1">
          <mxGeometry x="870" y="85" width="120" height="50" as="geometry" />
        </mxCell>
        <mxCell id="XejQ6Tq679sGkio31rRs-21" style="edgeStyle=orthogonalEdgeStyle;rounded=1;orthogonalLoop=1;jettySize=auto;html=1;exitX=0.5;exitY=1;exitDx=0;exitDy=0;entryX=0.5;entryY=0;entryDx=0;entryDy=0;strokeWidth=3;opacity=90;" parent="1" source="XejQ6Tq679sGkio31rRs-8" target="XejQ6Tq679sGkio31rRs-11" edge="1">
          <mxGeometry relative="1" as="geometry" />
        </mxCell>
        <mxCell id="XejQ6Tq679sGkio31rRs-8" value="float samples&lt;br&gt;(npy)" style="ellipse;whiteSpace=wrap;html=1;strokeWidth=2;fillColor=#d0cee2;strokeColor=#56517e;" parent="1" vertex="1">
          <mxGeometry x="870" y="310" width="120" height="60" as="geometry" />
        </mxCell>
        <mxCell id="XejQ6Tq679sGkio31rRs-17" style="edgeStyle=orthogonalEdgeStyle;rounded=1;orthogonalLoop=1;jettySize=auto;html=1;exitX=0.5;exitY=1;exitDx=0;exitDy=0;entryX=0.5;entryY=0;entryDx=0;entryDy=0;strokeWidth=3;opacity=90;" parent="1" source="XejQ6Tq679sGkio31rRs-9" target="XejQ6Tq679sGkio31rRs-12" edge="1">
          <mxGeometry relative="1" as="geometry" />
        </mxCell>
        <mxCell id="XejQ6Tq679sGkio31rRs-24" style="edgeStyle=orthogonalEdgeStyle;rounded=1;orthogonalLoop=1;jettySize=auto;html=1;exitX=1;exitY=0.5;exitDx=0;exitDy=0;entryX=0;entryY=0.5;entryDx=0;entryDy=0;strokeWidth=3;opacity=90;" parent="1" source="XejQ6Tq679sGkio31rRs-9" target="XejQ6Tq679sGkio31rRs-10" edge="1">
          <mxGeometry relative="1" as="geometry" />
        </mxCell>
        <mxCell id="XejQ6Tq679sGkio31rRs-9" value="quantize_float_model.py" style="rounded=1;whiteSpace=wrap;html=1;fontFamily=Courier New;fontStyle=1;fontSize=14;fillColor=#b1ddf0;strokeColor=#10739e;strokeWidth=2;" parent="1" vertex="1">
          <mxGeometry x="130" y="435" width="260" height="50" as="geometry" />
        </mxCell>
        <mxCell id="XejQ6Tq679sGkio31rRs-25" style="edgeStyle=orthogonalEdgeStyle;rounded=1;orthogonalLoop=1;jettySize=auto;html=1;exitX=1;exitY=0.5;exitDx=0;exitDy=0;entryX=0;entryY=0.5;entryDx=0;entryDy=0;strokeWidth=3;opacity=90;" parent="1" source="XejQ6Tq679sGkio31rRs-10" target="XejQ6Tq679sGkio31rRs-11" edge="1">
          <mxGeometry relative="1" as="geometry" />
        </mxCell>
        <mxCell id="XejQ6Tq679sGkio31rRs-10" value="Boundaries specification (npy)" style="ellipse;whiteSpace=wrap;html=1;strokeWidth=2;fillColor=#d0cee2;strokeColor=#56517e;" parent="1" vertex="1">
          <mxGeometry x="535" y="430" width="130" height="60" as="geometry" />
        </mxCell>
        <mxCell id="XejQ6Tq679sGkio31rRs-22" style="edgeStyle=orthogonalEdgeStyle;rounded=1;orthogonalLoop=1;jettySize=auto;html=1;exitX=0.5;exitY=1;exitDx=0;exitDy=0;entryX=0.5;entryY=0;entryDx=0;entryDy=0;strokeWidth=3;opacity=90;" parent="1" source="XejQ6Tq679sGkio31rRs-11" target="XejQ6Tq679sGkio31rRs-13" edge="1">
          <mxGeometry relative="1" as="geometry" />
        </mxCell>
        <mxCell id="XejQ6Tq679sGkio31rRs-11" value="quantize_float_samples.py" style="rounded=1;whiteSpace=wrap;html=1;fontFamily=Courier New;fontStyle=1;fontSize=14;fillColor=#b1ddf0;strokeColor=#10739e;strokeWidth=2;" parent="1" vertex="1">
          <mxGeometry x="800" y="435" width="260" height="50" as="geometry" />
        </mxCell>
        <mxCell id="XejQ6Tq679sGkio31rRs-41" style="edgeStyle=orthogonalEdgeStyle;rounded=1;orthogonalLoop=1;jettySize=auto;html=1;exitX=0.5;exitY=1;exitDx=0;exitDy=0;entryX=0.5;entryY=0;entryDx=0;entryDy=0;entryPerimeter=0;strokeWidth=3;opacity=90;" parent="1" source="XejQ6Tq679sGkio31rRs-12" target="XejQ6Tq679sGkio31rRs-37" edge="1">
          <mxGeometry relative="1" as="geometry" />
        </mxCell>
        <mxCell id="XejQ6Tq679sGkio31rRs-12" value="uint-threshold trees&lt;br&gt;(JSON)" style="ellipse;whiteSpace=wrap;html=1;strokeWidth=2;fillColor=#d0cee2;strokeColor=#56517e;" parent="1" vertex="1">
          <mxGeometry x="200" y="550" width="120" height="60" as="geometry" />
        </mxCell>
        <mxCell id="XejQ6Tq679sGkio31rRs-45" style="edgeStyle=orthogonalEdgeStyle;rounded=1;orthogonalLoop=1;jettySize=auto;html=1;exitX=0.5;exitY=1;exitDx=0;exitDy=0;entryX=0.5;entryY=0;entryDx=0;entryDy=0;entryPerimeter=0;strokeWidth=3;opacity=90;" parent="1" source="XejQ6Tq679sGkio31rRs-13" target="XejQ6Tq679sGkio31rRs-39" edge="1">
          <mxGeometry relative="1" as="geometry" />
        </mxCell>
        <mxCell id="XejQ6Tq679sGkio31rRs-13" value="uint samples&lt;br&gt;(npy)" style="ellipse;whiteSpace=wrap;html=1;strokeWidth=2;fillColor=#d0cee2;strokeColor=#56517e;" parent="1" vertex="1">
          <mxGeometry x="870" y="550" width="120" height="60" as="geometry" />
        </mxCell>
        <mxCell id="XejQ6Tq679sGkio31rRs-43" style="edgeStyle=orthogonalEdgeStyle;rounded=1;orthogonalLoop=1;jettySize=auto;html=1;exitX=0.5;exitY=1;exitDx=0;exitDy=0;entryX=0.5;entryY=0;entryDx=0;entryDy=0;entryPerimeter=0;strokeWidth=3;opacity=90;" parent="1" source="XejQ6Tq679sGkio31rRs-27" target="XejQ6Tq679sGkio31rRs-38" edge="1">
          <mxGeometry relative="1" as="geometry" />
        </mxCell>
        <mxCell id="XejQ6Tq679sGkio31rRs-44" style="edgeStyle=orthogonalEdgeStyle;rounded=1;orthogonalLoop=1;jettySize=auto;html=1;exitX=1;exitY=0.5;exitDx=0;exitDy=0;entryX=0;entryY=0.5;entryDx=0;entryDy=0;entryPerimeter=0;strokeWidth=3;opacity=90;" parent="1" source="XejQ6Tq679sGkio31rRs-27" target="XejQ6Tq679sGkio31rRs-39" edge="1">
          <mxGeometry relative="1" as="geometry">
            <Array as="points">
              <mxPoint x="570" y="970" />
              <mxPoint x="570" y="775" />
            </Array>
          </mxGeometry>
        </mxCell>
        <mxCell id="XejQ6Tq679sGkio31rRs-27" value="&lt;font face=&quot;Courier New&quot;&gt;&lt;span style=&quot;background-color: initial;&quot;&gt;struct &lt;b&gt;TreesModel&lt;/b&gt; {&lt;/span&gt;&lt;br&gt;&lt;span style=&quot;background-color: initial;&quot;&gt;&amp;nbsp; &amp;nbsp; trees: Vec&amp;lt;Node&amp;lt;i64&amp;gt;&amp;gt;,&lt;br&gt;&lt;/span&gt;&amp;nbsp; &amp;nbsp; ...&lt;br&gt;&lt;/font&gt;&lt;span style=&quot;font-family: &amp;quot;Courier New&amp;quot;; background-color: initial;&quot;&gt;}&lt;/span&gt;&lt;font face=&quot;Courier New&quot;&gt;&lt;br&gt;&lt;/font&gt;" style="shape=document;whiteSpace=wrap;html=1;boundedLbl=1;align=left;strokeWidth=2;spacingTop=22;spacingLeft=16;fillColor=#fad7ac;strokeColor=#b46504;" parent="1" vertex="1">
          <mxGeometry x="140" y="910" width="240" height="120" as="geometry" />
        </mxCell>
        <mxCell id="XejQ6Tq679sGkio31rRs-42" style="edgeStyle=orthogonalEdgeStyle;rounded=1;orthogonalLoop=1;jettySize=auto;html=1;exitX=0.5;exitY=1;exitDx=0;exitDy=0;exitPerimeter=0;strokeWidth=3;opacity=90;" parent="1" source="XejQ6Tq679sGkio31rRs-37" target="XejQ6Tq679sGkio31rRs-27" edge="1">
          <mxGeometry relative="1" as="geometry" />
        </mxCell>
        <mxCell id="XejQ6Tq679sGkio31rRs-37" value="&lt;span style=&quot;border-color: var(--border-color); color: rgb(0, 0, 0); font-family: &amp;quot;Courier New&amp;quot;; font-style: normal; font-variant-ligatures: normal; font-variant-caps: normal; letter-spacing: normal; orphans: 2; text-indent: 0px; text-transform: none; widows: 2; word-spacing: 0px; -webkit-text-stroke-width: 0px; background-color: initial; text-decoration-thickness: initial; text-decoration-style: initial; text-decoration-color: initial; font-size: 13px;&quot;&gt;&lt;b&gt;dt2zkdt.rs&lt;/b&gt;&lt;/span&gt;&lt;span style=&quot;border-color: var(--border-color); color: rgb(0, 0, 0); font-family: &amp;quot;Courier New&amp;quot;; font-style: normal; font-variant-ligatures: normal; font-variant-caps: normal; letter-spacing: normal; orphans: 2; text-indent: 0px; text-transform: none; widows: 2; word-spacing: 0px; -webkit-text-stroke-width: 0px; background-color: initial; text-decoration-thickness: initial; text-decoration-style: initial; text-decoration-color: initial; font-size: 13px; font-weight: normal;&quot;&gt;:&lt;/span&gt;&lt;br style=&quot;border-color: var(--border-color); color: rgb(0, 0, 0); font-family: &amp;quot;Courier New&amp;quot;; font-size: 14px; font-style: normal; font-variant-ligatures: normal; font-variant-caps: normal; font-weight: 700; letter-spacing: normal; orphans: 2; text-indent: 0px; text-transform: none; widows: 2; word-spacing: 0px; -webkit-text-stroke-width: 0px; background-color: rgb(251, 251, 251); text-decoration-thickness: initial; text-decoration-style: initial; text-decoration-color: initial;&quot;&gt;&lt;span style=&quot;border-color: var(--border-color); color: rgb(0, 0, 0); font-family: &amp;quot;Courier New&amp;quot;; font-style: normal; font-variant-ligatures: normal; font-variant-caps: normal; letter-spacing: normal; orphans: 2; text-indent: 0px; text-transform: none; widows: 2; word-spacing: 0px; -webkit-text-stroke-width: 0px; background-color: initial; text-decoration-thickness: initial; text-decoration-style: initial; text-decoration-color: initial; font-size: 13px; font-weight: normal;&quot;&gt;let raw_trees_model: RawTreesModel = load_raw_trees_model(&quot;trees.json&quot;);&lt;/span&gt;&lt;br style=&quot;border-color: var(--border-color); color: rgb(0, 0, 0); font-family: &amp;quot;Courier New&amp;quot;; font-size: 14px; font-style: normal; font-variant-ligatures: normal; font-variant-caps: normal; font-weight: 700; letter-spacing: normal; orphans: 2; text-indent: 0px; text-transform: none; widows: 2; word-spacing: 0px; -webkit-text-stroke-width: 0px; background-color: rgb(251, 251, 251); text-decoration-thickness: initial; text-decoration-style: initial; text-decoration-color: initial;&quot;&gt;&lt;span style=&quot;border-color: var(--border-color); color: rgb(0, 0, 0); font-family: &amp;quot;Courier New&amp;quot;; font-style: normal; font-variant-ligatures: normal; font-variant-caps: normal; letter-spacing: normal; orphans: 2; text-indent: 0px; text-transform: none; widows: 2; word-spacing: 0px; -webkit-text-stroke-width: 0px; background-color: initial; text-decoration-thickness: initial; text-decoration-style: initial; text-decoration-color: initial; font-size: 13px; font-weight: normal;&quot;&gt;let trees_model: TreesModel = (&amp;amp;raw_trees_model).into();&lt;br&gt;&lt;/span&gt;" style="shape=note;whiteSpace=wrap;html=1;backgroundOutline=1;darkOpacity=0.05;align=left;spacingLeft=5;spacingRight=3;strokeWidth=2;fillColor=#fad9d5;strokeColor=#ae4132;" parent="1" vertex="1">
          <mxGeometry x="-25" y="725" width="570" height="110" as="geometry" />
        </mxCell>
        <mxCell id="XejQ6Tq679sGkio31rRs-46" style="edgeStyle=orthogonalEdgeStyle;rounded=1;orthogonalLoop=1;jettySize=auto;html=1;exitX=0.5;exitY=1;exitDx=0;exitDy=0;exitPerimeter=0;entryX=0.465;entryY=0;entryDx=0;entryDy=0;entryPerimeter=0;strokeWidth=3;opacity=90;" parent="1" source="XejQ6Tq679sGkio31rRs-38" target="XejQ6Tq679sGkio31rRs-50" edge="1">
          <mxGeometry relative="1" as="geometry">
            <mxPoint x="260" y="1290" as="targetPoint" />
          </mxGeometry>
        </mxCell>
        <mxCell id="XejQ6Tq679sGkio31rRs-38" value="&lt;b style=&quot;font-family: &amp;quot;Courier New&amp;quot;; background-color: initial;&quot;&gt;dt2zkdt.rs&lt;/b&gt;&lt;span style=&quot;font-family: &amp;quot;Courier New&amp;quot;; background-color: initial;&quot;&gt;:&lt;/span&gt;&lt;br&gt;&lt;div&gt;&lt;font face=&quot;Courier New&quot;&gt;&lt;span style=&quot;font-size: 13px;&quot;&gt;let ctrees: CircuitizedTrees&amp;lt;Fr&amp;gt; = (&amp;amp;trees_model).into();&lt;/span&gt;&lt;/font&gt;&lt;/div&gt;" style="shape=note;whiteSpace=wrap;html=1;backgroundOutline=1;darkOpacity=0.05;align=left;spacingLeft=5;spacingRight=3;strokeWidth=2;fillColor=#fad9d5;strokeColor=#ae4132;" parent="1" vertex="1">
          <mxGeometry x="15" y="1135" width="490" height="90" as="geometry" />
        </mxCell>
        <mxCell id="XejQ6Tq679sGkio31rRs-110" style="edgeStyle=orthogonalEdgeStyle;rounded=0;orthogonalLoop=1;jettySize=auto;html=1;exitX=0.5;exitY=1;exitDx=0;exitDy=0;exitPerimeter=0;entryX=0.5;entryY=0;entryDx=0;entryDy=0;strokeWidth=4;" parent="1" source="XejQ6Tq679sGkio31rRs-39" target="XejQ6Tq679sGkio31rRs-109" edge="1">
          <mxGeometry relative="1" as="geometry" />
        </mxCell>
        <mxCell id="XejQ6Tq679sGkio31rRs-39" value="&lt;span style=&quot;border-color: var(--border-color); color: rgb(0, 0, 0); font-family: &amp;quot;Courier New&amp;quot;; font-style: normal; font-variant-ligatures: normal; font-variant-caps: normal; letter-spacing: normal; orphans: 2; text-indent: 0px; text-transform: none; widows: 2; word-spacing: 0px; -webkit-text-stroke-width: 0px; background-color: initial; text-decoration-thickness: initial; text-decoration-style: initial; text-decoration-color: initial; font-size: 13px;&quot;&gt;&lt;b&gt;dt2zkdt.rs&lt;/b&gt;&lt;/span&gt;&lt;span style=&quot;border-color: var(--border-color); color: rgb(0, 0, 0); font-family: &amp;quot;Courier New&amp;quot;; font-style: normal; font-variant-ligatures: normal; font-variant-caps: normal; letter-spacing: normal; orphans: 2; text-indent: 0px; text-transform: none; widows: 2; word-spacing: 0px; -webkit-text-stroke-width: 0px; background-color: initial; text-decoration-thickness: initial; text-decoration-style: initial; text-decoration-color: initial; font-size: 13px; font-weight: normal;&quot;&gt;:&lt;/span&gt;&lt;br style=&quot;border-color: var(--border-color); color: rgb(0, 0, 0); font-family: &amp;quot;Courier New&amp;quot;; font-size: 14px; font-style: normal; font-variant-ligatures: normal; font-variant-caps: normal; font-weight: 700; letter-spacing: normal; orphans: 2; text-indent: 0px; text-transform: none; widows: 2; word-spacing: 0px; -webkit-text-stroke-width: 0px; background-color: rgb(251, 251, 251); text-decoration-thickness: initial; text-decoration-style: initial; text-decoration-color: initial;&quot;&gt;&lt;div&gt;&lt;font face=&quot;Courier New&quot;&gt;let raw_samples: RawSamples = load_raw_samples(&quot;samples.npy&quot;);&lt;/font&gt;&lt;/div&gt;&lt;div&gt;&lt;font face=&quot;Courier New&quot;&gt;let samples: Samples = to_samples(&amp;amp;raw_samples, &amp;amp;trees_model)&lt;/font&gt;&lt;/div&gt;" style="shape=note;whiteSpace=wrap;html=1;backgroundOutline=1;darkOpacity=0.05;align=left;spacingLeft=5;spacingRight=3;strokeWidth=2;fillColor=#fad9d5;strokeColor=#ae4132;" parent="1" vertex="1">
          <mxGeometry x="667.5" y="715" width="525" height="120" as="geometry" />
        </mxCell>
        <mxCell id="XejQ6Tq679sGkio31rRs-49" value="&lt;div style=&quot;border-color: var(--border-color);&quot;&gt;&lt;font face=&quot;Courier New&quot;&gt;struct&lt;span&gt;&amp;nbsp;&lt;/span&gt;&lt;b style=&quot;border-color: var(--border-color);&quot;&gt;CircuitizedSamples&lt;/b&gt;&lt;span&gt;&amp;nbsp;&lt;/span&gt;{&lt;/font&gt;&lt;/div&gt;&lt;div style=&quot;border-color: var(--border-color);&quot;&gt;&lt;font face=&quot;Courier New&quot;&gt;&amp;nbsp; samples: Vec&amp;lt;Vec&amp;lt;InputAttribute&amp;lt;F&amp;gt;&amp;gt;&amp;gt;,&lt;/font&gt;&lt;/div&gt;&lt;div style=&quot;border-color: var(--border-color);&quot;&gt;&lt;font face=&quot;Courier New&quot;&gt;&amp;nbsp; decision_paths: Vec&amp;lt;Vec&amp;lt;Vec&amp;lt;DecisionNode&amp;lt;F&amp;gt;&amp;gt;&amp;gt;&amp;gt;,&lt;/font&gt;&lt;/div&gt;&lt;div style=&quot;border-color: var(--border-color);&quot;&gt;&lt;font face=&quot;Courier New&quot;&gt;&amp;nbsp; attributes_on_paths: Vec&amp;lt;Vec&amp;lt;Vec&amp;lt;InputAttribute&amp;lt;F&amp;gt;&amp;gt;&amp;gt;&amp;gt;,&lt;/font&gt;&lt;/div&gt;&lt;div style=&quot;border-color: var(--border-color);&quot;&gt;&lt;font face=&quot;Courier New&quot;&gt;&amp;nbsp; differences: Vec&amp;lt;Vec&amp;lt;Vec&amp;lt;BinDecomp16Bit&amp;lt;F&amp;gt;&amp;gt;&amp;gt;&amp;gt;,&lt;/font&gt;&lt;/div&gt;&lt;div style=&quot;border-color: var(--border-color);&quot;&gt;&lt;font face=&quot;Courier New&quot;&gt;&amp;nbsp; path_ends: Vec&amp;lt;Vec&amp;lt;LeafNode&amp;lt;F&amp;gt;&amp;gt;&amp;gt;,&lt;/font&gt;&lt;/div&gt;&lt;div style=&quot;border-color: var(--border-color);&quot;&gt;&lt;font face=&quot;Courier New&quot;&gt;&amp;nbsp; attribute_multiplicities: Vec&amp;lt;Vec&amp;lt;Vec&amp;lt;BinDecomp4Bit&amp;lt;F&amp;gt;&amp;gt;&amp;gt;&amp;gt;,&lt;/font&gt;&lt;/div&gt;&lt;div style=&quot;border-color: var(--border-color);&quot;&gt;&lt;font face=&quot;Courier New&quot;&gt;&amp;nbsp; node_multiplicities: Vec&amp;lt;Vec&amp;lt;BinDecomp16Bit&amp;lt;F&amp;gt;&amp;gt;&amp;gt;,&lt;/font&gt;&lt;/div&gt;&lt;div style=&quot;border-color: var(--border-color);&quot;&gt;&lt;font face=&quot;Courier New&quot;&gt;}&lt;/font&gt;&lt;br&gt;&lt;/div&gt;" style="shape=document;whiteSpace=wrap;html=1;boundedLbl=1;align=left;strokeWidth=2;spacingTop=22;spacingLeft=12;fillColor=#fad7ac;strokeColor=#b46504;" parent="1" vertex="1">
          <mxGeometry x="692.5" y="1312" width="475" height="230" as="geometry" />
        </mxCell>
        <mxCell id="XejQ6Tq679sGkio31rRs-50" value="&lt;div style=&quot;border-color: var(--border-color);&quot;&gt;&lt;font style=&quot;border-color: var(--border-color);&quot; face=&quot;Courier New&quot;&gt;struct&amp;nbsp;&lt;b style=&quot;border-color: var(--border-color);&quot;&gt;CircuitizedTrees&lt;/b&gt;&amp;nbsp;{&lt;br style=&quot;border-color: var(--border-color);&quot;&gt;&lt;/font&gt;&lt;div style=&quot;border-color: var(--border-color);&quot;&gt;&lt;font style=&quot;border-color: var(--border-color);&quot; face=&quot;Courier New&quot;&gt;&amp;nbsp; Vec&amp;lt;Vec&amp;lt;DecisionNode&amp;lt;F&amp;gt;&amp;gt;&amp;gt;,&lt;/font&gt;&lt;/div&gt;&lt;div style=&quot;border-color: var(--border-color);&quot;&gt;&lt;font style=&quot;border-color: var(--border-color);&quot; face=&quot;Courier New&quot;&gt;&amp;nbsp; Vec&amp;lt;Vec&amp;lt;LeafNode&amp;lt;F&amp;gt;&amp;gt;&amp;gt;,&lt;/font&gt;&lt;/div&gt;&lt;div style=&quot;border-color: var(--border-color);&quot;&gt;&lt;font style=&quot;border-color: var(--border-color);&quot; face=&quot;Courier New&quot;&gt;&amp;nbsp; ...&lt;/font&gt;&lt;/div&gt;&lt;font style=&quot;border-color: var(--border-color);&quot; face=&quot;Courier New&quot;&gt;}&lt;/font&gt;&lt;br&gt;&lt;/div&gt;" style="shape=document;whiteSpace=wrap;html=1;boundedLbl=1;align=left;strokeWidth=2;spacingTop=22;spacingLeft=16;fillColor=#fad7ac;strokeColor=#b46504;" parent="1" vertex="1">
          <mxGeometry x="70" y="1310" width="410" height="100" as="geometry" />
        </mxCell>
        <mxCell id="XejQ6Tq679sGkio31rRs-68" value="Sample processing" style="text;html=1;strokeColor=none;fillColor=none;align=center;verticalAlign=middle;whiteSpace=wrap;rounded=0;fontSize=25;fontStyle=1" parent="1" vertex="1">
          <mxGeometry x="910" y="-100" width="60" height="30" as="geometry" />
        </mxCell>
        <mxCell id="XejQ6Tq679sGkio31rRs-82" value="" style="shape=flexArrow;endArrow=classic;startArrow=classic;html=1;rounded=0;strokeWidth=3;opacity=50;fillColor=#bac8d3;strokeColor=#23445d;" parent="1" edge="1">
          <mxGeometry width="100" height="100" relative="1" as="geometry">
            <mxPoint x="1270" y="610" as="sourcePoint" />
            <mxPoint x="1270" y="-10" as="targetPoint" />
          </mxGeometry>
        </mxCell>
        <mxCell id="XejQ6Tq679sGkio31rRs-83" value="" style="shape=image;verticalLabelPosition=bottom;labelBackgroundColor=default;verticalAlign=top;aspect=fixed;imageAspect=0;image=data:image/png,iVBORw0KGgoAAAANSUhEUgAAAdYAAAHqCAYAAAC5om+MAAAMPmlDQ1BJQ0MgUHJvZmlsZQAASImVVwdYU8kWnluSkEBoAQSkhN4EkRpASggt9N5shCRAKDEGgoodXVRw7SICNnRVRMFKsyN2FsXeFwsqyrpYsCtvUkDXfeV7831z57//nPnPmXNn7r0DgNpxjkiUi6oDkCcsEMcG+9OTU1LppKcAB2RAASigcLj5ImZ0dDiAZaj9e3l3HSDS9oq9VOuf/f+1aPD4+VwAkGiI03n53DyIDwCAV3NF4gIAiFLebGqBSIphBVpiGCDEi6Q4U46rpThdjvfIbOJjWRC3A6CkwuGIMwFQvQR5eiE3E2qo9kPsKOQJhACo0SH2ycubzIM4DWJraCOCWKrPSP9BJ/NvmunDmhxO5jCWz0VWlAIE+aJczvT/Mx3/u+TlSoZ8WMKqkiUOiZXOGebtZs7kMClWgbhPmB4ZBbEmxB8EPJk9xCglSxKSILdHDbj5LJgzoAOxI48TEAaxAcRBwtzIcAWfniEIYkMMVwg6TVDAjodYF+JF/PzAOIXNJvHkWIUvtDFDzGIq+LMcscyv1Nd9SU4CU6H/OovPVuhjqkVZ8UkQUyA2LxQkRkKsCrFDfk5cmMJmbFEWK3LIRiyJlcZvDnEsXxjsL9fHCjPEQbEK+9K8/KH5YpuyBOxIBd5XkBUfIs8P1s7lyOKHc8Eu8YXMhCEdfn5y+NBcePyAQPncsWd8YUKcQueDqMA/Vj4Wp4hyoxX2uCk/N1jKm0Lskl8YpxiLJxbABSnXxzNEBdHx8jjxomxOaLQ8Hnw5CAcsEADoQAJrOpgMsoGgs6+pD97Je4IAB4hBJuADewUzNCJJ1iOE1zhQBP6EiA/yh8f5y3r5oBDyX4dZ+dUeZMh6C2UjcsATiPNAGMiF9xLZKOGwt0TwGDKCf3jnwMqF8ebCKu3/9/wQ+51hQiZcwUiGPNLVhiyJgcQAYggxiGiD6+M+uBceDq9+sDrhDNxjaB7f7QlPCF2Eh4RrhG7CrUmCYvFPUUaAbqgfpMhF+o+5wC2hpivuj3tDdaiM6+D6wB53gX6YuC/07ApZliJuaVboP2n/bQY/PA2FHdmRjJJHkP3I1j+PVLVVdR1Wkeb6x/zIY00fzjdruOdn/6wfss+DbdjPltgibD92BjuBncMOY02Ajh3DmrEO7IgUD6+ux7LVNeQtVhZPDtQR/MPf0JOVZjLfsc6x1/GLvK+AP036jgasyaLpYkFmVgGdCb8IfDpbyHUYRXdydHIGQPp9kb++3sTIvhuITsd3bv4fAHgfGxwcPPSdCz0GwF53uP1bvnPWDPjpUAbgbAtXIi6Uc7j0QoBvCTW40/SAETAD1nA+TsANeAE/EAhCQRSIBylgIow+C65zMZgKZoJ5oASUgeVgDagEG8EWsAPsBvtAEzgMToDT4AK4BK6BO3D19IAXoB+8A58RBCEhVISG6CHGiAVihzghDMQHCUTCkVgkBUlDMhEhIkFmIvORMmQlUolsRmqRvUgLcgI5h3Qht5AHSC/yGvmEYqgKqoUaopboaJSBMtEwNB6dgGaiU9AidAG6FK1Aa9BdaCN6Ar2AXkO70RfoAAYwZUwHM8HsMQbGwqKwVCwDE2OzsVKsHKvB6rFW+JyvYN1YH/YRJ+I0nI7bwxUcgifgXHwKPhtfglfiO/BGvB2/gj/A+/FvBCrBgGBH8CSwCcmETMJUQgmhnLCNcJBwCu6lHsI7IpGoQ7QiusO9mELMJs4gLiGuJzYQjxO7iI+IAyQSSY9kR/ImRZE4pAJSCWkdaRfpGOkyqYf0QUlZyVjJSSlIKVVJqFSsVK60U+mo0mWlp0qfyepkC7InOYrMI08nLyNvJbeSL5J7yJ8pGhQrijclnpJNmUepoNRTTlHuUt4oKyubKnsoxygLlOcqVyjvUT6r/ED5o4qmiq0KS2W8ikRlqcp2leMqt1TeUKlUS6ofNZVaQF1KraWepN6nflClqTqoslV5qnNUq1QbVS+rvlQjq1moMdUmqhWplavtV7uo1qdOVrdUZ6lz1GerV6m3qN9QH9CgaYzRiNLI01iisVPjnMYzTZKmpWagJk9zgeYWzZOaj2gYzYzGonFp82lbaadoPVpELSsttla2VpnWbq1OrX5tTW0X7UTtadpV2ke0u3UwHUsdtk6uzjKdfTrXdT6NMBzBHMEfsXhE/YjLI97rjtT10+Xrluo26F7T/aRH1wvUy9Fbodekd08f17fVj9Gfqr9B/5R+30itkV4juSNLR+4bedsANbA1iDWYYbDFoMNgwNDIMNhQZLjO8KRhn5GOkZ9RttFqo6NGvcY0Yx9jgfFq42PGz+nadCY9l15Bb6f3mxiYhJhITDabdJp8NrUyTTAtNm0wvWdGMWOYZZitNmsz6zc3No8wn2leZ37bgmzBsMiyWGtxxuK9pZVlkuVCyybLZ1a6VmyrIqs6q7vWVGtf6ynWNdZXbYg2DJscm/U2l2xRW1fbLNsq24t2qJ2bncBuvV3XKMIoj1HCUTWjbtir2DPtC+3r7B846DiEOxQ7NDm8HG0+OnX0itFnRn9zdHXMddzqeGeM5pjQMcVjWse8drJ14jpVOV11pjoHOc9xbnZ+5WLnwnfZ4HLTleYa4brQtc31q5u7m9it3q3X3dw9zb3a/QZDixHNWMI460Hw8PeY43HY46Onm2eB5z7Pv7zsvXK8dno9G2s1lj9269hH3qbeHO/N3t0+dJ80n00+3b4mvhzfGt+HfmZ+PL9tfk+ZNsxs5i7mS39Hf7H/Qf/3LE/WLNbxACwgOKA0oDNQMzAhsDLwfpBpUGZQXVB/sGvwjODjIYSQsJAVITfYhmwuu5bdH+oeOiu0PUwlLC6sMuxhuG24OLw1Ao0IjVgVcTfSIlIY2RQFothRq6LuRVtFT4k+FEOMiY6pinkSOyZ2ZuyZOFrcpLidce/i/eOXxd9JsE6QJLQlqiWOT6xNfJ8UkLQyqTt5dPKs5Asp+imClOZUUmpi6rbUgXGB49aM6xnvOr5k/PUJVhOmTTg3UX9i7sQjk9QmcSbtTyOkJaXtTPvCieLUcAbS2enV6f1cFnct9wXPj7ea18v35q/kP83wzliZ8SzTO3NVZm+Wb1Z5Vp+AJagUvMoOyd6Y/T4nKmd7zmBuUm5DnlJeWl6LUFOYI2yfbDR52uQukZ2oRNQ9xXPKmin94jDxtnwkf0J+c4EW/JHvkFhLfpE8KPQprCr8MDVx6v5pGtOE0zqm205fPP1pUVDRbzPwGdwZbTNNZs6b+WAWc9bm2cjs9Nltc8zmLJjTMzd47o55lHk5834vdixeWfx2ftL81gWGC+YuePRL8C91Jaol4pIbC70WblyELxIs6lzsvHjd4m+lvNLzZY5l5WVflnCXnP91zK8Vvw4uzVjaucxt2YblxOXC5ddX+K7YsVJjZdHKR6siVjWupq8uXf12zaQ158pdyjeupayVrO2uCK9oXme+bvm6L5VZldeq/Ksaqg2qF1e/X89bf3mD34b6jYYbyzZ+2iTYdHNz8ObGGsua8i3ELYVbnmxN3HrmN8Zvtdv0t5Vt+7pduL17R+yO9lr32tqdBjuX1aF1krreXeN3XdodsLu53r5+c4NOQ9kesEey5/netL3X94Xta9vP2F9/wOJA9UHawdJGpHF6Y39TVlN3c0pzV0toS1urV+vBQw6Hth82OVx1RPvIsqOUowuODh4rOjZwXHS870TmiUdtk9runEw+ebU9pr3zVNips6eDTp88wzxz7Kz32cPnPM+1nGecb7rgdqGxw7Xj4O+uvx/sdOtsvOh+sfmSx6XWrrFdRy/7Xj5xJeDK6avsqxeuRV7rup5w/eaN8Te6b/JuPruVe+vV7cLbn+/MvUu4W3pP/V75fYP7NX/Y/NHQ7dZ95EHAg46HcQ/vPOI+evE4//GXngVPqE/Knxo/rX3m9Oxwb1Dvpefjnve8EL343Ffyp8af1S+tXx74y++vjv7k/p5X4leDr5e80Xuz/a3L27aB6IH77/LefX5f+kHvw46PjI9nPiV9evp56hfSl4qvNl9bv4V9uzuYNzgo4og5sl8BDFY0IwOA19sBoKYAQIPnM8o4+flPVhD5mVWGwH/C8jOirLgBUA//32P64N/NDQD2bIXHL6ivNh6AaCoA8R4AdXYerkNnNdm5UlqI8BywKfZrel46+DdFfub8Ie6fWyBVdQE/t/8Cl2d8L5kSz1IAAACKZVhJZk1NACoAAAAIAAQBGgAFAAAAAQAAAD4BGwAFAAAAAQAAAEYBKAADAAAAAQACAACHaQAEAAAAAQAAAE4AAAAAAAAAkAAAAAEAAACQAAAAAQADkoYABwAAABIAAAB4oAIABAAAAAEAAAHWoAMABAAAAAEAAAHqAAAAAEFTQ0lJAAAAU2NyZWVuc2hvdF1b38kAAAAJcEhZcwAAFiUAABYlAUlSJPAAAAHWaVRYdFhNTDpjb20uYWRvYmUueG1wAAAAAAA8eDp4bXBtZXRhIHhtbG5zOng9ImFkb2JlOm5zOm1ldGEvIiB4OnhtcHRrPSJYTVAgQ29yZSA2LjAuMCI+CiAgIDxyZGY6UkRGIHhtbG5zOnJkZj0iaHR0cDovL3d3dy53My5vcmcvMTk5OS8wMi8yMi1yZGYtc3ludGF4LW5zIyI+CiAgICAgIDxyZGY6RGVzY3JpcHRpb24gcmRmOmFib3V0PSIiCiAgICAgICAgICAgIHhtbG5zOmV4aWY9Imh0dHA6Ly9ucy5hZG9iZS5jb20vZXhpZi8xLjAvIj4KICAgICAgICAgPGV4aWY6UGl4ZWxZRGltZW5zaW9uPjQ5MDwvZXhpZjpQaXhlbFlEaW1lbnNpb24+CiAgICAgICAgIDxleGlmOlBpeGVsWERpbWVuc2lvbj40NzA8L2V4aWY6UGl4ZWxYRGltZW5zaW9uPgogICAgICAgICA8ZXhpZjpVc2VyQ29tbWVudD5TY3JlZW5zaG90PC9leGlmOlVzZXJDb21tZW50PgogICAgICA8L3JkZjpEZXNjcmlwdGlvbj4KICAgPC9yZGY6UkRGPgo8L3g6eG1wbWV0YT4K38hIpwAAABxpRE9UAAAAAgAAAAAAAAD1AAAAKAAAAPUAAAD1AAByXDL6AVEAAEAASURBVHgB7L0Hl2XXdSZ2qqtzzrnRjZxJJAIECQZQDGISrRFHtjSeGWssz6Kt8Vq2l+1fMOO1nNbMmuUZWSNqZjSmBFIiKZEiCSaQBEgAJDKRGqG70TnH6q7c9cr7u9Vf9Vcb5953X36v6pyF6rPP3vvs8N2wce+799y+S5cuTfb19YXJycmAHo00em2Uk0c9jsv29BfTVxn9qR/GFJPF7M02nuJTNjc/h9hxfi2Y6rbg/DK9j0Hn5Mny+JirMqXVbpGen4OxthgmKo/ZVjnnUy8mYwz0HcM2xqOtmEx5ebSfr3pexjF66KHF4s4EIqtHT+fQnvb0q7xa5uTNL7JRNMfHUTRWjD3Neeorj6Yue9Ujb670teAInNC4D7cKI9rvGxwczI4WH6TfYAxMA9I5yq9Ge9uqrzL6VD/TgQtQ1FM7s5VWfHyOxIEYUe7nUI9y6ns+5drrtlB+NdrHoPp5sjw+5qpMabUb0wOPOTBv6qFno46OSbNXv6DROK8W27THuRz73sv9GPoxXhGfPvw8P/Y2VA6arVZMaIc2dD5told8lU8Z5xfJ8mxXs+FtNjpmrBoP84PtsphAV21gPJcacULOiqkfq4x0EU7NwDRaWH1gPggGpzuD6hQF5mXeRjXb6me20nmYMF8vBx+4ka+0l9EGe69Lfr09YuA2LLLhY9U5KqMN8jjWuJWmXHvaVhtFc4pkahd0K217X/SneahOLXHrPNJF84tknM++EUyq+cmzTd8eG+qrnDzokqa8Wl/PnDyb8O3jpa7KlFY5aB9PbOzncDybe48ZxmgxvClTPBRHpVWHNOer7T7cCoaCMn1QNFBv7wOLjWG7yK/KlK43pk7P8xiUiYfbCPmzFfGg0w1YxWJk/Np7TGLjvJzyMKFv+qGe51Ne1CuWSnNOI7ZpA33MtsoboZttW+0pzRjBQ8vDu2iOzovZUR5pzvFj8NGUP8Vp7F+/j6o1+srLXXVJ580hH3repx/HdGifvcaktinvlZ6xEwPNizlAh3zVh5xj0NTxfIxrbR0rrAhUk9LANUHlk1agyJsLPXFR3Ip43YJJLMZYbNCrlpvOo13wiuapns6vlZ6r+12tOJXVj+EZ246wR75uS8/jOObf71sxnW7gIQfNETFpXiojn7y8cV5evYJJXvxl+YopMcqb2yxMooXVO9XAvCw29hsaOsojDb4mGktKdaE/m5rmq3mWxcRvF85TWx4v6oDv9bw9Pzc21hxUHuPTn/fDmFQOWxyDztOBDE11pzhT/3pfKiPtbZOPvsx81a+Fnqu2Y3iTB/zKbkvOUX3P45jbBbrkxebRv9fhmHaa2avtophiPjE3Noe8mG3lxWzOdp7mH8MJ+YNPPaWrYTM9Rx9e4iQ647jennboDHYYJGX12p7N84gR8UJPDFXm5Yop9HUM3Va3WGxl46YeYmTc9eSgc5SGXT8GL7XWIdAsvGEHLbZ/gV+LH9ry9mK2vS59oUfzc6a4rfuX8ahfpWMxQY7mMaKtTDhL/mFOzFnz9jI/pi56jyl4tbbph5dqnViLvgbKpJkY7CiPdC3254puDMdW5a6+mumD2ze2/WN+yuhBh3ZjNhKvdxCod1uWmed1MGbj/kNeq/Z/+mt1zzzy/PR6fnl5FfGJCbc1dMkD3UxMqhZWONZAEEBeywtM+bTlE4JN78uP8/x2M19z1ziVrzR18nAibpRTv0xfC56xmOCDfPpnPEX+/Rzo6jzaitmI6fk8/DhmJ8ard17MVuLVh4DfBn5c1qqfhzGa7lt5Oqqn80hnhnL+4b5NMf35uV6P+r73MUIe4/l5sbGPQXV8nH5M3bJxU7/be4+lYuQx8GPmVgaT6cLqHdJItV6d5NFqw+tAxuRiMp3bK7TmoTFX40POVoRJkQzzy25LH4+O82jGx1i9r6LYimSMG32ebfqmLvWUTxl6ytWv103j7kagaP9i5DEd3fakoa+6nqY99JgDOemMsH/y5lCfvvL0aKfW3tujH9hhnKAZB2n0aNXm057Xm5rd+/8SI+apmBTJYnpl0JgurGWUy+pw4/okMF95GMeSAn+2NWLCvHRMmtjozk39ajjF5nBuM/uiWGMxMG7EwPwYD2WeT7n2MdsqT3RCIA+Bon3H74M6Vhq2Y3aoAzmPDdCtbrFY8nzGdPPiLsqhSJbnu1v5jWCiOCitubaksNIBnLJxQyoPsjw+583WPrZBiE1soxMr6nhc8uZ4vUbHtcbN7Qu/sdjLxl1Wr9H80vzZhwD3wdj+F8uW+5qfR77OoQ54sWNDdTtF1xJ3UQ5Fsk7lVq/fRjBRHJTWWKKFVZ3mTVQjoGN64KGpPdBsKgePY9A6B+NuaYxR88iLDbpeT+d7OWWwp/PIbwQTtZEXL/h5esoHHYsP8z2fY86njo7JQ6+2i3T8HIxTm1sIxPYtIAC+7jtez4+JmvJJQxazxTna675bhg+dvDmQMQb1D75vqkcaOjrP8zmmDsdquyi2Ipna6AYauTFPjcfzY2Poa65Kq6136fF1G69UbcxAdYOQh7k+SG+P83SO1+mlcR7gzI/5MifV9zocUzfWe3z9ODYnxtM4YnLPU33GydxiMj/fx+nHXj+NEwLNRED3Vdqttg+qPG8+baH3xwV5nEtdHi/syc/TVzlt0ZfKSGvc5GlPG+CpHc/Xsc6Pxa3yXqY9dopBUd6URa9YywDCDeEdcq4PjHz21eTU6/WeOCEPxUrzok4jmDQyV2NRWuNSPmjKQKtv5qhy6LCpLnh+TL3UJwTagUC1/RUx6D6qNOOjDY6573s+5e3qY7Gqbx9fLG7wvJ7amK00c64Xk7oLKwGlY4w1GNCUkQ8dbijKwJttTXPzOFBGTHRMGnh4eTsw8v459jkglpgMfI2btOpTp2g+ZdBNLSHQSgS4j2KfIw1/3AfBIw2+jmP6qkN5zDZl0C/TvI3YHB9bLXEzHvWjNPz5cSyGXuIpXog7NgZf81bayzBmq1pYyxqCQdUFXab5ZMrM6bSO5olY/FjjU5li4vPWsdJqqxZa/XKe5+lYaejrGDSbj03HSlM/9QmB2YAA9m00PRY0L7/v65hzdT55epxRTpnar5emrVjcMRl41KWccaEnr9Vx15tvmXmaQ1l9YgJ9P1/H03S9v7EWBaRBFOnNNRlxAfikgcH0xrhSwLy8kzj5OP0YsSmvk7Em3wmBehFo5Jjj8et987jIk3v9do/z4ur2uNuBk2JDPOBX+UVxZFesUNbJsQmUe8Oez7EG4Xk6jvnqFR7yIB6e1vyZT0yHemUwKdpOapv+8nr6oj3NgfGgp14RT3WgF2v0E5OBV02eNy/xEwLNQsDvg36sfiBD4zHHY4B8ytCTF9OBXBvtgae06lSjq8WtcShNu57nx9TTHjqaJ2nV6QVasdMcPAZ+HMut6q1gTKIh0OrQyzBmUz2dT3mv9Ihdc2HceXzI8/JVO3k6tJ/Xq1+lVZ+26U/1KIM+5ZyrMvK8XkyHdmIytZPohMBcQoDHBXLWY4N88EDHZIoT9WiH81WnmbTaj8XGeChTfY2DesrrVVpzZN7IBXyOla5aWD04NEKAYg7VAfVmU18LJpp3DDvyWoWZxqo04qJvxshtqfxYXMpTmnZSnxCYrQjk7e/go/HY8WPiwfkqJ835Oua8vN4f03l69BuTq0xp1SUfPVpZv2pD6Ubnq61W0MwXtpVWX+THMGlbYWUQGlgv0v7AQQ7kMR8CzXFMBzzFRGmd1yjNHZgxamzk0UeRjDroNValvUznJDohMBsQ8Ps7c+Kxw2OqSC+mkzeffPrxPWxV08GcvHi8LE+PfPrSHGBDx2ViKqMDu51qzBf+lWY8Hod38WMPL2nSSmNybEyjs7ln3ujRCCxoykCjUWdq1Lp/1U9ePIwtpksZI1Qd8lKfEEgIxBGInXDjmuW4ai92POvxqXK17o9pldVKMx76Uts+Fo6pG/Ol82PyXuDFMNG4mX/uFWsRCCpTQGM0nDIYDaAXac3bx6+yGA4eAz/29vLG6idPx/P9HMZHvemdQf6ngXNiup5HO6lPCCQEphDwx7eOPU3MeMxhnEdTl73qkYc+j686MZrnAm9D7SntbahMaa/Xy2NixPzQo5EPuiWFFYa16Y6k/F6jCWQsbpUR6Jgeea3AhH51A8OfxsYx40BPfc5XmadbEbf3kcYJgV5HwB8neozl0cyZc2N61GHvj23y6+3VJ2zoOEZ7PxqP0l6vl8fAgefKPEyihdUDQiMEQ42R1+s9c2RuPh9iQj0v57w8udevNqYd2lV9lVWjMQ82qKd2qsm8bhonBBIC9SHA45jHoR97q3rMKk09nU8aMtjXMfXz+JTn9bRVJm7VrUbn+esFPnIjHohXc2X804XVAx8b04gapSEv885Vr9M04ycgefHEMNA5aoe0t6U4KO31yozpQ2OIzaMeZEU+i2Rqt6yezkl0QmCuI8DjVI9HYJLHL5JxTgxT2C+S1zqHtmJxK0/1SMNXTKfWGGL6neQhP82LsXg+x9OFlYrsaUQBy5NRl3L0dKC8XqeZZxEmPkfFQWmv18yxj5Nj+NDYlV/kv11xF8XQizI7FsOE/TM2PhHGJyrh8sRkGL88ESYq1l8ZX7Z+iq6ESmVKv2Ly7M/mVuwP+ENm7Bnbb970SpN9dtBPIYQ+I+2feTbo758X5pti/7x5YV7W94X5/VPjjG/yhTZeML8/LFhg9HyMbY79pdY+BPS4rNUrj+NGbNTqE/rt9ldPjK2eAwyIv2Iyo7BSIU8ZE6kzwwiPajB7tMXyQirgcwcq0tG0PX4qy6PVj+rE+IzD+/Fx+jHskgeadkCjeXtT3PSvIoBCh8KIIjlh1W4i643Oit+UrAI+iqT1Y5crYXBkPIyOV+xvIoyMXc54oMmboifMphVfsz1lH7ZhZ6q4op+YgE2+R4jCORUZtiMPQRRT0PhDcVyAPxRNK57zrWhinBVP8OwP9JKF/VN/ixdk/dKF88MiK7IoxLDHgtx/pUCzMPdnBRpFekpPcUp0eQRix6TyYMkfq7Tuj1nOoz7H1G9mr7bz/IFPPeogBvJAex2VQd5LjbH3DQ0NZUcqGUiCiSoQvZRcXqzMKyZnrsBBaepyLmXkt6KnL9rWsdKQM55uiJvxztbedo0wYgVxYGgsnBscC+cvjYYLRl8cGg+XrHiigF4atvHw5TA0PB6GRy9nxRTbBnOzv0DaegNqin+VNk7Gxz+QZw3zr5IZhcKZ16ZFpgR6SvdKwcUkY0IC/pR8imZRRiFFUV6yyArt4vlhWfa3IKxcujCsXoa/RWFV1i/M+hVLFmYF2qal1iIEYudnuIqdD7wu9DxPx5BXa9DnuaaarsrVj8aqtOqTpi+dT1k39IxL82DMiG/6ijWmoJOZDHhqgPzZ1BflF8s/xmsFHrFtRD/VYojJYzzam4v9uF1dDtsV5YAVRRTLi1YkL41YkbQ/FM0h+xsem7rqRIEdNTq72rR5mDtmt3mz3mTZ7V3j8Qqz1/BkcV1gV7QosriyXbSgf/pvsV3lXh3jqnd+WGpXvMuWzA8rrdCusCK8aumCrF9+5Uq41zBoR7xljsGYDnhosXMVZa2MPxaT96c6sZj0fObn9tqY+XF7NFxYFbxeA4Px+g1McCjX3gMIWT0YqE+l1ZenVc/HWC2GZsXtY+q1MQodCuDIlaKIW7UojvgddNAKKIrpuUv4Gw3n7aoUV6cXs0KLK9OxrHDi98/UriKAK99FVliXWQHNrmSXLwxrli8Ka+1vzfLFV65qF4SFVwrzYrvNvNj0lyzCrej+7FbyVWtzi/LHbdnj1M9T1GhDedVonk/KzvX+OY924C9Ph7H48xltUN5rveY7XVg1CZ+wykATAAXR63TbWHNCbDrOozUH6qCvt9FG3ny1rRgrjbk6Vpp2wfO2dEy9udjjyvPMxZFw6PRgOH5uOJw4PxROnrfe6AErqCNj44bvFDLT/ZUbsRzPRdzK5MxDA7eZr/yXTcMV72IrohtWLwub1iwJW9ctDTvWLw/XbFweNq5aEpYtml/G/JzSKTqGYzKCo+cYPeZ1Dmg26lNXZdSppVc/mKdjT+fZZUyU+zH53dITM2KIuKZ/Y8UgpkC+TgKvlxo3DHuNnTzmpxtf9ZpN0y/sKk0/jIdjbhuOY3LPo+5c7HFViivNUxdGsr/TA+iHwwW7EsWV59QtXbtyzW7pXs76yz1867abtzEK7jx7Khm3jnELGQ9LLbViir/ldtt4lV3Zrl+1OKxfib8lYdPqxQG/2+IBqtTiCPjzFM8Pei7h+cDrwiL149Yb48b80SL9amyQadzU7cV+Oj8+vIQkppn8X88rmeXxezFxHzM3qG5o0l63mWP6zbMZi6FoO0AWm5Nnf7bw8f/e+B/wS7hda7dxB7LfRvEb6dTDRSioZy6OhjNZPxIGTQ+3fVPrDgTwGy5uIa+1oroOfyusuFqRXbsCt5EX2e+19tCUPSiF32lRiFOLI6DnBqWhHTs3UCdurTEubcfOR16mY9KNee/8bOQxfcWaDa4UVE2Q4JDHcefDL44AcTLmIk3qMS+PQ4xfZK+aTO15XcrA19jJ19ioQ5m3RTn6Ip3YvG7mTRXSqfc88XspXk8Zs1dZDp26FPaduBj2HrsQDlh/2m7v4rZvar2JwEorqlvWLg3Xb1kZbti6KuzauCK7jTxf3sflU8y9mWH1qHkOqHb8qh5pWNd5yveeoReT5/H9fMz1vvyY8dCP2lba63lfvTKeLqy9EnAtceoG0w0NG9zAoFXmdxLIW9FisTGmmMzH4OP0Y68/W8a42sQrLviN9NDpS+GI9cfODGZXrEP2egseSsIfF2KYLXnPtTyyJ5HtVjCeNsbfMrtyXWWv+WzfsCxcs2F52Gm/z6LwQjYXmj++9VyRl7/OUZr6tMExej33xMaqW4b2fumT51w/hk3OoYx+fGzkd2M/Jwur32DYMLqhSbdrg9Efdyj4ZYyUVYtF51bT7SU5rkrxtC4eOMJvpNmfXY2eslu7p+33U9ziPWe3erEYA24JpzY7EcDrP4sWzA/r7DbxRvytXhI2r1ma9RuMBg+3lLEARmrvPn/Ezg88x7QSL/rgeazecStjbIXt6cLKhOEEIGBMMFrhuBU2GTdt+zH56DU3zVVp6PkxeGVbzL/nMQ7vB2O0PP2yMfSiHt4Bxe1dPFiEd0fx9O7eYwPhrSPnw8GTdpvXCmwqor24ZZsXM361woNPO+zK9abtq8LN21eHzauX2ruzC7NXeRba1S6ueut/hr95sbbLkp5DlIZ/HfPcAr6efzBuRaM/PZcpDZ/VxrG4/JyYTqd404W1KADdKEV6nZIBYDRuQNAedB2T5jzoN9JoL2ZDZUpDV/0rxkrHbM523vFzQ2Hf8YGw+/D58I4VVPxeOjRq75peWYABS/+llhDAVSyuUKcWqpgXNq5ZFnZtXhFu3bEm3Gi/y26wq1gstziXmz8nKhYxmZ57vLxorHbL0rTH86COScOWP2+Wtd8JPcYdLawQMtlOBNcsn8yBycbsUicmazZPdxCl4ScvjtmyLYqwRJ3Erd4j9lsprkiPWn/CiitelcFtXiwNiDV6U0sIFCGAlZ9W2+IUG+zd2C1rl4Ud9nvsTnvoafv6ZdlyjLOxyNZyfvC6eedFnovy5EXbwMu8T8ppu8hXkYx2urWfXiCCSSDQPDC6JQnEyg1TFFNeTpqf0rQV41GW12tMSqu+8pWGDsaxprEoHdPtJR5+O0XBxPKBWOEIBRW3el8/eD6cs99NsVh9agmBehHAyk6b7DfYW65ZHW6x28Tb1i0La+wVHiy3iOUZcbU7G5o/J/ix5ggZGs89POeQT13KOW6kz4vH83WsNHxjjFYtrmryzEib/okW1jb5boobv3MouJTBETcOaOVjXE9TP36+ytRXLAby8uZ427NljPdO950YCC/sPR1e2nM6exAJxRRfiwEm6fp0tmzpzuSBstlnxRNXqUvs/dddm1eGu69fH+69Yb0tQLEk+x22M5F13iuOLz0v+Yh4TgJf9ZSvMs/39nRMXbULOfjkKU2Z2gANXdWjXa/XqXH0VnCngqnVL8HlPB0rDTnG2nRDeJnqxeiYbdrzMp3v/cTmeB2d3+s0fhvFgg1v2G+nb9nfYXtVBg8inbXbvVivN63B2+tbuDvjx9UpFpjAIhR4evg6+/0VDzvdvG11tgrUbLl6LUIf55rYuYXnIJ2reioHn2OldW49NGPLs62+lM7zVUYnb26z+LOysAJYNG4o0OSBRovJuIGnNMr/qxtSabXg/UOm/pTWeb1O2/EcRu2hIxRPPJT0jj2U9NrBc2Hf0Qvhgt0CTsW017dwb8WPK9it9pvrTVZY79i51n5/tfWK7QoWn8ObzS3v/AK+b3quUrme25T282sda2yehi3GQ5nGFPPVzNhi9svweqqwKsBMTkEkTT3ocCNQBp7KMS7TdL7X97Ii+xqPtzPbxnjgCB8Ex0NIz759Mvxy93ErqAPZ1elsyzXl01sI9NvTxHjv9f23bgoP3LIpvGfX2ukPtrubW72VWIloWaCqqVJPz1mk/Vye8/LkXr/smDFAn7bVF2mVl7XdSr3pwqoJtNJhLbYBGsGMzYvJPU+Bp416c/W2aQ+9yugzFrvKSKsd0PXG5+10cox3UY+cGQov7TsdXtl3JrtaTU/4dnKLJN+KAIpnvy2PiM/c4SGnazatCO+7aUO43n6LxRrFs73pOcbTzN2f03g+Uz51Y301PfXr58d80R56NOr4udTz/HaOu7qwFgGRB64HlXq0xY3h+ZQX9d626qpMadUBTb/Vdirq+fndPsbTvvgddb+t17v70Lmw+8C5sN+e+B21B5Mid526PZ0U3xxAAN+JXWkLS9x6zRr7s99erzxFPJuXS9Tzj6exyXn+0fMl6U7sEoyRMRSdYzsRn/c5XVi9oFvHBFQ3PGnEzA0Qi183SkxexKNf6qhP8NS20tT3vY/Tj71+t4/xWymuUvG76Sv7z4ZfvH48vHHwrK2clF6b6fZtl+KbQgAXQjtsHeL7bt4YHrxls303dln2cNNse/+1lnON18WYLe8cSLnv/TnUy2nb24WeypRWG+Qrr1N01xZWglsNLL+xOK8ZgMZsazz0BR5p+i2rR/1e7wdsYfyD9oWZn718NHviF2v6YjH89HBSr2/ZuRU/3nFdYVev125ZZb+9bgz32+1hfBt2thVXv1V5vtJzXuycRh71vR2MqQO6SA/yMo021C7mkR+zAd0ieWxOM3ldW1jLJkmwCSLHmB/jlbUb06Nt2o3pxHg6j3RMr1d5R88OhTfstu/zb58Kbx+5YE8Aj9jXZdKyg726Ped63Pgc3XIUV1se8bada8J7rl0XttvVK24Xz5XGc5yer8Dz41biwRjgo51+m5FTTxRWgJq3UQk4NwLHAIc80MrHONboR2XKUxveto4xX3XV3myix6x44tbvc3tOhWffPBlesCd/5U7RbEo15TIHEejv77MPri8OD966OdxjC0vg27C4esUt49nScN7KO1d5WWxMHGjDnwcpRw+dIrnqqh5tQ+75HJfVob76agXd8cLqwSZAMQBUpjSBoS3KyG9GH7PNGMv6g35Z3WbE3EobKKDH7L3Un9it3+etqB4+ddEWyU9Xqa3EPNluPwJYPGLR/P5wz00bwwdv3xzeb7+/8rYwzwntj6q1HmPnNZ67imSMijoct6pXP7otlI755jlY58f0GuF1vLDmBe/BiY3z5hIwAgg98HSsc71typSvtMpBe9t+TP3Z0mPR/NftwaTn7Nbvi3a1eir7+kx6SGm2bN+Ux7sRWG8L+99gKzY9YO+93mG3hzfaeC43nmOBgT83+nGtOPnzpx/DXh4PMvhHY4yNxpMZq/GfVFgNsDzgla80MQYPzW9kP6b+bOhxVXr49KXw+CtHw6/sSvWEvauavjwzG7ZsyqEaAnio6YZtq8KHbt8Sbrfiusm+/xq7LRw7V1Sz3WtyFi3E7fPV8yLl6HUO+Z5HPdrgmPro0WLnWNriXB2Tnprd+n+7qrDGNhABURmBI8CEiToqp8z31AU/j9Y51FHb1WLjfNUjr5d65o6Yz9g7ql9/al946e3T2efdeimPFGtCoBkI3LxjdfjQnVvDZ+7bGexOcVZc9Rhpho9O2cC5Ku8ch5hi5zKdozT1aU9ltFNLnjq/Ftu6bZSGDT+uJZ4i3bYX1rxEyGevQSuPNPpmNtrTDU5f8ENa9Ug3M45utoVFH/Cg0uO/PhJO2u1fvE6TWkJgriGwfMmC7IPq99rvrg/dtnlO3xb2xQ77QrVzKPcXnlMxVpryWnv65XlZx6TVZjN8qj2lu6awalBKK0gxWnWbTceA1xjgj+Nm++4me7jVi9WUnrFbv0+8eizsP5bW++2m7ZNiaT8CKK7bbDGJT993TbaY/wb7as5cbChY/hzIIka+jkkDK8g5VrpeHNUWbOiYtNpuhk+1p3TbC+sM5wKs8klzw2AMYDguQ9NGtT4Gbp4f2KIMNDeW5+kYer3csM7KmH3SDb+nPm5PAD/31sleTifFnhBoGgLzbSH/e+0p4Q/fscUWktiYfUC9aca70JCedzU8ngfBw7mPY54HOdY5qqd8b8PLfAy0rfby6Gq2va9Gxh0trD5RbggmRNCop3yvS1lRr4CrntrK80l9ynUOZbOtR45j9sk3/K76/z32VnjVlio8f2l0tqWZ8kkI1IWAHR4BV6733bgxfOzu7eEme2p48cL+zJY/1/hxXQ57aBLPkwhZz5Wer+Na08PcmG3yaJtj2OccyugTOp5HWT19VxXWagkQIIJTTb8Wudr28ygDvxW+vb9uGuNdVbxS871nDtrXagbTEoXdtHFSLF2BANYUfs9168Mn7tketl1ZX7grAutAEHnFiefQPHk9ofpzMW17X9XG9fiuNqfthRVJEgAE58caMAEBT0FUWvVrocvYZpzU9X69vBb/3azLbYJXa/DZt2//cn/2HdXBkfGuCRsxYl3XBfaHW3J4aR9L0eGFfvwmjG1Tsfdt8WGAcbvqRj9h34ZNLSHQbASwL65ZsSh84QPXhXtthabt9iH15j5a2eyIm2tPz4uxc6LyYjSi4TmnkchiccRsl/FVRqco1rYVVgSKRmBB++CpAxmaAjXFKf9vzLb6VkuqqzEU+S+Sqe1upjVvHydkh+0K9Ql7X/Wbv9gXLluR7Zb3VREbiurmdUvDFrtCWGvfz8Q6rvhw9SL7BBh+Ex4dr4ShsXF7ennEvgU7GE6eGw4XbfnFbsnB453GvY0A/gdv6/rl4QsPXhs++p6twVZDnL5Nqecdf8z5cS+hwLyQQ5mm50zOxTyPQbVxGV9eh/5aYdv7wrhlhdUnEHOeBSAbxQOvNkA32tRezJb60Fig68ex+b3IK8IEn35DYf3V7hMdTw1Xo+vsycvt9iTmTvvbuHpJWG0FFb9x4buZ+KbmQly52hkN34TFH65S8dm6S3aljTWNT9sXdw6cvBQO2fKLx2xhCx5sHU8uBdDzCOA4WmS/r37Y3m99+L1bs99bF9hSiGhzbT/Tc6Xm7s+vrdro6j+Gfzvi6LrCCiB4sicAHiiCRTnGeY22vJxzueE5hl4eT3W8vV4dKz6k7S5qhsFfPv52ePK14+Ho6cGOpcePUKOQ7rKvjdxoD4jgb/PapXbVOnXiyguO+UCOInvu0lh468j58Oah8+Hto+fDcfsqz0X73F36Ek8egolfKwLX2UL999+yKXz2fddk/9OH/yGca03P1zyXAgOeP8nz42bhpP5hU8dKU4ZezxUYN9paVlg1MAIIHhNDj+ZlGdPxyau1LwJL/apdxgVeno7q9xpdDRPkj2+o4vfVf/2tl8Ov3jgZLltR6lTbsGapfVlkQ/ZgyFYrprg6nVrt5uoJS3NSWmOe4ge7FVwJg3YVe9KedP6bJ/eFV/adCefsM3epJQSagQB+77/Rlj38p5+9LWyxfRf7Kxr2PzaeY7ivUkY+9dhTj+Ne7jVH5o18wOfY0z5f1fOy2Njb43zoajwYU+bnQFZLa3lhRaA+eAboZUyKcp3nZdTJ62O2ac/L1Ib3owCrXi/SPm8dKz0wNB72HR8If/X4nmyx/Sv/D9TWlFcts3VZt6/OXmW4edvqsMWKKl5l4JdFGIzGTZ72Xo4x/kdh1H6HPWRrHv/aCusvdx+3r/NcSitJKXCJrgsB1M91K+1Tc7Yi08Pv2ZYt3A9DPPeA1n1SachmW9Pzp9KaJ/nEqJmYVLOtvpTW+JQuowP9WVtYFYwsUSnweeCA7xs3jOfPhrHioPRxe9AHv69i6cKDJy+2PdUNdtv3Jium99+yMdx+zdqAL4vgKjXWNO4ycm5jbFf8D8NB+731WVv04knLF7e8h0fTV3piOCZeeQTwAN2GNUvC7374hvCALSCBq1YWDVjRfVZpytCrPsa92vT8qTTzYZ6Kg9LQwxiNutmg5D8xn2pLfSmdZ76MDua2pLB65zr2dFGSecnl8dW21/EyjOdC83lrzl5GTN6xNYH/5ul3wqt2NYcHftrVsElwK+2D9vUQPASCj0vHfqOKxc2DjjkwZuXrQUYa/cXhsfANuy383FunwiF7uIlzaCP1CYF6EPjdj9xgTwhvs3db8RWcq8VB91+l4UP16vHZK3P0+GPePO5imFDWzPx8DIwDPWX0V6v/lhRWBoPegxTjcWfSeT4xlRXRMX/UVxl9qh+lMcePaafXes3bx64yYoIHfP7yZ3vC3qMXwoU2rrS0wp7wvfO6dVlRvXPXurBiyUJsBR9yNvZxY1vFWp6e8nFrGFfpP3zhUPjxi4fD0PB4ei0nBmbi1YQAHmLCV3A+Yksecv/U/U5pb1hlSnu9Xhr786nHBHmikV+UWzVMvC/aUttqg3QtMdBmrG9pYS0bJPUYIJP3fMqb0ZexnbdxmuG/nTaQKzEt8ku93fbU7Jd/sDscs1uj7VoUYsmi+WHnphXhcw/sDLfuWBuwqDnjKYoZsiI9lYFG43ZVTOx5LXtQ60T4kRXWV945HUbTl3syrNI/9SOAd6xx9+X3H75x6oE7M6X7YP2We3MmjztGz+NPj1HKWtHTH2xzO4BWPsbNaC0prAoUaZ+IjjURJpknpz2dQ9rLvI1qtmmnl3rmyNx87GUwURugX9l/Jvzrb78aztuTs3jIpx1tx8YV4T5byPx3PnidLfaw4F3FkjEyFuRLntKU+97r+DH0j9qCGM/vPR2+8cQeezVnNC3f6EFM45oQwM8a2Ke/9Lk7wvLF88MCe8da91kY41gNY9/0DXrkK+31emnsj0HNz+dBmedzXA0Tzi/CW23k0fRXrW+osDJIBp3nTIOEDueBxlwdg1dLi9nWeGi7yI/KlK4ljm7SbQQT5P+SFZf/4+svhRF7kAcLLbS6Id6H79oWPvPArnCtLf6AVWzQYnmAH9tG4LEVbXPqUYdz0ONd1wP2+/Kf/fCN8M6xC2HQbgmnlhCoFwHcILnRHsL7vK3GdOfONWHtiqlPy+k+SBo+8vZ3yFQPY21+nsq6jWYe/vgDnzzqIHafG3UgUz2M62m0oXZhh/yYTR9TVGdoaOjqGSmmUQePQTK4vDFMe5063M2Y4n1RGAODutTp1T6Wm+bCPIk1ZXnzXrTC+r999fls4QSpV5zW1B7/V49FzD9x747wcftCyFJ7ghInJLRa46b+1Oypf5FzjJ+nc8oe1vqWrY2Mz+MdsVdwUksINILAJnuX9e4bN9iCETvDzo3LM1M8DrlfclzkB7qq58dFc3tRprm2Iv5q9hXfWrYTY23oipVGtGcQ4DF4z/Njzlc+eb6HDu1Spjy1oXqqo/NI93LPnPPypRw5Uoc8jpk/+M+/fSr8i68+Z+sDN/3/uehmuse7qQ/a71AftYc87r5+/Yz/Q2WMUGac5HFMQ+RzzB56ebKYzoCtxPTC3lPhh88dst9az1Al9QmBuhDA+tX4rfUPf/PWcNs1azIb3Hd1v/Q8jukUuuRxHsfU0V71ld8rtObW7HzL2Fb88vyrjse1ZYUVwccCYjCU+YAaGbfSdiNxtWsu81d/5NWCdzsLK9b6/T17uONeW10JV65ojFX3Ic0pRucdLLSFOWXs4fuzJ84PhUd++nb4+SvHYq4SLyFQGgEsaLLYHsz7X794V7jL/scRjcck6YwZ+Yf7tOpH1HqexeNS881LSnVI5+k2wlfbir/SRfabWli9U4zzGgNXHfB0rHO9bcqUr7TKQXvbfkz9Xup9vhjnNeINOfU8Bhy3q7D2223g9bZKzX/3+TvDLTtWh6V2AvKtlrj93HrG+PoNHtj68x+9GX5kr9/gSzmpJQTqRQCHJH7u+KPfujO8zx5kwitl2njMeR7G/vhWnTy6njl5tjrF5zGv5ynG0mh+Hm8/hh/PYzyxGPLiSYWVaPVg7zcqd8RYKrpz6Dydwx2qXYV1qT0piaeB/8gK6y7rY/9fUEvcsbzr5f2nx94M33/2YLhkt4Zbf0O83ijTvF5AAFetv/8bN4UHb90ctl+5K8O4eczpmDSPTR4Dfkw97fXYVn4v0cwXMft8PAZ+zDz9PPLz8KYd6OXp0IbaVppy9DUXVm+IATEYguL16FT5nEuZ771uWdtqNzZH5d5nt40VA8Sm4zxac6AOerZqmLSrsGKpwlvtacl/8NEbp28DI0bGijhJg+/jLpJ5OzoGnddgE36+Zq/c/OD5Q+G03Ra2YWoJgboRmGeF9VP3XRM+ZAtF3LFzbWZH92Ua1v1dach17GnOr9bzeMH8bmiMw8fFMWL0uZaR0W7ZHKlfzTb18uxiPnVqLqwwqgboRHmk0Te70Tbt6pg0/SJJ0tTvxZ55aezkMT+f6/QGdtvA66lN0u0qrHio4y5btvDvfeC6sNmenixqZeIuml+rDEs64lbwYVsruUvOQ7WmkPS7BAEsy3mfrcKED6A/ZIvzx1ps/+YxDH0e7572Y9WDrFcbc+f5jXmQj7HmqjR12RfJqIM+tg0or9VvXYWVzrRn8OjRioLUeY3S9Kt2NAbwOVadXqaZj2KsNHLjjkBd5uv1yNe+XYX1Grv9+8Ctm8Kn7f/mN9jVa1ErE3fR/Fpl33nmgC1veCjsOzowjWWtNpJ+QgAI4JR4q12pfuyu7eGT9kpZrMX2bx7DUzbkasgMlpXFfPUKrwgTnteIA8ak680v5o+21Lb6Upq66KsW1ryJaiQzdCUx6KNpkHl0pljin1gMeX5oTuXgcQxa48G4m1os11h81GNemlMeTTuQo3EuaJ3TrsJ6/daV4aE7toaH37strLOX5xlDLD7GiJ5x5+lBp0zzdnTO9561wvrS4bDn8IUsLpUlOiFQCwI4JV63dVX4DSuqn7P3WbmfexueHxtjDvZb3fdjtNfzvrpt7HNlfJobeF6PcuqjV3yUX02WZ1vtKV1ku2phjQUD42yamOfrmPrV+qLAMdfLYz4YU0xWzX83yItyZG7EgvH6nYL8evpOFdZ6Yi07x2Oq87wM47956p1sUf7DJ3HFqtqJTgjUhoAvrLXNntL2x3fsPOB5OicmqyeObpjjc2FMnq9j6pTtMRfnATa15c8X0CFvum/2yksMRgNjUJQx2Fp7zqc9nU8ZeOpbdWYjzbw1Z+ITk5XB4IU9p8I/f6T1C0Rg0f33229On7pnR9VbwWXibqbO157YG37w3EH7bF56eKmZuM5FW80orMAtdoxXw1PPAdV0u1FeJudW5Bg7h9aCT6kr1iKDTAo6GkwMENUtskmZ6nt7lKlPxkAZx+iVh3GvNs2jXkyq5Y7C+i+ssI63eOWlreuX2XJvG8NvP7grbFo99fCS5lQtzlbJcYWavW5jhRWv26SWEGgEgXoLa+xYIA89Gs4HpPPG4KsOxtq8DZV1mma+iENz4HmQPM1B6Ubi97a9T9jO81W1sPqJOvY0HGkwGNfS1J6fpzLQbPCnY/LRF8lUr1O05oQYmAcxJI9j6lOvVXG364p1w+ol4fZr14Xfsw9Cb107tepSq3LyWHKMnviCRsNi/H/2/d3h+1ZYJ4xOLSHQCAIsrFgL+3P373rX/taIbczl/svzgo5JQ8/LwevWxrgZs8YZk4FHXcoxB7yisdotS9Oe96e+qhZWdcaJapA8r6djpRUA5ZOO2aOMvfdPfjXb1Ou1XjFRGnkQi7yc6sGkXb+xYjnDXZtXhi999nZboHxFXgpt5Y+OV8Kxs4Pha4/vCU++dmzGQdnWQJKzWYOAFlYsxl+26bGrtM4nH7222HmCOl6m87qdzstBz4PUqTUXzKMdpdUO+dV81FRY1QFpDQQ8jkHTuefpGHp5jXq0Qz3wyaMOZODpmPq92DMP5uTz9eO8/Dk/DwPFkjrtKqz4PNwGuwX833/hznDTtlVh4fx+htCUPpZbnmHqYhH+5+wjBD98/mB4bf/ZPPXETwiURqBVhdWfA/LGCJT7t6dLJ9Elino+8/kiRPLqCdfbBmbaaJt8jlWHdKnCqhuFE9nTCcfsNUjyYn29tmkrzz/l3dxr7p5m3LrxinJtFt6w067CihxXLl0Y/utP3xbee9267JUb5u17xadIlqdH7Iin6qns5Pnh8I2n9oUXrbgesw+fp5YQaBQBLayxW8G6/5X1xf0Y+pwPWs8DSlOGXhuPA9pQu6rXC7TGznwQt+Lg6bJ51Wq7amEl8AxAA2bQXqbBU1amV19K+7mxGDzPz+mFMXPI24jIISarF2/FRPFuZ2HFwvufsAUisCLNLTumPqulcVWjNe6Yrpcrxkpj7tjlSnjnxED400dfDwftg+fD9qH31BICjSKghdXfCvb7Z54vPcaVVn3y0aN52zpWWm0oXUZH9VtBMydvW3OEzOtRDpnmoTRkeU3tKa365NOX2q5aWNUQaEzWRqMxmeqVoWcEZn7UNud7/+TPhp65ad7kMT/KPJ/yenvYo+12FlbcDr5h2+rwSfvQ+YdtLdUF/f22j9WbxbvnaV6QEjfkqjRkh+0KFbl/8+d7w/lLowFfukktIdAoAtifdYEItef3T5Up7fdX7rt5Op6PMefwOFedGF02ttjcZvE0b7XJHDQn0tCjHLTmoTRkeU39Kk192ld7M+jYe6yqQEPsvQzjWpqfr3O9rFbbaqubaObBjYHYNFfS1IOcupRxDvpmNbUNmxy3s7Bi98FntT59/87whQevzW4H42sgjCWWazWZzvE4Yq5vqJ8TlUr4hT2s9H37bfWtQ+fT5+I8SGlcNwK+sJbZf7nf1u3UTYQ97vtFtoticybbPtQcipxTj3kW5VQkq+YDcp0/g44VVj/BO5hh4MqJislAV2k/F2Od7+UqA41GgFRXZaRV3q00Y/U5ga886jEPyjyf8qLe21ZdlZFuZ2FFLNjMt+1cFz505xZbqHxbWHblu6yMR+MlrTKlKWevsjz68sRkOHLmkj2wdChbH3hkdCJdrRLA1DeMAPbv2BWr7o9FTqrp4dwAHTRP067ayKOpy171yOvWnudHxKdxk0aPpnoZo45/aKPIds23gn0cDNjzWz2mX92RWu2zGfY17iJ71KNOO/Ns13uszA39mhWLwk3b14Tfev+usGvTSnuoaeYHoVW3LE0M9UDAXI5B46PmpwdGwuMvHwnPvnUy7DlyAezUEgJNQ4CFFe+x+t9Ym+ZEDOn+DTaPA9BeBt5saMyLueqYdLPyhD3vx9uOFlZM0mBohJMp83zKa+m9DbWtdC02u1GXmDJf5EYa8fqx5lAkU70ytPqEPjHmXMiff/tkW1Zeok/2KK4fsStWfBD6elu0fJH9/soWi5u8Mvh4HYyxEMSJc8Ph1QNnwrftM3FH7TfWCbt6TS0h0EwEtLDiqWC02HEX42fKNf5D2zw+/HQ9FkjrHNJ+Xi+NmRdj1pwUF+VTt1qfZ1vtThdWMNVJbAyH3qgGoTKlVacarcFB18dEnterZrddcsalccd85+HbjPy87Zh/z9O4O3HFinjw2+rSxQumHmS6c2u4zhaP0KYxkqZc8aYstg9SDzpYCOKp3cfDo88eDGftqnXMrl5TSwg0GwEWVn7dhvaxD3J/JE/7anLVJU17PAbIR58nI191SdcTA+e2o2fsGqfPHTrkUT8Wm9rwcs6jHcrVNnjTekW/saoiDanhaSPYc2pssSRiPJhVnzW66Rp15uAx82MEHOMxEchoi7xYr1hSn3Zj+srrVGFFDNiV8J3W23etDffdtCncsGVVWLN8kUmuXklqbho381Sex8vgC+cHR8PeYxfCS3tPh9cPnA37jg1kDy9BllpCoNkIsLD6W8HcX8sel/XGRftFx43qwA/H9frs1DzGTWyZix+3Kr5p/76wEvy8QGJ85ZUJWPUZCOaBr2PyytjsZp1YvuQxX46RR4zH/CBTXfJ9D52YHfKgrzqcD16nbgUzBvTrVi4Od163Ptxni/TjynX18oUB77ziCWI0zQPjPEym9PqscE6Gi8Nj9hrNWDhw8mKW4yvvnAlnBobNFiyklhBoDQJaWHWBCN1nuT+Tx3EzIqKtPNvgex34JQ+011EZ5O1u8M981DfjUpnXpQ7mUU95aq9WmnambwWrAQ+iyppNt9NXs2NXe0UbSGVKcz4xoIz8VvT0Bdsxf9gxXrB3Of/5V1v/2bii/HAymmf/bNuwItxpC/U/dNumcJ1dvS6zW8VFDfEzL9IonAND4+HV/afDL988EXYfPBdOnRvKnvyFLLWEQCsRYGHlreC8Y5D7K2PBuB1N/fjYVNaOWBrxwVg1B9jTMWg26PsxZdX6mC+1NV1YvXNOpANOigVDGXV9X4ttzKU978vb7cax5spcFEvmFoudeqpThIH3RZt5fJWD9v44xq3gdnw2jvEU9UvsKnXVsoVh46olYeuG5WHrumVhy5qlYaN9GWfN8sVhhS3kP7+f772GULEr0+Gxy2HArk7PXhwJJ2yJwmNnhuz31CF7UGnQvq86Ei7aesB4Gji1hEA7EGBh5ddt1CePOfD8cevHOq8M7c8dfgwbnqfxQK4xKA1ZLzafn+bQaH5qu3RhRQB0jJ7Nbxjytec88JTO0/F66k/ndCPt84uN8+KOYRnjcb63HePHdKrxuqmwak6r7HbwBiuwm6ywbrBbxSisy5dM3R7Gg0/4H3y8k4rCitu+52z1JKz9e9yuTs/Yw0mjxm/TRQDDTn1CwM55U++x1lpYPXQ4btH0BO51dBw7d3hebKw2lI6dN1TeC3QRdj6/evAmBtOFlQz06sAbj8l0LmnVIw+98sva5sYnKJyndjtJa06xHDVu0oyXuTBH8vN674t61fj0A33GoHMoh6yTDy8xn1p6nG+wNCKeb8J6v6klBLoJARbWWm4F8xhFHjxO9RhVutZc/blGx55W24xDY6JcZeS1s9e44Tc2Bp+4eR3oq1znU5Yp2D8qA49ytT1dWBWYGK2T6KBsH7OHueTHbPvgy/rqlB5zUf/kMb925US/iIV0UQx+x+iGh5cUxzI0fo/FocFcysxJOgmBdiDAwhq7YqX/2LlB92Uex9BXmvPZF8mogz7mj3L61XMGZGVt00639j4/xkk+x/X0tBEtrGpQwSTQKi9Dqw3VV763jQA9T+d2O83YNQ+lWxm/4ko/Gg94HIOe3hlwBrCWLWn4yLNh/PLU/8VlzPRPQiAhUBcC9RRWHpN0GDumKaunp309D9COl+mYNHV7tUcemnsz88ps43UbbjQ6UieexzEA9cF5kKmr9lQnJlceaZ3TDTTiystJ46Me81C88midX0TTtup4PxojZdAn3/M4ToVVUU10QqAxBHxh1WNfLfO4VB5pHJsxeR4f84pkPgba1jl5dDXbjLlbep8r42LOHGuvuSvf03m2o1esMIpGxxx7o3ljH5SOaasW23nB5/lvB19zgj/mBZq5xfiqB3mZ5n3pHNrzPjn2co7VhqdTYfWIpHFCoH4EfGFVS9XObTyOMUePXc/XsdovQ/sYaIv+OKYt8HWOyimjbrf1Pm7myDg1F/LqyWm6sNIIejrTIFTeCF3Wdit8NxJ3LXM1R8zTMela7Hld2OAOQHscl9H1On6cCqtHJI0TAvUjUFRY1aqe8/R41mNcaczVc4HaqpWO+fa+vM1qcq/f6bHmiFh0nId3vTH3DQ8PZz+k0bAHK2/sHUKPNijzvDxbnEc55oOnY9rshV7j1jyUrjfHMrY9nrX6TYW1F/ayFGOvINCswqrnDD3GSUOO84OOa8GI5wnO97aqjWO+/JyYTit5zAk+PA0e4kPTnDOG8DiupZ9xxUonMKCONKAi4wqi0pjTqO0iv62U+TyYC/HxY+prvo3ER3sxGypTf0Xbq0hGH6mwEonUJwQaR6BaYeW5RI9heo3J9BimHPp6PoiNabOWnvYZm45JN8tXLXE1ouvjVlsxGXge27ycOX+6sBI4TKAhdVgrrYEoDTvqK89uM2LIs91MPnNjD9tKc9yIT7WntNpUPmi2enBMhZXopT4h0DgC1Qprnofpk7QZIE1dHuOeT3kzen/uoC+eaxgDfHlZM/w3y4bPQ+2qjDmonDRzLdKhLvpUWBWNGuk8sD2fY5jXDVmju0ydtvwGBp886tTrLxXWerZMmpMQiCPQSGHlscxjmx5ix7vXoW69PezRP2zoWGnK0GtcGHdD87FqTJChMW7mSz51Kee4Wl9YWGmczmLGKGPwnKO61AHP66lM53QLjfiYk6cZI+UYF+XD3Dkvr1c/XifPftkYvD0d028qrIpKohMCjSFQb2Et8pp3vJPPY5nnC/KLbFJGXc5VPnnQIQ0551AXPeQxvup0A80YNR8fF3U8P288/fASFDhZAVFnkOs4z6jy1Rb4OlZb9dhWP+2kNQfmpP6Jo8rqzU99Ka3+1A/56k9pyP2Yc9inwkokUp8QaByBsoU177gEH43nS69HOXU4LjpfZAav/KP2lI7p5NlWX0qrjW6ji3LNi7VsbjMKa56xZvIRWC83xs8dDLmQx7wo83zKa+lhQ+2RVhsxP9AjX2mdl0enwpqHTOInBGpHYDYVVp89z0d6rvE63TqOnReZT6MxR28F12uU4HI+gwRfacp7qWcOmqPmpHStedF2bJ6Xqf+YfjN4qbA2A8VkIyEwhYAvrP6YbgQnnHd4TiCt5yLS8NFMvxoz/YKn/lSn22nGTSxj8VJHZXmYTl+xKjg6sRqdZxjzGKTaVho6fgxep1teTp7P/DTeevPxttWmyuiTftCzeRn5ZXv6SYW1LGJJLyFQHQFfWDmDxxvHRT2Pd+j4Y55jtad0kd1qet4v9H0Mal/tKa06naYVL43F56oy0rGcYpg0XFjpMNarQ6Why3FsXq/wfA66YVqRg/dHH832m3027i/TIvzEN/UJgUYQyCusjdjUYx40Gs8PHDdiP29uK23n+WwHn3lVwxBy6hbFlVtYMZlOaKDIqMpitNqK2aaPTvYat4+DMs1DdRrJibZpz/toxDZtau/9eRk+G/fPU2FVWBKdEKgbAV9Y846/PH41x/78gDGaP4+ARxnoehrnx2zDnsZCWueQrsd3K+cw1jwfjLvsNpourHkGi/gKLh3H9L2ejmP63cLzIMbGiLXaRonl4215HWIUs61YF+l5m0VjtZNuBRchlWQJgdoQ8IW1ttlXtXnc67mDxy21YjqQ6RyO/RyO83p/Lor5yosnZtPHFNPpFI+5wb+P049jMWYPL3kwYoq18GiPwXFci41O6DJOxo0YwOM4JqeOxgt96irf02Vt07/OL2Of+uqHPPR5/HQrWFFKdEKgMQSuFtYd4fMP7Kp6PmnEmz/36Lkj73iv118Z2+oTNJrOq9d3K+ZpXIxV/ahc+TG6aU8FE0ANiIEoLxZEt/AYJ+NGXMyLNGOlDueQjx6yGF91QFez7XU4v4xt6ubZyOPDdroVrOglOiHQGALtLqyIVs8R/lzFcWNZTc2mLfrjmLbA98MvAAAyHElEQVTBJy9Ph7qd7hkn4mCsGpPKlR+jZ9wK5sSYUZ1MOfSVho6OleZ88jjuxp4xEg/ECJ7m24q46Re26Vt5zfDJPGhLx6TTrWCik/qEQOMIXC2s28Pn7t81fS6hZR7jPObJL+qpy7nQ5fmpSEab1OG4VX27/LQifsbO8yJ8KB3zye0xo7DGFIt46oQGqY+gPI+ybus1D8RWFLeCzTyKcvW2OUf5SqsctLftx9TXPmZP5TGac9CnK9YYQomXEKgPgauFdepWMKzwPFKfxXKz1AePb870Y/LL9v485MewozyNhT4ajYF2mt1r3LTN+BEzmo5JUxd9KqwAwcBScAieAkUael4e41Hf247xYzrKU39Fvmi7nl79pd9Y60EwzUkIxBHoxsLqI+U5Rs+DXkfHsfOQ58XGaqNbaR834gQPzeOk581M4co/04U1ZkwVSXtD6khl5GNeWdv00YpeY4N9HefRGgd10NfbaMPPJ19t64ZU2s8tOy5rG77SreCyqCa9hEB1BK4W1nffCvbHJcc85mEdPB17j5T5uRxDHzocUx982laZ0tCppakfzNOxp2ux225dH2seJsQP8c2gh4eHry7dUyV6TmSv6uBp08CU3200c2H8Pm6M0ShvVvz0S9vqV+lG/akf2vK5MEfGkm4FE6nUJwQaR6BMYeUxz2MxdtzWE4na0/nkg6e+lFb9WuiyttWX0rX4apcuc0KcaDomrbFMX7Eqs1aaznQenMX4qtMNdGyDMm4FjLxWxkwf9Mtxq3zSPv3BD3ivHTgb/vg7r4SJSun/52pViMluAQL4f76K/XNhcCwMDo8XaCZRJxG4Wlh32MNLO2eEguNNj78ZwiYNqtlvdgz0588vzfbTJHhKmcnLKW9y1cJaDQyCBwdwruOY0zI6sXmt4sXyYw4aq9KMBTw06pPPvoxt2vB2yFfbsRjoq1pPO7RLfeWTPnz6UvjRi4dCZa4UVvxPqP4/hB8TLPS8MUN9P6aOykFTD3I26mCs8jx9nWf62Dxj4xNh94FzYf/xAUpT32UIaGHV91gRJo45f0zGwi+rl3eOKPKRZzuP7+PzPmNjn2uR7SKZ993MsY9bbRM/xoYejXzQlGV0mVvBMyZcMYjJaN7wFLdckaVuu3rNQ30SJPCKwNU5tdC077Hi2Ms5LuODurSFOeDljVXGueoH8y5PTIah0ctX2JNmCzYzy6o6O2jLC6ld+X+kLCfkmtW87J+Zab5L5ufrOELT2gz7V/QgI38Kb2rP7LNYbQ7+x+fi8Fj4xs/3hsdePDxTKY26BgFsy+u2rgofv/vqU8EMDscbj0OlVU6avR7D5NXT+3MEbXi+jqlTtvc5qa1m5VE2llr08uLWbQV7HIPmnKwvU1gxKa/FDEOXTvLmdQOfsWusnkacMb1q8WMObJVpqktfZeaV0VHb0NcxfWnOZWzOJR3FiPihr3fb6ryYbcpjMvqlbKJSCQNDo+EvHnsrPPrsQYhT60IEtLDiVjC3nz/udMz9AOmofr3plbHdDD+IT335MfOCL9L15tTOeYzVx+0x47jqreBqwdNQDECVVbPTbrnGpjuCpxEXdVVWFC/1ocMNQn3IlEddb9uPOZ+9t0O+9mqbfJ2nNOTUp27qZ2LCbcLtl4cf5cSU4zx96NF2jKYdL5sqrGPhL35ihfWZAxCn1oUIXC2s+U8F6z6CFDgGzeNSeeDX0vz+xbm0jTF1GvGjduhDefRBHnX8sUF+t/Rl42YeMworQVZgqcgEdexp6nRjr7H6+FQGutam8/1clSkNPfXlN5zKvM3YuBbbnF+rD87r1T4Po6L9XXPV+cSOczmGvt+WtKE6Xo861Xq1fXmiEi6NjIevPPZmKqzVgOug/GphvXorWPcb0giR+wi3c54slg7mqj50OKZdnReTgUddyjEnZlttlaHVNvRp39v24zK226lTJo8ZhbVacEwYPRodECDwKAPdbY3xIy6lGWdR7MyVur6P2SvSUV/VbHs7sXGRf5XRL7eZjknH7PciT/OuJX6dp7TaUD5otrxtmYd3kb7ahX2viyvWi/Y0cCqsRL87e19Y/b6gUassRqturbTuP0W2ud9Rpxl+YIN2QTOWen3ARica46ZvHWsupQsrQeFkjGNGqUfH3dozTs2HsebxOId6tfbEDPPUluJYq03qq23y2Kssz28zYqC/buk172oxqa6nMZf7BO1QBz0bdZRHGfpaMC6ji9eh8PBSKqyKcvfRscKat4/ofqL7E+lmZaf7l7fNfbteXzHbmi/9kcdxvf7aNY9xMm74zcu1VGH1hpiI8snrph7xEQwfV17sqp+nA1vVbNOO2iCP831MlOscr6N+lVY9zld7SqvubKAVB6U1tzKYEKPYPOWBpi7tel5M7m3ExrXMS4U1hmD38Xxh1QixvXUfooz7AcZerjLqN7NX++pb+RqX5xfForreNsfQUbrIXrtkjJtx0a+PlfKqhRWKNApjnKiGSVOmzihrdx+Lm3l4mcbGHMirNZd6bXs/fsx4inrGzjyhy3goA6+a7Wpy2OiVxvwZL3HQHD1e1EXvZRzTDnW9PZWrjPrsVVbGNuehR2HNngpODy8pLF1HXy2sVx9eQpC67WNj8tDnNb9/5+l5X9TjPscxer/vqox0PX6LYlB7StNfJ/t64m5aYdWN0UkQ8nzrxlJa9ZuRQ7228zaexlcPzXg0Nx5MyqvHdi/OYc6KN/FAPpSDzuND5pu3p3a8bq1jta1zU2FVNLqXvlpYp1Zeyts3YttZ98FGMozZhr2YfY0vJq8lDvWrNG3QPnzGaOp1so/FXRRPph97j7UoSZXBuG6EImftkPnY1KeXNTPumG3dSTSOPL7qlKV9DmpbaW9PZaC9Ha/fbWOPt8bnc8nL1eetY86BXW9PfdVDq5965uucdCtY0eheWgsrVl7Ka7pv+H2QY78/kk+bRccGddQPebGeevRRxnbMToxXZNv78eOYvW7iZbnFCiuCLEoGMjSC4+lM2KF/qsWtOwnj1lCZG2U6Vj1Pq1+lY3q12lYbtdj2uTbiV2PoNroaJopDjEY+sKEtpkc/MV3Poy3YyZNRp94+FdZ6kWvvvGqFVfc1jUz5pFUOmvtkWb7Xw1j3UfUTs819WfViNmM8naO2STdiO+avVTyPVyzu6K1gJqqBcTJ4BEh5qttNtMaocStdb7wx22pL5coHrRsnNvb6Zcb0p7abkWcZ363W0dxq8YV5HgOOYYd21SblMZnq5dGYX+/cPJsxPgrrpex1mzfC99ICETGIuoJXrbDGguQ+GCrDYfLy+RDGT5oalxmdmqH/K6hrvJGvvGkftm9Oz4Yih1cVrspBQT8zaP+g75tv/ywIk30LQt+8RbafLzR6ofHtbx76BZhVqjFHHiscczL4nkdZN/WMkXkgtlKFVSdgUswQ+N3WYnGT12gOtMOcaY9j9F5HZdBXuR+rbozGXJ2TR2OuymK2eoFHrJBLrBEPyFQ3xodOESZFMsyt1uqdr7FW8wF5VlixQMSP37TCur/MlKTTAQTyCmvRfkLZ5NjJUBl5O4RLL9vi0MONR58dPyiWWZWsbm+yYjooqvyzwtm3KPvr619qxXSJFdbF1uNvSQjgWZFF0Q3Zn/GzwouCPLMxR3Ix1qbHsfK7jWbcjBfxTRdWf1DHxpjgwQCvV5omjpgJCGjKGs1P7cAumvJIT0lq+5dz8+KmNa/HMeWzqWdujWBSdpurntK14hmLOWajml66FRxDrft4eYW1TKSTI/tC5eIzYfLUj+z/pDr9BSMUYzTtrxTcjG1XsvOXWN3dbH/bQli8I4RFu+wCd7MV2RXZeZDHKfdtTEPT44k6U5KZ/2JekXymdvNG9FkUN7xN6+lvrBo0DVCRIZI/w0j2fz/U6GzP+GJxex4ipX61qO2uWxi7PLXo+cWhMfv6y0QYGbschu2zXSNjEzYez/pRG1++jC/C2N8Vo9wNMSZdzV9UTpzd/9m9S9frcfwuxcToBALcB7h/5MVQTQ/7GPbJNw/aZ+NOdPqkm5dF4uPwy/u6TRE62TlkdH+YHEBh/a7dCe7ybYxEcau4H1euy6yY2l//CvtbbsV1lV24bghhyQ1GbzGejeW8hFz9uAibbpUhD7TpK1YGiuSKkowlrzza6VSvsTBJxMK8NC7VVT6wGb1sxXLkchi0gjmI3m65DQyNh/MXR8MF+6IIPqs2bAV1GMXViiwK67DxUFjH7WR3BV81m+iEQFMRwCGMfRzfZMU+l1p3ItBIYQ2jB+2K9dkwefLvrLBe6M4Eq0XV1x/C/GV2FbvRrmJvsr9rQli4yXhrrQ6vzgqwldXMip6Tef4mj+Nq7jopZ4zvKqwISosQk+pksPX6riUPFEJcY9ryq/Y90ko4c3EkHDx5MeyzK4H9Jy6FQ6cuhZNnhzJZvfGkeQmBhMDcQ6DewgqkJkcPhcmLz4fKib/p3cLqN/l8+x128cbQt/zeEJa91wruddnvsVPFte9dV65ag1i4vMl2jxlHXo2ZLqxegRMZMJMDnzRkfkz9dvXNivvE+eFwwArpm0fOh+NnhsK5S3ZValepuArllenYOK5Epy7125Vf8pMQSAj0NgKNFdYjVlhfsML6DSus9nTwbGi4gsUTxPNX2Z9dsdpvsmH5naFvya12u3hz4TlWz/fdBgVrA2IsXViRhCYFuhuaj4nJxWLTmPHgx4XBsXDqwnA4aX+HTw+GQ1ZYUVzPDIxmBbXIVsx+4iUEEgIJAY9AQ4V17JgV1hetsP6VvXIzSwqrAtQ3z4qr/Qa75PrQt/Tmqd9gF+2c+m22hld31GQnaF8rpgurBuOLFWScGJPp3E7SjE0LqI973G7zjtqVJ3433Xt8ILy6/0x4ed+ZcNqKK65OU0sIJAQSAs1EoJHCGsZPhMlLvw4Txx6xwnqumWF1n60F9qDT0htC36qP2a3infZK7Dp7lQfvyuIibubTwDzXd0MSWmMYz3Rh1UBj9FRynNadPeNmrEiYNCK+bFepB05cDC/sOxVe338unDw3lH3PEg8i4XfVCh79TS0hkBBICDQRgUYK6+T4qVC59EqYPPYVK6xnmxhVF5rKbhEvCpP9K8O85Xb1uuJu+x32Pqup9k4sZNZYxLow+hnxTRfWvEBZmHyRgn6Ml2ennXzGzBjxG+mZgRH7/fRCeOvw+bDn6PlwzB5EwhVqKqbt3DLJV0Jg7iHQWGE9EyYHXwuVo/9x9hfWK7sGLm/6Fq6331zt6eGlt9rvr3fbU8T2O2yfvcbTZS1WAzMe3mNFIVIF0Gy+SBWNOaddPePO84ffUQfsndOj9jDSW1ZUn9593J70vWQFdTxvSuInBBICCYGmIlBvYc3OwxPnrbC+HipH/r0V1jNNjavrjc2zd2Lt/dew5pOhb9md9pDTdnvoCcXVfpe1Vu38nym1+B+tm+pq+opVg2TxZIHlWCd2itY4EUPe+PLEZLhoT/X+4vVj4bk3T4Y9VlizxRuMz7w6lUPymxBICMwdBOotrEAI6wRPDu62wvrluVdY8W6rPdw0aYtN9K2028KrP5w9OYzfXX3zdcDL2z3OCqsPSsege6Ux7tN223fvsYHwwp5TYZ89oHTcbvsO2BPAqSUEEgIJgXYj0FhhHQiTQ1ZYD/+7OVhYr2wpPDlsDzKFJdeGvhV32buvd9itYrt6tdatF0l9IyMjFtu7b/2Sx8Lqx1dS7poOceIBpFNWVHfbEm8oqs+9dTJbZjD9jto1mykFkhCYcwg0VFhtfeDJwTeuFNbTcw47TXjSFvrvW2av5ax8wIrrXVZct9qSPt134YdaOX0rGAmwiILWQpopdvGVK+O+aJ/QeuzXh8OTrx4Lbx6ahe98YcOklhBICPQUAqmwNnlzLbGr1ZXvC33r//7UV3TcqzhN9laTuem6yUX4UZzIhCUWq5qstknZx4rfU9+2J32fsStUvJOKW7/4TmVqCYGEQEKg0wg0Vlgv2q1gu2I99Cd2K3huX7FOb8d++xTdoq32vuv77JWcB+2JYfuKTpe16StWFlIWV467LN4sHBZWPPWLL8zgid8X9pwOz9vtX7ybmhYk78atlmJKCMxNBBoprGHikhXWN8PEoT9OhVV3HyuufYtsIf/VH7XXce6x4jr1m6uqdJJ+V2FFMLz12+kiywKKmJSeitG+/WtP/R49Oxi++eQ72e+qF2x939QSAgmBhEA3IdBQYa0MZoW1cujfhsmxdMXqt2vfcvsM3Uq7al39KSsSWEhi6lUcr9fucU1PBbPgtjvImD98ru2V/WfD9549mK2mhKd+8fBSagmBhEBCoJsQSIW1hVsD335dsnPqN9cVH7Cnh+2rOQY4Lwpb6LnQ9PQVq2ohsG5teIAZ6/3i1u8v3zgRnnnzRBixFZRwWzi1hEBCICHQbQg0VliH7Ir1LfuN9f9JV6x5GxaL+OM317WfsJWabrfiareIO9ymC6tW+W4trCidWIbwqP2O+q2n9ocX954KF9P7qR3ehZL7hEBCoAiBhgvr8NuhchCF9VSRm7ktw1rCq+61B5o+aL+52kNNffZZuiuv4mhtaxdI2XuscKa3eZX2snYFBj8eEFypYuGHb9hvqnvtKeBzF0fTWr/t3CDJV0IgIVAzAo0VVvzGiivWf5OuWAuRt9u/dlu4b9X7Q9+6z9jDTFutgLx7haZCE00Q8hZ0tLDCvi+uTfBZtwlcqeJWL35T/ZXd/v3l7hP2Os1Yevq3bkTTxIRAQqBdCDRUWNNTwTVsJvsJc7EVVFudqW+NPcyEW8J9tt5wB9qMh5f0FnA3Fdaxy5Vw7Nxw+NELh62oHrdvp9rvDukn1Q7sLsllQiAhUCsCjRTWyYn0HmtNeGcL968LfRt+21Znek/Hfm+d8RsrE+iGosoij1jO2C3fv3vmQHjeFoA4dNJ2tFRUualSnxBICHQ5Ao0V1rSkYc2bd94CW6x/WwhrP2e/u37Uprf/YdxoYa05kRZOOHl+OLx64Fz4zq/22+ffBrOHl1roLplOCCQEEgJNRaChwnr5wpWv2/zp3F2Ev+atYe+yYgGJVfaR9FUP2ZPCduXat6BmK41M6NrCiqvSkfGJ8NK+0+GJV46FF21VJTwRnFpCICGQEOglBBorrPwe65+lwlrrRl+8xb6GYx9JX/tbIcxf09bfW2c8vMS4eRuW43b2fBIY6/8esTV/f/DcwfDD5w9miz+kW8Dt3BLJV0IgIdAMBBorrOfsivU1+x7rf0iFtcaNkX35Zsk1Yd7m/9IearrermLto+ltatOFNc9fJ35vxWfeBmwR/b99en/26bfDp2y9zFRV8zZR4icEEgJdjEBDhXX8bKhYYZ08isJ6touz7NLQ5q+wh5hussUj7PdWPMzUplZYWDtRVJH3qQsj4XX7pup3fnUgHDg5EEbHJtoER3KTEEgIJASai0BjhfV0qFx6NUwe+0+psNazWbBwxPxlIaz7rH3H1RaPWLilHis1z5kurHpFyNux7b4lDH/4Ms3L75wJ37U1gN88eDbgG6upJQQSAgmBXkWgocI6dtIK6yth8vhXrLCe61UIOh/3yrvsQaYPWnH9iP3WioX6W/uk8HRh7XzmUxHgfdUnXjka/vbJfdnDS7gtnFpCICGQEOhVBBoprGH8mH3G66UwcexrYXL8fK9C0PG4J2094b4V94S+zf8ohHm2tnCLnxKeLqx621fpdiGC8omfUR976Uj4+atHw6/3nm6X6+QnIZAQSAi0DIFGCuvk2OEwefGFUDn+zRAup8Ja90bCVeria+wJ4Y+FPqwlbF/BaWXrmsKK1ZUuDI6Hr/zkTftyzamAz8CllhBICCQEeh2Bhgrr6MFQGXg2TJ78thXWC70ORWfjx1dwFm8LfRv/C/vU3K0tvWqdLqydzTiEE7YQxLNvnwo/fv5Q2H/CVhtJd4A7vUmS/4RAQqAJCDRUWEfescL6qzB56ntWWAeaEM1cNmEL9dvDTH1b/7HdFr7fHmpa3zIwpgsrH15q9wNLyAwLQew+dC587fE9tmThJVtgPz2w1LItngwnBBICbUWgscK6J0wOPB0qp35ohfViW+Oenc7soaXV77NVmT5ki/V/oGUpdkVhPWDFFB8t//rP94TLlydDJV2utmyDJ8MJgYRAexGYLqz37Aifv39XTc4nh9+0wvpkqJz+iRXWSzXNTco5CCyyK1UrrH3r/jN7kGmJ3RK2V3Ka3KYLa5PtljaHO74/sJWVfvrro+ENe3c1tYRAQiAhMJsQYGH9BArrA9fWtNjN5NDroXLh52HyzM/t25mpsDZtv1h5n30B5++FsMgeaEJxbXLLCqt/CtiPm+xz2hyWLbxg31X9K7sF/ItXj6VbwNPIJCIhkBCYLQiwsH68nivWwZdD5fzPwuS5X1lhHZwtkHQ+j0X23VZ7t7Vv7edb8oTw9PdYNdN2FVYsW/iyfbz8Ufsk3Ku2KERqCYGEQEJgtiHAwoor1s/Veiv4kr1qc+7HYfLCi1ZYh2cbNJ3Lp9+uUq249m36h/aE8A1Nv2rt2K1g/I569MxQ+Otf7A2vWXE9ZU8Fp5YQSAgkBGYbAiis129bHT5+N24F76rpVnDloj0RfPYH9i7r61ZYR2YbNJ3Np98Wjdj0OyEsv9eWOtzW1FhmFNZ2Phk8ODoe3jh0Pnz5+7uzooqlDFNLCCQEEgKzDQFesdZzK7iCB5fOfNdWX9obQmV0tkHT2XzmLbSiekvoW/Nxe0LY1hFuYptRWJtot6qpPccGwtP2JPCjv9ofBkfSd1arApYUEgIJgZ5EgIW1nlvB+H21csYWhxg6ZIU1vYbY1B0AqzHNt0/JrftN+631M1duBzdnDeG2F1Y8BTwxUQmP28NKP3zhcNh75Hy28H5TAUvGEgIJgYRAlyBw9Vbw9uw3Vn7kpEx42e+rp74ZJkdO2pqv6QKkDGa16OCbrX1rHg59662wLtzetNWYpgtrux5YmrBF9c8NjoZvP/2OPbR0MIxbkU2vrdayKyTdhEBCoJcQ4BWrvxVcpsBWzn7fFof46xBGbZ3gyfT5zJZs9+U3h77VtljEyoftqtU+MdeENl1Ym2CrlIkR+7bq87bA/k9ePJx9xLzUpKSUEEgIJAR6FAEU1hvw8NI928Nn37erpiwqZ74TKie+ZotD2Ks2k+k5lJrAK6u8cLV9BP12e5DpH9ut4TU2C5+Va6y1tbDiNjAW1/+6fRLueVsX+Mip9MJzY5svzU4IJAS6HQEU1puvWRN+464d4dP3XRPKXKkyp8qpv7XC+oj9fjZmLJxBU2s6Alh5aYltly3/xF7B2dmUq9a2FlZ8WvXUheHwL//m12HPkQvpt9Wm7yHJYEIgIdBtCKCQ3nHtuvCxu7aHT9xtv+OVbPh5rnLym/bJuK/YL4GpqJaErT61hevsd9ZP2lPC99tvrbYaU4OtrYX19MBIeP3g+fDVn70Vjtk7rGlN4Aa3XpqeEEgIdD0CKKx337ghK6wPv2fb9Hus4KPxNceZiVghtSUMK6e+ZVesX58pSqPmI9C/1G4HXze1EtPy+xq239bC+ubhC+FnrxwNT712LJy/lN7JanjrJQMJgYRA1yMwzwro+27dFB5+77bwodu3ThfSwsJqDypNjp+0xfe/Y5+Ms/dYU2stArgdbN9r7dv4u7ZA/0ftdvDihvy1rbDi6vTp3fYFm1/sC0dOXwqj9hBTagmBhEBCYLYjgML64B2bw0ftavXBWza/6zfWaIG1V2sqw/vsHdYfhHD2sdkOUdfk17fht0NYawtGLNhkMU3dUagnuLYUVvw6MDA0Fh6zJ4G/9vjeMGbfX023gevZXGlOQiAh0GsIoLB+9K5t4cNWWO+7YcO7Cms0n8nxUMEC/GesqJ5/KqqSmM1HoG/VA/a91g/ZSkzWN/B0cHsKq12tvmYfMv/JS0fCY7YoRGoJgYRAQmCuIDBvXl/47AO7wofu2Bpus6eDcYUa/11VEKmMhcrFp+2rNo/bAvwviCCRLUUATwever+txvTFhr7T2pbCikUhvvPsgfDka8fDm+mbqy3dL5LxhEBCoLsQ6LfC+nsP3xQ+cNvmcM3GFTMKqy+y0+PKiH2H1b5qc+5JW4B/d3clNJujmW8LRKy42169+ZJdsC6yTOt7p7UthRXfXf3j774Wnn3zZLhgqy6llhBICCQE5goCKKxf+vyd4YFbNoW1yxfNKKyKwXRRBbMybA8u2VKGF+zrNkMHVS3RrUQA6wcvuzXM2/qHYXL+Bqur9X0EveWFddR+Tz1rTwD/yXdfD6/sPxMup6/YtHK3SLYTAgmBLkLA7vqG+f3zwv/8xXvCfTdtDIsX9le/DYz47aPmEyf+PEwO2G3g0dNdlNEcCGWx3Q7e8OkQlt5V90fQW15Yz1lRfdMWg/irx/eEvUcvzIGtklJMCCQEEgJTCPRbUV22eEH4X/7+PeHu69fb1erM91ZnXKUqaPYO68SRf2O3gV+eWs5QZYluLQIL7HfwlbeHsObzISy2j6DX0VpeWA/asoU/xbur9jWb42eH6ggxTUkIJAQSAr2JwFIrqpvXLQtf+szt4fada9+VhH78ZMYDTVZYLx/438Pk4O7QV0lftXkXcK1k4Duttn5w3+Z/aisx3V2Xp5YX1tfsYaW//Nnb4cDxi+GivXKTWkIgIZAQmCsIrFu1ONy+a1344kPXh+s2r8zSxlUqGgupH9vKECGMnw4TB/+V/b76FhQz/fRPmxDA76zzFtgDTP+NffHGXruZZ6sy1dhaWljH7PfU5946Ff7k0dfD4PBYWhu4xo2T1BMCCYHeRgBPAT9s77A+ZK/abFkzdYLOvf3LVCv2cZKRA2Hi8JfD5PA75Ka+zQj0bf7PrbDa5+TwndYaW0sL69mLY+HJ14+FL1thTS0hkBBICMw1BPDe6u89fGO4YevqsHIZXt+Yanq1ShqS7OrVljKcHHo1TBz7un3g/MiVGalrNwJ9az9syxs+ZE8J31uz66ywYsPydkTNFgomvHrgXPiFrQv86DMHCrSSKCGQEEgIzD4EsDAEngT+Z791Z1ixdGFYON/Wo7XGQsorVz33ZrLR/fY08FP2us1Pw+TYqdkHTK9ktPwWK6wfCn1rfrPmiFt6xfrYr4+EJ14+Gl6yD5unlhBICCQE5hICq+ydVSwK8aXP3hHwLisLaLXCOjn0WqicfdSK6yv2W2t6k6JT+8wkPiW3+iO2MP8/qDmElhVW/Nz+NXvF5mdWWI+dGaw5sDQhIZAQSAj0MgI3bl8dPnTn1vA7H7x+RhpVC+vFZ8PEya+GMHzU3mcdnjE3DdqHwOS8+ba8oV2xbrWng/vmm+PyqzC1pLDiIbYJ++fffe91K6xH0pds2rcvJE8JgYRAlyDwMfuoOb5oc++NG6cjQlHlLWAwlea4cv6JMHH0y3a1ahck9pWb1DqFgD29vfLe0Lfp92yhiM1WVxeXDqQlhRVPA5+9NBb+/Ie7wy/tU3HpSzalt0dSTAgkBHocAXzNZv78eeH3bX3gj1hh3bi6+rJ4vIoNk6O2PvBPbXGIP7NlDVFU06s2ndwd+pbdHML6T06twtS/unQoLSmsl4bHw9vHBsI37durL+9Lv6+W3hpJMSGQEOh5BBYu6A/rVy0J/9UnbgkP3ro54CGmMg3FFR83R2GtHHukzJSk02IE+hZvtQeY7rNPyX1q6qq1pL+WFNYzAyPhqTdOhJ/aZ+LSMoYlt0RSSwgkBGYFAmtXLA7vswX3P3nvjnDL9jVZTrwi5a1f/yATE8c3WLNPxeE7rKl1HoEFq+xq9Tp7gOkfhrBoZ+l4WlJYj9rDSt/61YHw0p5TaRnD0psiKSYEEgK9jgAWVcKiEPhM3K32Duv6lVO3gbWwIkc/Zt4TZ79vhfXntkbwq2SlvpMI2KfjJhdttK/d/LMQlpRfN7glhXXf8YHw73/4RtifljHs5C6RfCcEEgJtRgDvq96xa234J5+6NbsdrO+u8ioVIeUW1uN/Hirnn7KVl463OfLkLoqALW84OX9FmLf9f7Ar11vtabMFUTXPbHphxRPBbxw6H/6vb7wY8GWbCfsWa2oJgYRAQmAuIHCzXaV+8PYt4bP37wqL7bfWWPNF9erY3qY4+C/tA+e/NCJ9tzqGXUd4tlZw37Y/tAX53xtCyQeYml5YB+zBpV/vOxP+3++8GgZHxtP60R3ZE5LThEBCoJ0I4BZw/7x54VP3XRM+9b5rwq6NK7NFIcrEkBXWihXSibO2PvCf2m3gl+yStlJmatJpBwL2mk3fpt8OYcX7bN3gcr+zNr2wHj0zFJ59+2R45Cdvh+Gx9A5WO7Z78pEQSAh0FoGF9nrNtg3Lw+ce2JW9YrN4gS0uUO5h4CzwyfGztj6wrbh04lvWv93ZZJL3mQjgM3K2bnDfyofsdvCdM2U5o6YX1jcPXwhP7T6erQ88Oj6R4zaxEwIJgYTA7EAABXSVLbDPr9jwSeBYdrg65W+tM+jRg7aMoT24dP55e5U1/b4aw65jPKy6tPIOe+Xm4dC3wopridb0wvqcPQn8+MvHwtP2VZtxWygitYRAQiAhMJsRWLxwftixcXn4g0/emn3FZvmSBdMPJ1XLm7+vTg69bl+z+fLUQ0uXh6pNS/J2IoDvsy6x91ltMf6+NZ8u5bnphfVnrxwLP37xcNh94Gy4PJEKa6mtkJQSAgmBnkXghm2rwoO3bQkfv3tHWGfvsGJBCBbMoqSmdSqDoXLxhVA5/Cf2O6utDTyZ7vQV4dZ+md2SWLA8hHWfC33rv1jKfdML63efPRgetb+jpy+FiUp6IrjUVkhKCYGEQM8hgFvAyxYvCB+2hfY/9/5rw5a1y+zTcPPetf5vXmK8FTyJ28Dnn7bVlr5qquliJA+vTvIn7aq1b/3nbaEIWzc4W5C/+Af0phfWrz2xN3z76f32RPBYeiK4k3tC8p0QSAi0FIH5/X3hrhs3hIffuz08ZFeseCq4lgeWGFxl4MlQOfe4LQzxjLHSxQhx6bp+7SetsNoVK1656Yu/SsWYm1ZYsdA+HlZ65Gd7wndt1aV0G5gQpz4hkBCYbQgsWmjrAduqSl/44HXhnuvXZ1erZXPklWpWRO21molT37AHl2wJw7QoRFkIO6O3+oO2IL9dtWJpwz57UrigNa2wopCeuTga/tquWH/0wqECl0mUEEgIJAR6F4H+/nlh67pl4e4bNoTfvG9n2LFhWcAXbbgOcLXMpgvrpL3nf9neXT3+iF2x/iL0VcarTU3yTiKw8h577eYToQ+v3Mwr/mJR0worrlaxlOHf/XJ/ePK19Lh4J7d/8p0QSAi0DoFlSxaGD9y2Ofwj+3rNSqPnW6H1t3DLFNnJyxfCxKXnwuTpH4dw6fXWBZwsNweB5bfZk8H2PuvyB+12sD3MVNCaVliHRi+Hl2zFJVytvvD2qQKXSZQQSAgkBHoPARTLfnvi9zfu2REesmUL79y1Liuq+F1V300tm1ll9GionHwkTKKojp4uOy3pdQqBpdeGvlX3T31Crt++elPQmlZYL9pShr94/Xh44uWj4XV71Sa1hEBCICEwWxBA8cQiEHi1Brd/77CiusLeV2WrtbBOTgzaCktv2rur/2Hqt9XKGE2lvlsRWLzZFoiw9YLX2QNM89cWRtm0wnphaCz80N5ffdqK694jFwqdJmFCICGQEOglBJYsmh9u2rY6fPHDN4Trt64Kq63Iapt+J9WYZW4DV4bfCZWBZ8LkyW/Zu6uDairR3YrAAnsaePkt9mTwH9h7resLo2xaYcWXbP7Wfl997s2T4fCpS4VOkzAhkBBICPQCArhSxWs0D9pvqh+6Y2t4z3Xrw1IrsrglrAVU6Wp5oQhXzv80VM58L4Sh/fbqanpoqRpmXSHvtweWll4f+rb+kRXWjYUhNa2wnrk4Ev7ip3vCy/tOh1PnbfWQ1BICCYGEQA8jgCd9ly9dEO68dl34oL2neue168NaW1kJxVavUJFi6cI6eTlUxk5aUX00TOIVm4khGOthlOZQ6FgYYsk1oW/7/2hfudmCrZ6bfNMK66kLI+FPv787vHHwXLgwOJrrMAkSAgmBhEC3I9Bviz+stI+WX7dlVfitB6/N1gBes7zc7d/CIlsZChMXnrL3Vh8P4eLL3Q5Dis8jsGhb6Lvmfwph0XaTWKHNaU0rrCfODYd/9bevhH3HLoSR9Lm4HLgTOyGQEOh2BHClunL5wmz934/dtSPstAX2l9hC+7j9O/0OqkvCX8Gq+GqhrYTJ8TNh4uiXp54EHh9QtUT3AgIL7QGm7f9tCIuvs3dZl+ZG3JTCijsZR88Ohv/zr18KB09eTGsE58KdBAmBhEA3I7DU1v7dtGZpeOCWTeEuW1Hp+i2rw5JF/dkCEIhbC2teMUUhpW5GXPlncuxIqFx6MUyestvAWGXJbgun1mMILNwY+rb8gf3WerP9+J7/yk1TCuu4rbp00B5Y+r+tsB45k55w67FdJYWbEJjzCKAW4knfHZtWhNvtVZqP2sL6m9csCwtsUX1teYX16lVpzjutlRH7gs3zYeLso7YYxN6p31bVcKJ7AwF7Grhvsy3Ev/R2e4BpQ27MTSmsl0bGwx67BfzHf/daOH7WfoxPLSGQEEgI9AgCKIr41NsHbt9sCz9sDfffvNkKqvGuXHkiDV6d8mqUqSmfNGVX+0m7Qj1sRfUnoXLqW6HP1gc2i1fFieodBBbY+6sbvxD6lt1tDzBty427KYUVr9q8fuh8+I8/2B1OpieCc8FOgoRAQqC7EFhhDyjttKvUB27eZIs/rA7b1y8Pa1fak79XwtQrVB85ZSyo/qp1il+xNYBHw+XT37JXbH5lr9fs82bSuJcQwLus62y94BUP2ANM1+ZG3pTCetKeCH5l/5nwyE/eDqcupFdtctFOgoRAQqDjCODqdLF9nWbDqiXhWnvq9/ada+0qdVNYZUV24YKZnwNj8YwFrTLSU8VUXr+xRfazFZZOfdv6PXYLOK2wFMOyZ3jzV9pC/A+FvpUP2QNM9jtrTmtKYT1mt39ftPdXv25ftjkzMJLjKrETAgmBhEDnEMBVaFZUbYGHzWuXhg/aer+47bvLrlj1tm+1CLV4qi7507zJiVAZfDVMnPhKCMNHQricnj+ZxqZXifnLbb3g+2x9y4ftd9Y7crNoSmE9dHowPGcL73/7qXfCWVsoIrWEQEIgIdBNCOA2La5Sb925JrzHFnq4Zcdau2JdnD2wtNgKLW/9FsXMwqm/s5KHef5WMJ4Arpx/2j4J94Rdqdq7/VZoU+txBPqX2tWqFdTVnwwBv7PmtKYU1ndOXAzP2FKGjz5zIOD31tQSAgmBhECnEcBV6Hx7qnfTmiXZE77b1i/Lfke93m7/bl27LJOVKajMg0VUCytkys/oynCYHD1kRfWJMDlgr9cMH6aJ1Pc6Av2LraDeEPrWfsbWDbbfWXNaUwrrnmMD4UlbfP+x/5+9a+tt4ojCx47tzQ0H41woAiQeUMUDvwAhXpCqPrWqqlYCfialAiSQ4AVIE0BECtcmDUEgIBDFIkCos3zfGU8YzI5E5HWIwxnYzGVnZne+jebLmTlzzvSiWV2KAG3FhoAh0H0ESHolWE2qlPpksL+kHmmOHtqjNn6PQEodwjlVGnroRnCkuibp2qLaAk6Xp6ANjCVgCzsHgSKsbw3uB7H+IlI9Fh1XLsR6d3FZrsw8latwGbcCLzcWDAFDwBD4Fgj0w0LSD/UhOQwPND8eqGHJtybDcO82hOXeBPe4x7pZWiVhhlJqKKH6Mfo666t3YbLwGuwAY/kXjszNwL5HaIfExQrsBe+TQv1XEOvx6KByIdYZ+F+9DFK9PvtMGqvmqSGKtt0wBAyB3BAgSVICHYH5wdHqgEzsHtRl31Fo+47jGtuNGGVcEsb/XEM7uaZc/gWprq9M4YIN4HePbU81V8S3SWdF+ODtnwCx/gYFphPRl8qFWG/PLcnFm09k+sFzeQOH5xYMAUPAEOgUAXJhAeRZ6ivqVcYSL9M8EpPgovu2GrzNTEDD9+DYsBzaW9W908GknDuRZo1FpVQYekibDd1Tbb6+JGljxjkuz2pgZb2PAIk1qUth9HenGRwZUS7EOvXwpZyffix3/l2SVVhhsmAIGAKGQKcIuPOm2CeFV5nargQu2xKpg0j3QvHoAIiUCkh+z5T7pu4qbgmpurHBehKMPzThsLz56oLImzlo/+JIjVpW6nT01n5bIkDXcckIiPUPaAafjL5iLsQ6iaM2f/+zILPzr2T1vRmWjqJtN7qGACdhSjOUZCjRVKANSjuvKuVAkaWsUo+rQ8fVnIRZ38XOfB37YJ77aYh0CdGVYbJmQSswxazuuzHGPz0HuVHFJfTnRplv3TsxnWt8toSKvAY/JuR9Ecs3xttW7hqFP79ohZupYuil0hK/ESRUfkMnoZb0uIyXVLlvSomV33Urg99LTf9fUSk1bdzCWdVZaP7Ou3OqdqRmKz/H1j+rAAMilV1SGPvTHbmJvEEuxHrj/nM5N7mgvljfGrFGoLbizSBA0iLJuUmVJNkiSyVITLaYcHmUwhEmlwo5CWOJEAoq/SDWctnVceSKPOuyDfr8RKhuiZFlnlQZkyT5bMZ64Zks94EpZkm2jkxcPZ8O67kKvqS3YiVWvrIODNTX4kMl2wh5smpIm7ERu2VU1N7oO1XMHbH26fckueqzWp3wd8Lvbcb67Wo5JNE0/QCt32fQ9p2H6zfsqTamRdZeQHI1gaKr2G+Xzgv4Q66Es6zjp0RqP0XfKjdi/WvyP7m3sCxGrFGs7UYEAZ1bdY79NNGS/Hhwn2bn6rDdyqXAGryPjAxV1PQclweZrkJyGR5IlGg9+akkiWeFk7AvC1/B38+6F9bz6bCeEkM46/tK30ncjp3Pc/gep7Dsa2EJ22T1k1X2tX13Vg9/LqzjKE1zWZpL53Cc5oazptRZp9a61xAgsfYlINbTMG34c/TtcyHW6zAOcRbE+gCG+I1Yo1jbjTYEOElSiqQW5yis4IxDi5OandxHq4I06VyaEquXNimdeglVpc+WMgslG0+qbY/QST42WftJur1NmA/rsB+fb0+zTda9sK9eT4dj5lg8rhx3Vnoz4w3b5933Zt4juy690zyCL9UZ1fhN3+Ns6ofX2E81K3PZeO3gUv6u48hNYeKMMxIRGepHAAAA//+/G4WOAABAAElEQVTsvfmXJcd1Jhavtq7eF/TeaKCBxg5iIwBi37iKC0RSGomSJY1HMxprzow9Psf+wf+Cjz32OTNjWxrLljUejTQzpiRuI5ISKXADCRAkse9LdwO971t1VXVXvef75avv9VfRkfky38u3dsQ51XHj3ht3y3xxOyIjIyszMzM112Z55s1D7hs/3ePe3nvKzczOtSktdh/GCIyMVNzyyXG3Yum4W2l/q5ZNuJX2t2rphFu7atKtXbnErbO/9Ssn3erlS4x3zI2PjbYdikql4mq1i7c42ijAEc5SQh7KUHkKQ4byEs6SPQw0xjEUn6L+URb7sV2GbMrMXdfmXG3upHMXjrja+cOudu5tV516y1XPvesqVYxxF++p3DIj4xBEwMaTkTFX2fQ7rnLFZ1P9qZSSWN845L5uifWdvSfdzPn5VGWRcHlFYNSS6djoiJsYH3VLJ0bdliuWu20bVrgrrb5q0yq3dd0Kt3H1ZJKQFvJd2wHSZMfkpgNzSAEH8BBNcZ2UrXoGDdb4MdbwQeOV1yeVhT7abld2UxtqNnYhodZmnZubcrUZS6ZnX3TVMy87d/6Ec/OGj+Uyj4Al1sqIq2z++5ZYP5cai1IS608ssX7t2d3uvX02Y42JNTXYlxMBSXWNzT53bl3lbt6+zt20fa3NRCfc5MSYmxgbcUss2U7YjBSJt6yk6sdXB/a8SdaXkdbupOw0nb3GM7Gp77TJjy/xeetOys5tw5zNTqffs2T6qs1Q37OZ6jFLpmft75wlXCTdal5RkW9oI4AZq41Zm7qQWH/8us1YkVj3x8Q6tPdTE8eQHJFMN6xZ5javW2az0eVus81MUW+x9pa1y934+Igb6VQWbWpffQm4CVthMhNK4Y5D0IHJsBOudFJ2Yq8lyVp1xmamx13tgi31zh50bvaQ1ftddXafzVCPLsxQ45JvJ67v4MpEYh1dWAru8IwVifVrz+x2uw7ExDq4N0xrliNP8tkpno3u3LbaZqfr3I1XrnGbLMlidtrpojMoTXQcnBVX1JaQbMqFrHZkF7Wln/nTYqL4Vu1XGRpvxWfLtplm9UJ9ibdqy7nV85ZUpy2hnrZk+r4t+b7ravb8tJYs91qyjSVGIDUCXXzG+vTrBxcS62k3G5eCUy/JsBHqs9QR9+HrN7i7b9jo7rx2vVthG5Sw3DtuCXUUSyadmSjmCqUOwuiAgZg4hX1aHuGUQ16VpzDpg1in+QF8WkFcsujs10nZ1NGobWZau3DIVWd22VLvbkukH9Rnpxdsmbd2of5nibe+1JvuW0NeBC7jCCCxjtsz1t92lXUd3rwUn7FefvfZett0dLVtQLp1xzp37ebV7sr1K9yG1Uvd6GilZ8u9uApZCa/dq9RJ2e3a1un+aYnQ15snqYb6+LH1edBOl23LuvM200yeh54xuP7n5k4v7Ow9Y0u+pww+tVBbe37KZq5xd28ozhGXFQFLrKOWWDd1IbE+K6/bTMfXbbKuykDTMPgtseekG22J94bta9xt16x3d1+3wV6fmUhmqP3gnD9AczD28a3Y6ssoU3Yr9nSzD3z1/Q/pJx9jE+LxcexzEW+zRtssVFvYpWtZMEmCNduxi127WNa1dVv7s+VdwLa0i6RaSxIpEqi9JmN/tTnbyXvhmLFN2SsyxhNLjEDbEUBinVhIrJ9JlVbKruCfvnXYffNne9zre066mFhTYz3wBCzvbly71D153zXuzp0bklkq3k/VQTTP4Ft2IKBTbVD5SvNh8l06sJOS/cqIL482AM+SJZs8g1Krf4R92zUmPg1t9tMY+fgaZpJ4BlrFjlybWdoMNEmcBmPWWcOGI9tcVLtw3BKnJVBb0q0gwfLd0mQ1l0u6rKEllhiBNiOAsWZkiSXW37Kl4A4n1p+/c8R96+cfuFd2HXPnZrC8EsswRQA7edfZ0u/t11zh7rtpo7t2yxo7zGHS3k0dSwZKf5DsH99t0wqeodlAncx2XNVVMOOxGo8J6/lPBl5JiPQBKVI4iE5qpfkwGNivnmbr/y4S0NEGtYeV1BNcFo/RMGNEsWAls8fEI5u5WvwS75JnrfVXUGpJTOctvnwX1OLMGWcSf8xABZc826zzYjZZwwwUs0rwJjPSufq1WiQP/TFLNb4GP2avwNftSOyN/8QIdCoC3Uysz793zP3t83vdC28fcVMz+J9jLMMSgUk72GGtJdG7bMn3Xtug9CF7prp0YtxhpoqCAbq7iXVhwE9mNNM2ENvMZh61PWNLBtyLgzdmPhUMxI0BHYOv0SWxdjvdIWb9UCxV4uJlmAL6QgI13lq1Dtv/160PkxjpxgpckgSRLOsJE/0vxh7/uVEarkO9XU+s+A8Ql3YtQSd6MsyLpBiBXkTADoeojdqMdSNmrJ9OtaCUpeCXdh93331hn/uZPWs9Ox0Ta2q0B4yAjUib1i5zH7KZ6ucfuNZttw1KONCBy3lwp+NJNRncMQBfHLjxqoSbs3cPcdTcedvtidqepWGDSvIyPxKtbWapzV+IA/SA3XPR3BiBvo6AJVY3ttwS6286t/ZTqaaWklhf2XPCPfXSPvesvXZz5lxMrKnRHjDCtVtXu4/ctNk9ccc2t97O852005KYSJlc2YZr5c9ebcaTvLx/wF7c35u8vF+btRf3L1gCxbFzyQyVS4OYqeJvIQFjxpMk5QELejQ3RiBGoH8jULHzyydWucqGLzm35hOpdpaSWF/74IT7/ssH3NOvHLDEGnffpUZ7QAhLFpZ/H7eE+pEbNiWHPdB0JlImVuAVR5j8hWosFVbPWL6sH3zuLlgStWPlMButAb5wwnInXp2wI+biUmGh0EbmGIEYgRIiYAfwu4l1llh/zbnVH00VWEpifcMO3/+hJdUfvLzfnZ6KiTU12gNAwFLvhjVL3R0717tP33u122nvqGJPDxMmE6q2Cbfmns0s8QJ/snxr7x2eP2BfEHnTTsKxv3O7bEnXZqZIuLHECMQIxAj0OgI4HGJyk3NX/Iol1sdSrSklsb5tZwT/6LVD7qnnP3CnYmJNDfYgEK6wQx5wktKXHr0++ZQbln9RspKnn2zBn29ZGMu1s/Y5rtft4PMXXO3s6zZDtVcpks1I2PlpjxWSDTbGF0uMQIxAjECvIzAy4dyyK23j0uedW/VwqjWlJNZdh864Z9447L793B534qzNMGIZuAggcY6PVdyDt25xj962zd19/cbkUH3smgWNyZOOMdESzzbpzerazG47Wm63berd49zMwvNTLPfO4azWmEibxS/SYwRiBHoQgZFJOxx9hyXWzzm38oFUA0pJrHuPTjm8y/qVp3e542fiIdap0e5jAl6rudK+lfrk/TvcAzdvtoP1l5i19QTXLLHmTqp2AHpy3Jwl0NrZl2yW+kryAWk3Z7t440ajPr47omkxAjECSQRGl7rKihtsR7C9arPi3tSglJJYD5+cdi/Z4RB//r233dFTMbGmRruPCXit5lcevjZ5XxUfIA89V4X5TLKhZNps+bd2fr8l1Bfc3LFv2SwV37rEdy4vvgvZx+GJpsUIxAjECNi3MZe5yqpbbUfwJ23m+uHUiJSSWLH8+9oHJ92ffPt1hyQby2BFYL09V8W7qr/68E77fuqy5Os0WR4wuZJHk+wlydU2HuHouerZXzQ2JOGbl/VXZeKmJMYw1jECMQIDEIFRe4d1jSVU7AhednuqwaUk1rN2jOE79i3WP/j6K+7gcbwKEcugRAAnKN1pO4Afv+NK96AtAS9dYtvJm5R8idVO68EhDXj/FJuTTj9rn+x6v/4OahP5kRwjECMQI9CXERhb6Spr77eNS485t/TmVBNLSazn56puz+Ez7n/9ixfd/mN2aHYsAxEBLPfi26lPPnCN+8KD19pXauyoQiAXCmei3KAENJMqacCRfhGHI/DOu+rsQVc9/jeudvIHllDt/dP4HBXhiiVGIEZgUCMwttq5dY/bcvCDNnhel+pFKYm1aq9EIKH+j//xebf3qH2+KW7qTA14PxFwEAR2/370ziuTc4BH7R3Wi2l1saVMqMQyifpLv0mSnTti76K+ZUn1BzZLfc+Sqn2FxM7tjSVGIEYgRmCgIzC+1rkNn7MNTHfbQRHbU10pJbFC+sET59z//OUX3O6DZ9zcPDakxNLPERi1JeA1K5a4X3/8evdhO2B/67rlmebmSaw1m5EmZ/dO2W7f08+52plXbYOSffor/k8rM7aRGCMQIzAgERhf79zm33CV5R+yM4M3pBpdWmI9ZJuW/vXXXnHv7Dtl32SN5wWnRrxPCMsmx91VG1e6f/rkh9yOTauSd1bTTEtLquDnjBVfManZ9zKrp3/qqid/7GqnfhEPwE8LaMTHCMQIDGYEJja5ytZ/ZM9X7ZWb0ZWpPpSWWI/YazZ/9K3X3Rvvn7DTl+IhEakR7xPCjs2r3AO3bHafuvuq5IB9mMXlXd9ETawKa5/a+YP2Pernbfn3e87h0Ae8ShNLjECMQIzAMEVgyVZXufKf2/PVq23AnEj1rLTEeswOhviz773jXnrvqDt8Ir5ykxrxPiBgGfjeGzcl761eY2cBL8uxE5hmM/nqhiUk1SoOfDj+lB34gKRqy7+xxAjECMQIDFMEsLFzyXZX2f7fWb3NPBtJ9a60xHrS3mX96rO77Zush937h+PAmhrxPiCstmerH7/rSvdfPHGDm7CzgHUncDPzFidWe5aO3b9nnnXVE0/b7t9nm3WP9BiBGIEYgcGMgH3ZpmYz1ZErLbFObM70obTEis/FPWVft/mRfeXmTTssIpb+jAD+03W7vbf6hL23+vE77X9f1s5TQkvANVvurdo5v9XDX7bNSs9bko2PAPLEMvLECMQIDGAE7DhDt2ynPWP9Z86Nb8x0oLTEOmWHROC84O88v9e9+K4dph5LX0YACfLzD17jHvnQVnfT9rWNzUeFjbUvz+AQ/fmj37Ddv6/ZV2mOmIj4nlXhOMYOMQIxAoMRgXF7h3X5ja6yyTYvYXdwRiktsc6cn3dv2o7gv/7pHvfM6wczVEZSryKAZ6t4d/Uff/pWe8a60a1dMVk4sXLmWpv9IHmlZv7wX9Y/PB6/mdqryxr1xgjECHQjAktslrrydldZ/yV71WZdpsbSEusFO31p3/Ep91f2hZvvvbgvU2kk9iYCk7ZJCecC/9e/fJu7bccVhYxgQq13qrn5Y3+dnKrkztkxhfFEpUKxjMwxAjECAxiBpbYTePU9dqThZ+1VG5u9ZpTSEut8tebOTl9IvnDzzedssI2l7yKAL9jcZSctPXnfDnt3tf4OFt9DzW1sdcaeq77nqke/be+q2mYlOw84LgHnjl5kjBGIERjUCKy4xZLqI/a5ODvOcHRFphelJVYcroMTl/7sqbfd157ZHU9fygx7b4g7t652v2znAt+5c0Pj3dViidV2AV84lnz2rXbqufr7qr1xJWqNEYgRiBHobgQwW73iU/YOqx2+P2IbmTJKaYmVOv7TD95NEitmr3zXkbRY9y4C2P17x7Xr3e995la3ac2y5N3VYknVbK+es2T6npvb929s4xI+/RbP/+3dFY2aYwRiBLoagbWPucqGL9jGpS12OMR4purSE+s3fvq+w1Lw/mNnXdWWh2PpjwjgKzb33bzJ/fPP3+7Gx0aSd1fx3FRLs0RbO2effzv1Q3u2+sP612riLmANX4RjBGIEhjQCNTugtXLFp93Ipt9wtWS2mn44BEJQemL9/ssH3Hde2Ote2308Lgf30U225Yrl7mF7xea//PiNiVV+Us021f6DZK/XVE98P3m9xs3Y5rRqPA86O2aRGiMQIzAcEbAJyKgdX3iFfdVmo+0IdqNN3So9sT5vRxr+wJLrj+ywCHynNZb+iMAddijEo7dvc79kZwMXLvhqzYXDtmHpm27+yNddJdkFHFcjCscxdogRiBEYvAhUbHY6sca+w/oZm7V+MZf9pSfWdw+eds+8cch97ce7HN5tjaU/IvDxD293j9+xzd1pz1k5W/WXfv12w3I7tnD+lJ0DfOJH9u7qSw10BGIEYgRiBIY+ApVRV1t6le0I/mTyl8ff0hPr0dMz7hd2AtMff/sN+3xc3NyS5yJ0g+dLj19nHzTf7q5cv6KxqYzvpjLRhu2wVYe5s27uwJ/YCUsv2AlLx8JsERsjECMQIzCMEaiMObfKDoZY84QdEGGv2uQopSfWaZulvrL7mPtXX3nZnYk7g3Ncgs6yYH/S6MiI+71P32KJ9Uq33L7DqjNTwCipydV2Atdm97u5vf+nc+fesWetcRWis1csSo8RiBHoqwiMTLjKusctuT5kZwXbB85zlNITK3S+ufek+1/+8kV3zGavc/E5a47L0DmWsdERt2zpuPt9e83msdvwqSPb3xbYDQwLfDxwtfP7Xe3sL1z1kJ0JPHsAqFhiBGIEYgQunwiMTDq36ddttmrvsU5gDG1eOpJYdx064/74b95wuw+cdqftqzex9C4CyybH3FV2ytJvPHaDu/cGO+vSCmepgJFM2Q4l1urUq656DAftv2Kv2JxGl1hiBGIEYgQukwjY+Di63D4V90/tAH6brY4sz+V3RxLrvmNT7is/2Z185ebQCTtUIJaeRWCNfXv1rus3uE/fe7W79ar6wdFMpDCKyRQ4wg1ja3OuevoZN3/gT+vPVm0TUywxAjECMQKXTQRG7NHZ+BVuZNt/Y8vAN5jb2e+vMi4dSaxHTs24H756wF672e922aw1lt5FYOOape5jtiP4oVu2JOcDN5uhMukmSXb+jL27+pSdtPT/LLxi0zs/ouYYgRiBGIGuR2DMzgReZjuCN/5DO8rwmtzqO5JYsWnpjQ9OuK/+ZJd7edfx3MZExvIjsG39cvcrD+9MjjPcbIfw+4mViRSa/Rlr7ZwtA9uhENUj3y7fsCgxRiBGIEag3yOwZJOr2I5gt/aX7V3Wrbmt7UhiPT83746ennX/73fedM/aO63xaMPc16N0RnzF5nd/6WZ33ZY1bvVyOz1EChNpcBnY+Kon/tZVT/7QvmLzovSKYIxAjECMwGUSgWXX2o7gx+yLNg/YN1jzf2qzI4kVb3DM2z9/9M3X3Pdf2h/fZ+3RPWhv2rjrtq1x/+0Xb3db1i13OC84a4bqmzl/6N9bYn3aDt6P39f1YxPbMQIxApdBBFbYbHXjF11l8lp7vJr9qTiNRmV6ejp5kZGzFyW2A0Pol3/0nvveS/vc3sNn2xEV+7YYgdGRirvZNiz9D1/6sFuzfIkt9dYF8VrrTJUwEy945vf9b5ZYf2y7gadatCB2ixGIEYgRGMwIJAfvr37QVbba81UkVRwUkbN0ZMZK3U/Z5iWcG/yLtw4TFesuRmCFvb96ux1hiC/aAEZhUgXMJHop3k7MsoMh5j/4P+wIQ/vuavw8HEIUS4xAjMDlFAFsXFrziKts+gc2cOLg/YWZSY4YdDSxvvL+CfejVw64b/50Tw5TIkvZEcCO4A/bu6u/+4mbkhOXID+UWBUHntq8zVAvHLAZ67+191fj2cCISSwxAjECl1kEbDewW/1o7oP3NTodTayH7bWbp1896P7kb15XnRHuUgSu2rTC3XfTJvdrj1zfSKxps1SY1KDNHXO1cy+56mE7GGLq3S5ZG9XECMQIxAj0TwQqa+63GevD9Y1LBc3qaGKdvTDvnn3zsPuDb7zqZs/Pufn44fOCl6c99hu2r3EP3brFfdYOh8DGJb9gptpIpkbkzLU2u88+aP49Vzv+tKvh26uxxAjECMQIXGYRqGz6e3Y+8IPOLbm6sOcdTayw5sVdx+x4wzfdoeNTcXdw4cvTXgd+g/Xx27a6JeOXfpw3LbFWZ3bZt1e/as9XX7YTl462Z0TsHSMQIxAjMEgRwPdX7cSlypbfs/OBP2JfMcm/G5hudjyxvmMnL/3n5953L9qn5HAofyzdi8BHbBn4Y3dtdx+5caMbt8P4Q0WTK+Ha9Ntu/vCfO4dl4AunQt0iLkYgRiBGYDgjYF+zwYfNK5v/K1sGvqslHzueWA+fmnYvvHfcfeOZXW6PHc4fS/ci8Njt29wn79nubrFXbphYudxLK7gUzKSKujr1mp0P/EfOzRy0b7HGs54Zq1jHCMQIXAYRGLekuvIm59Z9wY4xvL4lhzueWM/Zx84Pnpi2D5+/7l7bczw+Z23pMrXW6ZP3XOU+Y89XcfoSPh+HoomVSZV4tmtTL7v5vf/SloHtnOd48H4St/hPjECMwGUSgcltthP44zZbvde58S0tOd3xxIpTmC7MV92//trL7udvHXFTMxdaMjR2Kh6BJx+4xj15/w63ac0y+9h59jtYTLhIrrUzz7u5Pf+Tq1Rnbatwtbji2CNGIEYgRmAgI2Dj5PIbbRn479tysH17tYXnq3C744kVSrAb+C9+vMv95LWD7r398ZkdYtKN8quP7HRfeOgaO3VpMvhqM5d/1ZaKu2Cbln7u5nb/C0uqdlBELDECMQIxApdLBEbto+Yr77TTluz7q5Wl9hfem9IsHF1JrFWbBT339hH3vRf3ux/b5+Ri6U4EfvOJG9yv2pdtJicu3RGcZkHFTlzCaUtz7/8rS6zzaWwRHyMQIxAjMHQRqCzbbq/Y2PurV/yaJdX846YfiK4kViwH77fXbb77/D73lR+/55BogYulcxEYsaXf3/nYje5XH7nO6SqwP0vVdgLPnbTE+lM7zvAPY2Lt3OWJkmMEYgT6MAKVtQ+4yppHXW35PWZda7NVuNWVxApFc/M1950X9tqn5N6y91kvxE/JISgdKjhsH++t/tZHb3RffOjaXFoaCRanLiGx7v2/YmLNFbnIFCMQIzAMEUgO3d/06/aZuE/Ys9U15lL2vpQsnxuJFZtWMLh2qmCC+jPbvPTVZ3a7d/eddNgtHEtnIoDZ6splE+43Hr/ePXnfjlQljWS6wJG0z9v3c08966r7/yQm1tTIRUKMQIzAUEXADoRwE+ucW/9rrrLajjGsWLuN0rXECht32XusP7EPn3/n5x/EwyLauGjNuuLVmivsAP5fs81Lv3S3HSSdUoKJdXa/JdZnXPXAn8bEmhK3iI4RiBEYsgjgSzYrb3eVtZ90btltbTvXSKxtS8ohYMqWgJFc//Drr7oPjsRvtOYIWUss42MjbtuGle6LD17rPnanbRnPKH5yrZ3f62qnfmKJ9T/ExJoRt0iKEYgRGKIITGysf9B8uX3YfHxz2451NbHitZujp6fdn/ztW8lhESfP2nuSsZQegQl7vrpj8yr3y/YeK84JLlJqs7stsf7YVQ9+2RJrfIe1SOwib4xAjMAARgDLwEt32NnAdoQh3l0dWdK2E11NrLD2rB0Q8Te/2Ot+bO+0vr33ZNsORAGXRgAbl667crX73H3XuEfs6zZFSm3m3XpiPfRXMbEWCVzkjRGIERjMCCzZYKcs2TLwxt+yTUurS/Gh64n1/FzVvWsH83/TDub/4cv2PC++d1PKhVQheG/15qvX2nGGO9wDN2cva1yyFDzzzkJi/UpMrBrUCMcIxAgMYQRsw+7K2+zZ6qOWXO391RE7FKKEsiix8qxYDLadKtAxfX7efc12B3/j2T1uatpevYnJtdRwL10y5m679gr3Kdu4dN+Nm3LLTpLs9Du2eelpVz0UE2vuwEXGGIEYgQGMgH2PenTMXq/5lJ0N/Dmbrdqu4DYOhdAALEqsSug0/INXDrhv2+7gNz844S7YLDaW8iKAxHrX9RvcJz+83d1zvT2UL1JsxlrFM9aYWItELfLGCMQIDFoEKmO2A/gq52wncGX1EwtJtZxJZc8S6zv7Tyev3nzrOZu12nPXOGkt765cNjnm7rVvsX78zu3urp3rCwmuxaXgQvGKzDECMQKDGAFLoKPLbLZqCXXVA7Z5yT4TV2KpTE9PJ4cL6vJvpw+LgP1TM3PudZut/pu/fjV5p3XeTmaKpZwILJ8cdw99aIt74o5t7rYdVxQSGhNroXBF5hiBGIFBjIAt+dbG17mRrb9vs9Yb7dnqslK9CCbWUjWkCMOrN/uOTbm/sq/evLLrmDt8cjqFM6KLRmDF0nH3yO1b7VWbbe7Wq+25QZESl4KLRCvyxgjECAxiBCZswrH8Jlexk5bcErzr3/q5wCH3e5ZYYczpc+fdi7uOu7/5+fvuld3H4/nBoSvUAg6J9fE7r3SPfmiru+WqtbklxM1LuUMVGWMEYgQGNQLYnIukuu6jVt9d2is2Go5Fz1i7sStYlVdt1oodwv/uu2+6p17c52YMjqX9CKy0xPpR27j0iC0H33Rl/sQKzXEpuP34RwkxAjEC/RuBmh0IUVnzmBvZ/NuuVrEl4JJ2AqvHixKrEroB46kqkutTL+13P7B3Wl9696iLT1rbjzwO4P/E3dvdQ3Y4xI3b8JWG/CUm1vyxipwxAjECgxYBm62usrOAVz/iKqvs3dUkqRqu5NLTxEpf3rPzg595/ZD7q6ffc3P26k18r5WRaa1eZYn1k/dclSTW67cWO0kkJtbWYh57xQjECPR5BJBER+24wg2fd5WVH7HjC+1Vmw6VRmLtxk7gNB/mbNb64nvH3R984xV3amrWnb8Ql4TTYpUHj8T66Y9c7R64ZbO7bktMrHliFnliBGIEhjwCY7bsO7nJji78h7YT+GZztvyZKiOYmli7mWix/Lv36JT77gv73DN2hvCB41O0L9YtRACJ9bP2Hdb77TjDnVtWFZIQZ6yFwhWZYwRiBAYgAslHzJdeY7uAP20bluwLNmPF3u8v6mJfJFYYfdbea33fPiX3lz96z72655g7Z+1YWovA6uUT7sn7r3H32SER19hXboqUmFiLRCvyxgjECAxEBMZtE+fKu1xlg71eM2areJX2v2CT5XcjsSpTN2er1ItZK05f+rIl1qdfPeB2HzxNUqwLRgCJ9fP2LdaP2DnBOzatLNQ7JtZC4YrMMQIxAv0egcqIPVPFhqWH7O9jXbG2p++xhjx89+AZ9z179ebrz+yKxxyGApQDh8T6hYd2WmLd6K7eGBNrjpBFlhiBGIFhjIAlVWxYqmz4e3Ye8KOuNlbwwJwWY9JIrOyvRxsS18363Oyc+/k7R+3LN7vd+7ZbGO1YikUAifWLD+90994QE2uxyEXuGIEYgaGKAJaAV33Ykurjdh7wDbYEbAfvd6E0loK7fThElm8f2EamZ9885L77/F536Pg5h+MPY8kfgZhY88cqcsYIxAgMaQRGl1sy3Wmv13zRVSZ32My12H6TdqLSSKxpQnrxvBWfkTt6esb90bded6+/f8I2Ml1IMy/iAxGIiTUQlIiKEYgRuLwisPxGO2HpAZutfszVkg+Yd+71Gj+wqUvBvZzBYhPT9Pk597S9evPDlw/YO65HfbtjOyMC9Wes9c1L8RlrRqAiKUYgRmD4IoCDIMbtxLm1T1hSfcwOgthsPpZ7yH6zoGUm1l4+b8XyL754g6MO/842Mx09NePm5uMH0ZtdUNCRWOOu4DyRijwxAjECQxWBZLOSLQGvurueVPHOag9K06XgHti0SOVr9s3WH75ywGau+93Z6fhB9EXBSWnExJoSmIiOEYgRGO4I4MjCyW2usvkfWX1N8r5q8tUuLIN2sTQSqz5LVbiLtgRVnbXnq7vsFZy/sHOE39t/yo48PB/ki8iLEYiJ9WIsIhQjECNweUSghvdVV9xqz1Uft9OV7rSDILBZqbtLwIz0oqVgLv32U2KFofhu6zNvHk5mrm/YZqZ4ljAvX7iOiTUcl4iNEYgRGNII2HPV2rIb7Is199kS8AO2A9iesXbp1ZpQRBuJlUlVmXq5gUntwNdu8N3W//zTPe4pO0/4oL2CE7+AoxFaDMfEujgesRUjECMwxBEYmbCDH9bYIRCfd27Fna4yvtn1YvlXI5wkVt8IbYcSrgroDlyxRFp1u+zAiJ/azBWflzt/oWonM3V33bw7vravBYn1yQcWzgreVOzdrXikYfvxjxJiBGIEuhMBHK7vltnh+msfdxUs/45vtJnqeHeUZ2hpzFjJw0TKpMU26b2scQoTkuvf2az15V3HbNfwuXjsYeCCrLLE+rmFr9tcGw/hD0QoomIEYgQGPQLJF2uW2QEQOFlp1cOWVO2LNR0+XD9PzJJHqdPT041pnybRhFipv1CrcB7BneCBbbBjyr56s8e+gvOtn73vXrL3W0+cme2EuoGWmXyP9b6r3YPJZ+Pi91gH+mJG42MEYgQujcDIkvry77rH7ID9e5xbsjNZ/gUj8gQL8wbbna6ZKxszVt8ATbKdNqaIfMRs3v55ZffxZDPTd5//IM5avQAisX7qXkus9qHz67fGxOqFJzZjBGIEBjgCNez0ndzsRtY9Ybt/77YDILYlG5WYszSx9srNRYkVRtAoNZJwr4wM6T1pr928te9kcjrTS+8edcfjzLURppWWWD95z1XuIUusN2yz3XEFSnzGWiBYkTVGIEagixGwFdRRe3667Nb6t1VX2KfgxjbYGzVLu2hDPlWXJFZ043TWT7L5RHaPC8n13QOn3Xds1vrmByfdMTtfOBa755aNu499eLt7+NYt7qYr7esOBUpMrAWCFVljBGIEuhMBvDozhkP1baPSKnudZvkd9Weq2LzUh2XRARG0DzNUP6n6bfL2quYsGgf2P2/PWvENV3wgXZbXe2Vaz/WuWDrunrhzm3v0tq3u5u3Fvj8YE2vPL180IEYgRsCPwPgKm6lea6/U/KYt/W7PnKVq/vLFdKu9aMaalTyzaN0yNk0PZq7v2KlMv7DvuD7z+kF38uzsZf2pOSTWx++oJ9ZbroqJNe2+ifgYgRiBPo8Azv6d3GInKt1lu3/vryfV0WVm9OITlfohmWokCyVWzhJVQK9hBhSnM71/xL7j+sZB95qdzrTX4NkLc5flDBaJ9dHbt7nHbMZ669Uxsfb6Ho36YwRiBApGYARLv/YYa9Jmp8uus3dUb3cV+1B5zY32xe7fLG8wCQ0uBaMTExYF9FtSpT2cScNOfBHnhM1Wn3ppf7Jj+ODxKXfBDpK43E5pQmJ92JLq47dvdR+6+gpewlx1XArOFabIFCMQI9CJCGCGigMexu1thuU3O7fmEftI+fU2QV2xKCf5+akTprQik/loUWJlsoLABsPCu6yqJIumfJ2AmwX0gn1aDjuE3953yv3tCx+4XQfOuFOWbC+nsnxy3D1w62b30TuudLdfExPr5XTto68xAoMbAduINGFHEy6/wXZg2pm/k3b4w5ituI1M2kx18dIvfNRcoHC3/Q/lw8ZScDNjNOk24+01HTPUk2fPO3xyDu+7vrX3pHv/8Bn7nmut8R+GXtvYSf3LJsfcfXY4xMfuvNLdea2dRlKgxBlrgWBF1hiBGIH2I5Ds+LXNSZM76su+tvTrlthGJSwF46PlVpi8ksYA/NNIrH7GZyJVh4jrJ7+a2f2WbWp64d1j7rk3D9lMdsadsW+6ztqB/sNcli0Zcx++caP7xF3b3d3X2XteBUpMrAWCFVljBGIEWosAlnzt9CQ3YhuRxmzZFxuUVt5rifUWWwm+orE3Jm18h1LNTa0Z0blejcQKFUycMJgw8OqA4pXm40HrVoFu2qh2AHfeXsfBGcPHbTn4R68edM+/cyT5rmu3bOuFnqWWWO/Yud596u6r3L032KHUBUpMrAWCFVljBGIEikcA47Ul1cpym5Xa+6gVHPiAw/NH7T3VykQyS+V4DuE6vhdX1t0etHtRYqUJdESTFGmDVNMPLA1jGXjv0Sk7xP908mrOa3tO2CH+0+6cfUh92MrkxJj70DXr3C/dc7W7/6ZNhdyLibVQuCJzjECMQJ4IJMu9k7bEu83OybedvkuusueplkwnNtmSrz2uGsXpSYufozaS1MI+H7bzqOs1T2ZihXGDnFyZWNWPs5ZI8T3X594+YhubTrtD9oWc0/YeLPD4gLrl4IEvkxOj7qar1rrPfAQH8W8p5E9MrIXCFZljBGIE/Agky7w288RRg3jnFMu9o7ard9w+YYmTk5bWn6E6+44qkikSJvOMD0M0aYD7KbmqrbBNSyOx+knId4DO+cLIR7oK7wbczO6QDcidVXs158ipGffOwdPuZ28ddm/Yu6+HTtgH1A0/6GXJ+Ki77srV7kn7dNzDt25N3Ml7nWJiHfSrH+2PEehlBGyZd3TCZqU2G528ypLotVZbIh3fajNTfBDEdv4mM9DFs1O1mGOV4gjreA8c805WH/btdK02NBKrKlXjfcNJI1779RNM++gs7YaNpM3aDPWsbWbC89ejds7w/mO2VGyJds/hs+7IAC8TT1hivWbLKvfL91+THBKBGNDnZtcoJtZmEeoTus0KarZjsoIX6WOJEeh4BBYSIt4xxaYjLN02ZqT2bNRmpRU8Ix21WSlekRmzXb4NHOCl9srM2KJxiGMzTOf4pGOV0jvuXgEFaiO7KS6B9XusZAolIe0IPr/Nvv1Shy6Ubzd8QAHv+bn5JMG+f+isneB0Nnn+empq1r7/esGew865KdsABXjaapxP3M9lYmzUbd+80n3hgWvcE3YCU5FrFRNrP19ZsQ3Lakvs01k4mabdjzvzHPMeL9bYy3CJg5UcB6uDl3zsh87ESaQSUHl8Wmx7EeB94N8XmGkysdq7pY3kmiz1ItEisa60BGszUzxT9Yo/DnH8BVso5wDPPsoLfC8LbUqzIaHnSaxpgtLwaQo7jdeLQ11MsGyjht0oaTTgMZs9PX3e7bMNT3ttJouNT/usPmzLxWfsmWxympOJgSTKWxC7MDwkKnryz/joiNu6YYXNWHckibWIETGxFolW73grOJB87f1udO2nbHZQ7NOAvtX8HfA+9ulltqmDOimbeLRBY9uHlV9pxGf1V55BgDUGsFfbCqfRWvWx17L1uqbBrfrW6X6N2IUSqypXx4gHDgVCCJPWL3XIbrVN7Q75gcQ5bzuJkWD1b8ba0/Ye7LTNXmdt5jpj8Oz5OTdjRycmfDbznbfTn/ifPtXZDOZ/EJvxNaOPWmJds3yJu9NeubnpSjvJZOF6sV/I3wZt5h1XO/VjVz30FbvA/T0zp82XY11mYs0bv8ag4d1PWf3T7jXKQl/9rfJeVTrlKx9xrLNo5On32o8VY+DHRH1V2Pcvi+brQl/iVG8IBm+WbNDzlE7KzqO/DB76AFmICUvwGSuJaTUFQCjhNN5+xuvNkdcP7G2ar9aTKJaE8Ydl5AuWhJO2JdWq0TWxYnkqaUu8Fi9l2UXJChSJi4Uu7kGa8Y7YBcYGpvWrJt26lbZkU6DEGWuBYPWQtReJtUx3OSDp707HE9LL1NnvstR/2qo4HwaPjmHs00qdJhuyQPNLWXopV3WULZs6OlH7dlNHI7H6zmjbh9lZa70wiu8lnGV3WkDy+qGy4SPaLO3KphzWvi7FE07T6dPVTtK0jolVo9G/cK8TK+833k9+OxQ58JA/RAeOcgCTtxkOvCzoo/zED2qtvjAe8MXHa7uor+gbkk2cylacwmk6m8kO9dM+vm5th/p2Cqc2pelQnkZiVWYETB3QtsLow+Bq/0GA1W4NiMLww2/n8S2PbMZXefPIJg/6UYbiABNP2b4PPp39k75xKVjD0bdwWYnVvzfUYZ8Wum/IozTCkJV1DyqNekM4pals4oelZizhj/rZiZioLtUHXdStMHj8NnB5SkieLyvUhmz2zaOnWzxqk9oNmCWYWEkM1do5RO9XnB8ABKcbvvh688Qnr22+bL3g0EP/VB55SPPtiTNWPyL92S4rsaZ5p/dMGk8aPnSPqTyfznaavMsBr/FRf7sZmyxdOtaofe3A1MexSNuE25Hfrb60Vf1omlj9gLJzt4xuVU/Ibg2Awq3qYD9fF/GolZY3drAtD68vmz5RL+1QeQqTrnVMrBqN/oUHNbGG7lHFacR5f/O3oHykKf8gw2m/S/UZ/tHvTsVE7VDd1MsY+23ii9SU7/viy/bbRXR0g1f9aMDnzp1LnkzTuTRDSEfHZjBlNJTIFJm0btVZttI+2EI+wMT7OG2DTwto7Kd4hZWHstiHbeUvAvuyKRcy0mSDhzTCMbEWiXrveDWx1vDeoJW0e4DXmNbyWmub/YljzfsoTbbfT2WzL3nYpj3aDsG0wecnflBq+EYfYLPfVj9CcdDYk5fyyE98Vk1elacw+7Yim31Rq3/UCTzlKo/Sge/3or7BVm0r3HTGis5+QIBDUXwdc/FfVXIR210I9sGOUEmzXfnTeCCvmWzKURnEsT9q4pQP+LSiehVWfsoqKhsyYmLVSPYvrIm1yHusuCd4f9A7vU9CdPCl4SmDPKhVvi9b6aQBx5J2T5M+bLUf107HhPL1GvkxJQ/x5PXxpBetKadsuUXtKMJPm9GHdgMGnm2FY2JFdKQwgAyWkBaBoJN3EcEaSqMc5SUO/YgP9fHlou3zsb/yUj5pfh/l9eHa9MJ7rIfje6x+bPqpzcQ6YgdEVHIeEKH3g/qieIV9Ht5XiifMfmgrH/Ghe5A0ymBf4rWP8gwTrL7CL7bVx7LjAB16jVSXb4PyhWzz+zZrq4yQbPrKupm8btGz7KYfjGtSFz0gQh1WGA5qm8q65XgzPb5tGijt69tNPh+vfYrAKkdlJxdDlsyVllc+ZbMv+gGnsn2aygaNM9ba4a/arzweEKHx6Se4kVjXfNJOmVt7iWn+dWab9wg7AE8cYfKChzTyo1Y68cqndOKzZJOWJlt1qGziB6mmr/QD8SEMP7LiFfLT7x/iAY56la56FU+4LNm+T5Sfpj+vXsrpRK3xUpi6aLvauggOJVZloCDWPg3tQSi+3Wqz70MokMpfBM6SrReniMwivPRb7VC9vq9xxlokur3jDSVWXldYpdfbt1KvucLN+EjnPYW2r4fyaAvpbFOG9g3RlO9ygBmDrHgxDhp/4prVkB+SrbJCdJWrvIpXWPUo3ofJp34T9nn7qZ1lt8YnuBSsDL5TPg3tQSi+3b7N6gcvsOJ8/rxtX4bKVjivvKJ86jdtUb0KQ3YyYz1pRxrGpeCioe4qfyOx4qxg27yk1xmG8FqHjOI1V5rPrzwh2aRn9VP5Ec6OAOOZzVWn+tejWR/K5rViG/1UVojeTLZPh2zK8WlsU7/qJq2f65Dd6sMimDNWPyDK5DsLGor2oVLyksfnI73XdSv+5fWpVdkaQ9WVN1ZpetPwkKs0wNWFZ6y1mFjzhr0nfJVl9q3L1Xe7kdVP1D/VlVxM+4d79fATJexbiN+vDYBJWQRn9RGayIYUNBtlgaaqE7qHZx/la8gYeMC8agRmwdOKfdTbvgxTGRlvLP3qb893WWkK+3zN2hxTIEOL4gkrHXCreiGP+orIbtbHt69bbfWBMVFbFaZNwRkriazZkW0qohLgfR7y9kOtdvr2KI0wfdEbBP38ti8rq92O7Cy9amtIP/WSRn629VoCF2esjEyf1+P2ea4lG+wj0tttsJ5o5Enfah1Pg7k0YbBn616GC/XzZcd2WgQ0mEhodlr4slvso9/X2zXblnTyf3e+JNJ9PNr+bzrEkzVmkEYdKk/hkNxmOMpO4wvpBG+7etP0dQLv+0if6EdSc8baigEIBkpIsK+8Ffm97kP/1EfFlW0fZWvsGFvSytBJWSHZeMZata/bxBlrGZHuoAx84JwfnLaPnielMUuylsI0g+M9frYK+3S0F09wLvKTl3TqoTzSm9VqQzPeQafbOFlZ87CrrLzHkutNHfdGxw9fmU/jGODzldXutPyy7Mwjp4gvuWasaUr9ARp8iiOc1r9XeNrVLFA+H9tl2A1Zql9lA8+2wnn1+rL9flmy41KwH63YjhFoMwL2H5/KFR+tJ9dldzSE5f2dooOOFdrmb5lC/fGC/VRXqA/7+7X282l52tQf4m1XdkhmmTja7tvJ+CkdetkGnJpYfWFgRsnC1zku/ktFNOQipf8gtdG322/DeuIAa1+0/aJ0vx/bWTyUF+IlLavOkk2Zjf4z79a/xxqfsTZCEoEYgbYisJBYRzBrXX5nY+zg71J/gyFcO7rzyIZO8incTC/7gI92A/bxbDfjIZ38kNXtQt20RfWHaMApb4OnlaVgCKIAVQyYSkhn2+fr53bIP+I64U8nZftxpi7g6Yteq7gU7EcstmME2oyAN2PV32Ca5Dw8fl/8jvU3rTB42QbM3zzgThbVQ/2K66TusmUzvln2w8eETxMrO/oGkVnxxLFOoxGfJpv0fqvVL8AoDCjbZdkc0lWWbF9OSJf6FZeC/YjFdoxAmxFgYl2NGesdSYLjby5Nsv5O03h8vI6xCoMv1Pb7d6KtfrbiUydsyitTY0Y/8vqQuhScR7kqAYxCAwATB9gv5Mvi8ft0qq1+qI6QbSG7gQvxQlaWbJVFmPopT/GURRp5y6gp22Ep+LS9x3ooHmlYRlyjjBgB27Zdf8ZaILGWEbXQ2EG5jd/7AoJjivYhb6gGH/uArv3yyvb5Qno6jaPd9MVvU7+P1zZh8qJuJFYQKVwZfNgPhrZ9mH2pmPL9Nvl6Vft20z7ak2U348aafVqtQ7poT4gW0pPXFvUbctCOM9ZQRCMuRqCNCGQkVv83mEeL//vm+IC+OkYQBp59lJf8Pg74rEJZ5GGbckJ6wUs6+/VLTbuy7AaNfGl2K0/biVWVLBK8MIMFnQbRcLQJa/9ewb7dtFftIY/a3Qk/KN+XrW2FYWOztvqhMH0iLmnH120YjljHCJQTgQ4nVhiJMQBFf9McS4DnGEE+4MoqlA15CrNdlp5OygnZzfiRhjqrLIq9PmPN6qQ0VUj8IqEL2Z185Bm0OssnBrsMn1QP5fmx04vq09CnVXsu0R2XgnkJYh0jUE4EMhJrqwo4HqSNBZCrv+00uFX96JdmA/HgUb1o93PJGkPpE+OtbcLqW3DGmqVAOyscCqAaEYK1fz/Bvq0aONJgbwjfSuzUd8hXuUoD7OvXts+LttrTTHbSPybWUBgjLkag9Qh4iVUFZf0m9berfXxY+XTsyJLty8jTVj3KrzoVD7hsG3z57bR9f0Jt34csf5RWWmJt5iCUDkuhL3pDEddtH8vWW1t4jzWevNTtKxn1DW0EMhJrWT7rWFSWzLxyeqk7r41F+egTx1e288ppJNa8HcAHZVmKfDqNUx3sH6IpXzfhkN20E3Yo3YdDdqJvK/5lyfbtod4ydEFW/XusP4lHGjKwsY4RaDcCJSRW//fNcYDji9+GydqHdOB1fEG7leLLph2UpfqIK0MvZXW6Vv+gS/3J40cjsYY6+sHKciakjP1DsiGL9Cy5/ULz/dO2wp32S2OmF19h2OC3c8dxYcYaPxuXO2KRMUYgOwIlJFYo4Diq443C4OH4oLzaF7BffBlKpxzglI96gNexxucnHXW/lZDdvl+w2fdbfUzz6ZLEqoLZSQ0gLlQ3M4CyaRj5iQ/J7Ecc7aZtnbRfdSkM3drOa0OzaxlnrLyqsY4RKCkCTKw40lDOCm5Vuo6fkJHVJq1VXX4/yuN4k9b2+/VbG3bTB7XNx6t/hJU/DV6UWEOK0NFXlipMloghSw1R2SpP4TS5vcT7fsAWH6e+lW2r6lLYtyOvDc3iXU+s+LrNV+3CV8t2J8qLEbj8IrCQWP2zglsNhP8bRhuFY4C2Cbeqy+9HeVljkd+n39rwgbHybVP/QEtrg+bHgPzAV86dO5dcFVWUpRid8xRVqjD6qq40WWXYkCa7LDz9UFsJo0YhD3Wm4UlnzX4heZRBXtTgJ177kqa8WXBMrFnRibQYgRYiwBnrwslLeSXo75kw+vL3DRh4tpUHtHaLyoYsbStMGmodh9Duh+LbqjaBhkK702KZhldZCjdNrFlGqSDANC6EB06dYJsG+336va120y/YrHjfh7yxTIsj5VOf6iKOPL7uPG3Iq5+89HScseYJWOSJEcgTgRYSa56xgr/5tHEgj2lpPGmyqcu3j/xp8voZr7bTP9qrNOLy1JckVgqCAoVzCZM+yk9jVZ7CyjsoMH2CvfQFsOLR1gK+LDp5waMyiUetNJVFfsVpvzy60bc6/Xby2bi4FKzRi3CMQBsR6EBi5e8dVulvXvGtWqwyQrKB88cT7dOq3l72U/tDPhe1bdEzVnZm4NCmEipmm7xZNXnZl/LYVj2kheSBn7JC9LJx1EU7ffkhu8nbjKayivrly1ZZtJk43x6lK438rONSMCMR6xiBkiKQM7GGxgP+Vn1LQr9nnydvW/UqrP2Jpz3+WER7SNe+/QDTLtoJm+iT2kc+xSns+600hRfNWClUlStzXthXrm0fhkzVG3I2r95O8qndvh6fhnZZxZetcn09GjuNqfbxYe0DWkysfoRiO0agzQi0kFj5+4Vm/3eu1vD3S/6s8UL75YEpG7yE0/TQRtLzyO81D32if6h9P/x2Xps7klh95XqxfRi86mCo7cvrt7b6BNt4Mbphp+riTa32KD2PPTGx5olS5IkRKBCBHIlVf7uQzDbgtN+w8oCvzBKS7Y8rIZ4ybeikrDTbGWvS1ee89qBvcCkYAnyBVJhXOGWgppHsm0d2YlyJMz/qbqf27VZZSlNYeQCDhtKqf0VlU49eA9qQGOL9ExOrF5DYjBFoNwJNEit/m/7vUvGEfVPSxoM0PPtDHvX5MHlUBmHtQ75+rNUntU/jSJ9AT4O1bx6Y8hclVgYNAhoMgeSWRUNfNRJtLUpTfeRpJpt8va5922m32uXzKA38SvfbypsFU4b2Vxh9/bbK82kxsWp0IhwjUEIEUhKr/9tTTaShRuHvnDzEs12kpuw8faiH+tlGX+IAKx7tfiu0T22mjaSxjRp8xCusPISVj7jgUnCDGJhdhYSQP61uZhidbUV2ms5e4X1fYIfiCKt98DuEV54iMGQxlugXagNPHtUdEysiE0uMQIkRCCTWrN+8/7tku0SLFomi/EXjwEJCX8Q4oI2Qf+oK6cD5Y6XyFYFTE2soyFSqtDzK2I+87B9yiDTyDlpN+33f4AdwpKtfaXjlAYy+Ktens+3zUSf7apsw+8bEykjEuj8joBsD67O5/rRTrPISa+h3CO603y1o7APYL34/n96srbJ9WaE25GmfZvK7RYdNsNcvPp62p/mG/uTxZeVtNxIrOtCoNEOUhwpoAPsS79ekN5NNedqffRU3CDDsTvM3yye/T5avKkdjR93om8VD2eyLz8a50/FIQ8Yl1v0VgVplFDd0YlSlOm/1ACTXnIkVTvG3yt9j4ugCnjjygEYc+dJq8KX1U7z2V9ngURlK0z6DAKvt9CvL7jw87E/ZixIriRSEutOFuqCnG/o67U9IPv3ijcngq8+khfqXiWsW7zhjLTPaUVYrEai5EVcZW+7cxDr72+zc+AZrr3OjhqtWJkzkSF1szRJrddbV5s84d+GIq1045Nz5w642e9RVQOuXpCuJ1S27PRnnOAbo2ACn2AZMHsCdLNTj69axopP6y5IdGkNDOOjzfWa7iC1psiEjM7EmDB1Ornrx9MIWcbDfeUM+8kLSZ7/dKZ9CtqiumFg1GhHuXgTsP/Gjk86NrbFkutFV7M8tsb+JLa4ybu3xK9zI2ApLlWP2V0+sNoey70TMLCTWQ652/qBzs/jbb/BhS7bH7e+UudDjWW0gsSKuOjDz9w+8PyYA18ni62Zbx4pO6i9LtsaTMhXnw+BhrAHTb8B5ii9PZTUSqwZRYSpgJxUGGo0hnfxaqzyFlceHlS9Ltt+v39rqB2zL8iUUSz/e6p8vmzTFK6x0wNQHmHxxKRjRiKW7EbAUOTLu3ORWV1l5mxvFYfVLttvEdFluMxr3cm3OVapnXPXMs656+jlXO/2KzV7n7Gbv4ZeaJLFWlt+xyKeG3Yuw9QZ/kyShjZLVh7zkYx+2URNHOWwrD2AU0JSPcJ06eP9m2a++0nfUWX00AsrXSKzKoAoYdHYijXjtRxi8WXTykceXDXqIBnxe2eDtVoGt9AE6tZ0G0zb1kzBprMvymfJpq28b9NUP4f+xc0fiBRJLqAAAMHhJREFUZ+MY/1h3MAIjS2xWutqNrHnUvlV6s8GbbNa61lVGbPZqz1P9e5/3LizS+5kwEmgNiXTeZqo2g61Nv+dqJ39oJ4p9YLjZDjqSIXohsTr8h2FhKRjc6pv65UvS36lPS2urbPBoW+EQLU1mP+NDPtFe3hvKAxjFj63fpgytVQ7xPq5QYqWBEOYLooIiNeX5srQNGCWNt4i+TvFmXQylKay2EI+6k4XyNb7Qp+2YWDt5BaLsRRGwZ6iVyatcZcWt9neXzVK32Sx16SIW//cPoo/T+5f05F7HMvHcCVc78zP7e97Vpl6vJ9duz15lxpr2jJV2oy675IkXdHIcKlt/N+SF7gHqVb90DARdaeRvVvu6fP6Ezu+xKlGV+bDyNVOgvIRVHnGogdcC2Sg+HrhW9KJfrwp9oE+wQ+NAWPkIt2szZascX7baFZeCNVIR7kwE7BmpLf1WVtlGntUP2mz1iUuSperl/an3LccApSm8qD8S7GlbGj72Deem91pynTFyF5+7NkmsancIVl+KwipP+xIPnI4RCiu/z+fT+qFNn3ifaLsI3I4vDT2hxKqCQ4FWwwlrn7xwSLb2VdkwWNvKRzgPD3m7UYf8ow+0lRcC9pAGOIRnH9BbKSF7fDkxsfoRie3SIzBqO35X3GAJ9aM2U73Ddvyuatzv/m9A79k0GPYp7VJ7bZOTbWSq4ZOIR/7CuZn3Lbmev5StUxhJrHjG6v+2td2uCWljRJaOtNil4du1sZ3+af75Mumv74Pf9vvlaasN1IN+Kju4FNxMOAQ0K6q8GW9eOvV2QnZeGzrNRx+hpxd+IrHWTsVnrJ2+zpetfNvZ65bucCPrPpE8U012/y4EQwcpoPhb8PEtxc6eu9bmTtm9/QP7e8a5qbdaEtNSJ0msWAruVtHxo5QYdsvwnHrUv1CXbvkc0tNIrLiJlUHbPpzmBH8IoDdzmjKyZPv2sE9e2eTvh1r9hD1ZbY1jmu2txiCklzogs/66zU/i5iUGJdYlRsD+Q758py3/3meJ9TO2N8lmrl4J/eZ9nLbRXe9phX2aZVabuR62JeFvOnf8u91bEl5IrNy8RJfVVoUvsZsdpGYM0C+tgId0hclPGWyjLmqH9u027PtEf9Rn+kTb2Ie8xPt+E8+a/JRNPGuf3kisZEDtK9G2wuRlXxqNtsKkF63VCZXnw5Sr/MT1svZjlWaLz6dthdEf7U6VRNfMO8mMtXY47gruVJwvT7n2H3fb5Tuy4dNuZP1nbefveruXx5JQ4PfMwvubOL3/FQa/z0sZWXXFVV315Pdc7fi3bTPTLhuoLmSxl0PzEqvvRytKQvGBHJXN+ADfbMykPPAOUqHdvt/Ewxelteob5fmyQu1EZ9FnrCqIMOoyCuUlhi3MoFW2OleGvn6UoTFgHDplp68LeuJScKeifZnLHbETk5ZfX18CXvWAjXa2eckSDgp/136E9P5UGHx+2++b2Z7dXd/MdPjrNmudymQthShLwZ1+xgp7GU/EKKudEIf0n6wYkFaW65Sn92RwxqoKlRl4bfuw9ssDa/88stWBPPL7ncf3348B253yI6Q/LgV3KtqXudyxla5iM9XKqo/YKzbXJMHA/YeC37XCCdL+4f2ZRfN52c6sq9Oudu4NV933h/au6zEzAMcfdrD0MLFyzIR3oTh20Oueiqbfvs+8p2ic3ya+SK26GnCzGSsVqIFpMHhJA9xQUmBGy/7oC5gyII9F8eQHjX3I12+12p1lW5pP9E9j4vNCLnHkYzukEzTygR4TayhKEddeBOwem1jvRq78525k+Q12+IMdCmGF953egwpTJ+9f8hPfTl2bfd9V9/+BvX5jO4TnzrUjqnlfbym4eYc6B/2l/6F+4FG6thVGX5VHOCSzn3Hqk/oQioHSi/qkerQv8Sqbuhfh8iRWdNROqohCFQeYBvh4v91MNvWqHuIgS/G+7H5vp/muPqmvWf6WFe94QES/3zUDaB8O1MdO4C3/2Gar2+03a1+oseLf28Dpb0Jh0LSk0dLw2jeBzx9y1eNftSXhF+z1mwOXkEtFZMxY29HD+MFnFh0HFAad/ORFnTte2qlPYfXPj0m7JodkE0ddbENX06XgZgZRqM8HJWk05QWPGpRFozzys619hgGmX/RTfSJNcYDLincV7/qdiruC/fjGdhsRWLLFuVV3uNH1v1L/Us1CIki7v0N4Xzt+B3n4/H5sJycynf6Jq534fudfvelAYlXfdUwgXuNDOmmMwbDV6l+WzxqbvDEIyUZf4FUXZRdOrOwIoQqjrYXKiKNhPp50v25VtjoKmUX1+naU3ab/tEvlh2gaB4XRT9vsS3l+HIhvVsel4GYRivTCEVhxk6use8KNrLzfvmCzqtGd96zeq6HfBTvo/U5cqFZ5Pp202vxZOxf7DXutzE5jOvOiz1ZuO+dSMG0LKVeawspLPGoUP14ab+3XzzB9Uhvpn+IU9v3OS1M+1asweWiD6loE51kKpjDU2tlvg9ZO8WWrLF+2OqZ8gwg385u+wjc/DmX7GxNr2RGN8io2W62s/7QdCHGrHWVoB0QsFN7Len+TVlYN2dSzSKZtYKrOfuBqh77snH0Fp6MlZ2JVG1LtViaDlY8wahR/XGEcSE+YBugftZu+hMxvFodQn7y4vLILz1h9A+igOk0epREmraw6TS7tSaOXpb/bcugP/aN+4tlOq3ljpNKT91jjUnBafCK+eAQqqz/iRjZ9wb5cs8MS6+JD9otLK9aDv5NLfh+186564airHfwz504+XUxoUe4WEyvUqN30paj6YeGn/92IiY6T1Fskjn2dWBHANKcYXD8Afh/yFQlKL3h9u9UGpSmsPIDpaygm5FUacVrHGatGI8JlRKCy5mE3svlL9nzVPlxesfdZM0rW/Z3RrUEK3d/AoVB28juxU5iqc6dd7cC/tcT6g0b/jgBNEqvap/rVF/IoHTB9yov3+fq1TX+TayVGdjImvmzq9m1hm2b5fMAXSqxpFzERlLEMrAaD128Dl1VUL2F1hjBk0GnFUXYWjTz9UKvttFntUjrxGlOFQffb7BOixcSq0YlwKRFY+4SrbP5tN2KH7duJ+4v+A1iG/CL3d0NfHyTWluxecAB9UTAWEE5rJ4z2j/IR10817QuNb7ATdPXX52P/Vnyi7Dx9VY/ag760qVBi9ZVSiK8IfCEc8ezny2ulneZYK7L6vQ/jprEN2dxOTGp47nTaDik/9B/tIlZD4iMuRqBQBCprH7PE+luWU9cmibVQ5zaY8Tvhb0bFJL8fWwp2F47YM9Y/tw+h20cnOlmazFh91SG7+ZunP2yjr/979+UNQzsrJp3wj/FlvKFDcYTTdPdtYs17s/h8Gog0pwcVT9+aXtTA/2Lz+lybO55s5qjt/7/tTprL2y3yxQikRqCy5iFX2fQlWwXeZFkgeyk4TQjued7/aTyK52/E70O8bQm2U5d2W2L9K/uP5M+0a/lwgcRK+1LtNutAIx+M9dvlO9BbifQ1Kya+he3GhDoh15flt33dSZ+iu4JDQhJBCxdbnadxivP7gyeLrvzKR9nUjdqXFeKhPNJUJmn9XtPmNH+VDl/YBky/fTxpOKS8dvZ5V33/X7hKFQeU15ecQI8lRqClCNjmpcqGL7qRyaubbl7y7+ki+kL3tuIgC7+FBGev29SmX3W1o39tr9u8XERNcd4miVVt5G9VcYvsXvCBRihfw7cFHqWRf1Bqtb2dmBTx19fJdki/4hSmvrZmrBSitSpRGDzaJqx9i8DoT8fZj7h2ZVPeoNX0X+0mLn9M7NNxU6+42v7/3f5Hf9K5ahc/CK2GR3h4IrDyTkusn7UNwTfbe6x2ClMLBb91vYe1rXAz0Y0xw1Zmaqe/bwdE2I7gc+8169YevZFYH7ITqG5v+NHMbtrK3zCNYBzYn3ykD1pNP2C3wiE/6KsfkxBvOzjqgQzVpXCW/NITqyrTG4AGoqbRpGufIrDvpLbblV3Ejn7mbSUmtem3XO3wn9qAs8fOUT3Tz+5F2wYhAstvtAMiHnOVlQ/Yc9Y1LVnsD7jaVriZcI497vwBm63+J1udec252SPNurVH70BipR/6+27PyN711uuncMgi+h2ilYlTPRpjhbP0lZpYfaVopxUarjxZQfVlU67iFVY6YF92SD/7DEod8he2K15h+gUcSigmCb8dUF47YUtkOEd19jC7xTpGoLUITG6xr9rYrHXdF+wRq71ys1BCv0H/niRvs5qywOff83q/1+XY442Z3fZ1m39p9/dB+3Rch1dlGon1YTsk4/ZFrhSx+1I/6qJ8fxcpGMBGs5j4dLioOLTTYgI+xlH7EUc5bCsPYJQ02XVq/d+2E6sqSYOpkMaGjCdPnlr1KL/iQ7ryBJX9VG4/wb6PGkvCaq/PDxr5SFOfE9oFS6ZTP3W1Y39nX/+wWWssMQLtRMAO4a8s2+EqW/6Jqyy58hJJuOf8e5DtEI0CsnhA432u/Alu/pQ97rDnq/v/2FZk7HFHp3e/NxJr9lIwfaXd9A/2k0aYPg1SrT7QD/UxhGMfxoT+8vqyfxof+UOySaNsyvJ588imLNZtJ1YK8ms6HsL7uLLaqpNBYlCow28TP6w1Y8J4wE8/BtoG7Kr28efze+1Umj+3BPsKOgxreKJf3YgAvmazZKMb2fr79ozxelcZXbZIa3LPGYb36CX3o9DQsQg/edGPpXbO7ulTP3K14z+0e912B3e6JIn1Y86tftj8/9CiGY/6DDNC7ZAPnTa5E/LpB330dfj0tLbfr4w2dNEu6m1HbkcSKwxU47RN42m0OkRckdqXrXohx9cHXLs6IaOfSygmjEPId41Zwof/weMFenyv8vSztlQ208/uRtsGIQJ2OERl4xedW3F3Mmvl/UjTL7kHSbCaNO3D+1hpCkv3Rn+TZIl01h5zfMu5Y990tfP2almnP3IOQ5BY13/KEqvNWCdvviSxNre7Po6RT30bNJg+6LWkD0pTmHTUxCuuKEwZvg3EQx5obCvs60qjlZZYUxUsGAg6ihpLI9Nw7EO+InXIHsqDPsJFZPY7L31iPNXeLBr5yIMBKJFx7C/tE3L28vy53WSJdYxAaxEYGXfOloNHrvisq6x+rDEOQBjuO96zF+/B+ljh05SPsC8j1cCaJVV80eb4d+xQCPsPY5JUu7Aag8S68Qv26TzbvDW5s+Frbru9GKX6N2AEXD9e78LXskBMVI+GiDqL2KD3o8ry4dISqy9Y22qMOkFYecuEQ3op3w+q4jttF3X1ok6LCeNBmxK+qeeTc1Rrx79PdKxjBFqLgCUXN7rUjaz7qG1i+oSdG2zfaLXjDbWE7kHQfbz2yQ1XZ1zN9g7Ujtts9exLtnlpf+6ubTPaUjiOdHSr7jO/NyXi9HfYtvw+FoBrV2Q8TbvWZcVL7aEutY+4dkPakcTqB0HbdIIOsJ3liAbD51PZoGnbh7Uv9bMPaVm6yNPvtfpN/+iv0gBrIU+jz9wxS6w/tNNp/oONbnYKU6c3eagxER7KCFRW3uIqax50Dq/e4NusGcmV9+cl96UN1lr8e/oSfjvopHZ+X5JQq8e+5SrnbXNeN5aAaSQS67Z/Yj7fa/+5WLko0cDWvH42xMkMn7h+rdU/2MhrQ59DdmsfhbW/30/vAZ+mbZWnMHmA80te2dqvtMSaV7nPp22FYSTa7RSVp7AvWwOsMPgY6HZtacePMvv6cVDZ6mMSBywJn3nW3mn9d/Zagj2PiodFaLgi3EoERuxIw6VX29KoHXG49DrLq6sbvzGI4z2ov7sQHOINm2P38NwJ26xk/0E8+jU7H9jey+72UZ1IrNv/e3uP925XW/gIAX3K60fW7zbsd/9g6av6oDBjQD62USsObS2+DKUBZl/lA8wCOtvKq3TCRevSEmsexSEn6BD6k55HVjMeyPJls01amfqa2dMPdPpNW7StMOiN9ux79pzVPqt1wp61XrAZbCwxAm1FwAa2MfvY+TJLqmsec5UV9l7naPjQiMY9aPoUhvpm7cRE291em91vJyzZ89QpO7Zwepf953DeSJfOShL+TvyD/0iM28atrf/MueW3md22JG7FH4s6obrfZWoMOh2TVnT591iReA5tYvWDoEHyYZ93GNrqY5o/yqMw+Btte+fPze62Wev/Vz/6zXZVxhIj0FYE8J9ezNxW3ZvM4irLrrfks942zy5tJBzI5z2IGoWDI2DSAKNcbFvSxDKvPcaozeyx91XtZKUzP7fXxw5ZUrXHGd0u46stoe60XcFfsh3B9p8Jz5eLdnfbsN7r4/VsFpMyYqS6CCMCZcgORbJjiTWvwQwqjIPDbKfBdILBIT/xfk16SB5loA/5ABPv47QNvkEt9IMxUX8Jq2+V2oyrHvn39urNL2zTh51UE0uMQAkRqGG37BI7lWntg5Zg7VWUJdtcxY3YfPLich3U6P2arhazUCRVS57z52yW+rT9PWOPMl71pKVL6AhlcrurXPGovWZkz5XHN3dERb8J5bgCu3Q84XUkHm2lh/zIw+P3U/2qy4fZRk09tNG3i3Tw5ikdS6xZytVIOgJ+dUbxWbKyaKrH50uTX7YNvt5et5vFhP5rfGr4ys2MnR984u/s7/uuEjcx9foyDol+S6AjSyzh2FLwpCXVpdfaCU03GrxzYZPP6KIxQZ1edB/bDLW2sLLipt+xWeo79Rkqnq3OndVu3YdX2IEQW37HfNxqm7WWJ/r5G+u+Mb3XqL4vGmNK2DSUJZu6wEMY0dA+aJPm40ErUnqSWNVAOgIcnVGc8haFIYcy/b5pOsifRvflDFq7WUx8/+ttmwlUz9mMFafV2OsKMwesbck2lhiBsiIwOuncxAZ7z3OHzVy3WyJaa4nInsVaMqoh+SabfhZez8FSr72Tmhz2YLPT5EMRFyyJ2s7f2uwHtgS8zz55iGVfzGJ7WMZW2is2tty95XdtwDb/bBMTf189tKqnqtV/jrE+TttFjNV+lI3+ikc7iwZ6GaWjiZUO+I7RcNCVRn7SfRrbPh/5s2rVpbDfx5cNncQpjH7t2OPr7XU7KyawLYmBzVqdLbFVcRTc3GkLgJ3QFEuMQMkRqGEX7bi9ljJhz11tqbhmr+XU7BjESsUSLBZ27dFEBef92peXanh1Ztaen85Zgu2r+9HsXGHHN9ppS5V1TzbGCj9UzX53Pn8/tv1xETZybPTt5VjajCetv8pTvQqThzI0xgqDT9sKU0ardUcTa8ioLON9GtplFV+2yvX16AVRviw4dGGz+PuBlhUT2OfTKzhXdXaPqx7+M9thudsGMztTOJYYgdIjYL977J7FaU0V/I2aBmsv7KitJ1DMWvFnKyeYnSZJtccz1EYcbMKA/xzYEY6V1Y/YTHxbgwLA/10tIg5gQ8c+jp30M80d9iF/mTHJku3r8dtp9hbFdz2xFjEQTqMw+NpXaYSVXhYckk17QrSy9PatnHmbqZ59zl7BedpeYXi985/c6ttARMNiBFIigGepy3bYTPVzNmu9wzIpZtrDWZjE6B3HRrQxPmqbPGXVqruTelqxtyeJNSvgTFYMWlrAfL6izhexAbJD9tCGorr7lb9ZTOrXwpZ/MXM9ifNWv28z170WHJs5xBIjECNg2cRm19jpfMXH7TWbu222apuWOpxgehV2js3+OKh4wr6NaTFJw/v90YZs6qaeUDvEF5JHXBEb2Meve5JY1QgGgjgNkMKk+7UGDTS/TfmU5fdnEJUvBIdkqyzKZ1+lDSpMX+jbRT9sye38AVc7+4vk/dYKNpD01fOti5ZGKEagqxGwZ8Nuxa1uZPPv2nNhHHyx+DzkrtrSAWUcCzg2+CpABy2NT/GEfRlpbcpOoyuesmkn2+AhDrDi0S6r9DyxpjlC59VxxRHW/uAN4ZUHMHlUts9DPuVhP9BUl8IhOUOJw0ER+GarfdcyeQE/OdS8X55xDWXEo1P9HAE8thq1JV87D7iC764utxOlKnbq0hAVjoU6Dqp7oXGQfZSPMORk0clXpKa8VmS30ifNtphY0yJjeD/QaLP4F1Bp5BnGelFM8ArOeTsyDu+3nn3RDje33Zn2n5tYYgQurwggqS61ZIpjGj9qM9Z7bK+VvV7T26MpWr4EGNtC41kaHop0PFTFxCuO8KKxhMg2atVF+4nz2yE1ZdrTk8Sa5kAzPIODoPgBCwWqCC4kG/3Vpiwe6irbLsrtp9qPSW3aDo/ASTdHv2nvD+J5a0yu/XS9oi0djsDImKst2eRGNv0D+8DA9QuHW5Q/G+uwF4XFc6xDR46NiiOeOPIATxxgFtJDNPKgJp38SiNdaeD3236fsts9SazqBBxmoID32z4v2hoo9mXglKZ9i8AhG4ijniLyhp7XDjt3eDF/yr5zedKWhmft2MO4oWnoL3t00G5zS6qVZTc5t+ZhV1l+lz1Steeq3qfwhiFOOq4qHPJNx2TCIb52cZTNMVnbhEM6OJaHaGXh+i6x5nUsFEz0ZUBJzyuvGZ9ejLJlN9M9EHTsFJ47YjuFf7DwIek9tns4zl4H4tpFI4tHIHnP1p6pLrvBnqveY2cd2/Lv2LqhTKoIDsZVjnsKhwLHMThEKxOnevzxWWll6swrq+eJNc1QDRR4Qu20vgwqbwTwAadt7evLJk3xCisdsC87pJ99Br0OxeGiT7YEfOHIwtGHf2OwfRknOfowLg1fjFGEBj4CSKp2EpRbstG+WvOrllxvsfaqgXeriAMc49DHHxNCbfBpn1A/4FCajaeUAz0sxKFNPHG+PezTybqvEqsfAG2nwQwO6CgaTNKK1KpH+yk+pAt6iUc/tUNhyvT5iR/4GifhILnac9fkXdfpD2wm2+OD0Ac+qNGBvorAxBpb9v2Qc2vtXdWJ7ckz1frpUH1lZUvG+OMSxy4I4/gW4tHxkYqJ8/upTPKy9mUrHjBlAVZeHwa9l6WvEmu7gdCgtyvL78+bJIQnzr9h1B7SFMd+Q1cjueKEpqlX7Buur7raubft4P799kvAweixxAgMaASw89c2KVWW31p/nWaZJVd8yBzHLQ5JCY1TilMYLqe1OxEO6uqE7LJlDlxiZYLTBMWAKw6BAt7HtRpA6tX+vmzaAR6fBlyZ9kBe/xdbAp5+w95z/ZmrnnneXsc5Wj+1KR4m0f+XLlq4EAFbCUuWflfUT1Radbs9T73P1TBTdTjDePgKxzGOYdpOgzUK5FFcUZgyaAP7E482aGwr3IxGWZ2sByKx+kFj4FAjsAy+BplBS8OxD/mK1CF7tL/KVvuUR/EKK89QwLXzthR80masu+0wib+zjU2vWtvef40lRmAQIoAjCseX2+ff7k8Sqpu8xiao9nwVHwcY4JI15oCGouOcwj4tYW7znzR71BaoSGuret/WvDTlaxceiMSa5aQGETBK2kXKklOUFtJLGbz4aNMmwN2wC3r6rmAJeN6es87YR6jP2cH9U5ZcZw9YgsXXceLGpr67XtEgi4CNJRO2y3fyKldZYaco4f1UfKVm1I4sHNCDH9Iuqz8ucfzi2OW3IYe4NJnt4NUe6qEtId2kkRc8wGm7HXta6TtwidUPmLb9ALOdFRi9iD6fys6i+Xr0giotS5cvfyjbSLAX6mcMuynb3DS719rHbHnYjkeMy8NDeckHzinMRLHjd/wKS6Y77FnqzW7ETlKq4aPrQ/QsVa+LPy5x/OLY5bfRV/uQDnzWmAl6nuLLph3s6+tLwysfebpVL0qsNMR3pFvGpOnJe7HIp/arT4ShR3nS9LaKV9nQybYPUz7oSiN+2OpkQcHiUcPhEXP2vBWH+J98qr6xaX5m2NyN/gxYBJK1k/G19vrMTldZ+zFXmdxpSRYHPmBzUn01bMBcSjWXY6GOTWDmWOTDaW3gKQuwX1SeT0ObfZWPNpHOtvJSFnFs90u9KLH2i1Gt2KHBV5iyiGO7zBqyeYEVhg5tqw3K79sCmvL69KFo12yWOnfCZq22W3jmXTu16TXb6PSuLRnbQRNx9joUl3hgnLCdvZXxVa6Gg/OX2oEPS7bb+fmbLKnaLHXAn6VmXYPQGKRjD+mQwfGIOB3XsnQUoals9Au1fb1+u4i+TvIOZWJFwPyAo92poroU9u2gDf4N49sFOnl92tC1MXu15WE3/aY9f32zfhzihcOWdO1wiXnb+BRLjEAnIoBNSVzytSRamdxqM9XbLKleXT+WsBM6+0ymPw6ltWE2xyPlIVyWW5TXbAwlX1l6OyGnMjU1layAMHBQAsO13QnF7cj0A58mS31QnwjzAikfZKXh0/QArzYprH0UT51FdNFulTlUcNU2OE2/5mpnnrMNTvaazqw9f0XiTc4dTm7ToXI3OtPtCNh/rrGsa0m1NrrcVZbaZqQV9jHy5be5ypJrum1MR/RljRE61oRgGuSPTcSXWft2alth6PRtTbMvDV+m3XllBRNr3s79wOcHE229ELSROLTZhzSt/YuqNIVVj+IBK011hWwgjnx59fs6h6KNBIoD/XG4xHk7d3j2fUuwL9lS8R5r27JxLDECrUYA48LIEkumtssXh+ZPYpfvRpu1rq4v+Y7Y4Q9DVtLGkjQ83eeYhDbHJcCKR7uVojJ82Wz79mkf6FS+VmzoRp8ksdLQbigsWwdt94MPPSEacSE7KCOLJ9TPx6E/ZYHmt4lDTT7laVc/5A58qc7YQU3HLam+ZzPXD+zPlovP21dzsIt47szCLHbgvYwOdDIC+MrMmCXM8fX2Z0l0YrMt+W6pL/eO29IvloKHeKcvQhsaSzDmhPC8FByT2NaxibhWa5VNGxSncpvRlbff4EXPWOkgA0nHYLTS+sEJ2ka7fJvoA/HkZ1v7KW+Iz8dRRqhWWWl04EP6qcen+XJIV13s6/MORRuz2AuWVKdetOew71iy3WezWsPhNZ2qPYeNRyUOxWVu2wnso8Cz04odM2izUze20pKpvTZjX6CpLL3Zkup1yax1mJMpxwGMEYQRV79NXFbMdXzJ4suiqV6F2Qc4FNWlMGmo2Z99gOvXMvBLwRpY/4Jk0cDbjaJ69IZQWwmHeEO0btjdXzqq9quy84dtFpvsGp7HSU5v1zc7Te+yJeMjrpI8h+0vq6M1XY7AqCVTO9RhZOm1rmaJ1GEjEt5HrRh+ZNL+hutc3yLRZVJCn6xxyKerDo5FimsVpj20RWUrDPloo5A3afT5P43ECjvVAcLAMwiAh6XQv9DFUhrhXvituofxGrQWU/sfLo5JvGDvwdru4Zo9i02Wh8/bUvGFQ3U8TnRKPlfXmobYaxAiYIPtmCXLsdX2Rowlz3F7PWZ8gyVWLPuijeen9g7qZfTs1L9qobHN58EYk4fP75e3reNWJ/XktadbfI2lYD8AgzqoZ90o9Im+pl1on6/oxWhmQ0iv34c2UDf7EO/7QDz4SWPfoa6xDIyl4ll7Fjtjs9cZO83pPJ7D2g7j6jn7s/dikyVjm/HG4xMH9FbAEq/t5sWMM5l52rPR5FUZS6r2TVS35EpLqDvsb7PhbTPSkBf/961jQwj2w6FjjcJZfD4tq632+TD6cayirZSVhidd6yy7la/bMP0NJlYYQ6fprBqYRVO+XsO+7Wq3wml2gkdl+O20fj6eMqgzRFca+clHmo8nvVndqt3N5PYPHbNYvpZjNc4lPm/PYW25uIpDJ/BNWEu2lfgstn8uWQFLanhuOrasnkRxCL4d4lDBQQ74uDiep4KOL80M4QlJecLkjw9+25dBOvEYV4hTmPQiNeTkHadUJ3SwDVhlKB60fiu0T21uLAX7AVWmfnOkXXvoGwMCeVk40MFLHrTbLZDl6/fb0JGml7y0KY2vXTsHsj9nsfOnbF/TaVeZP5McOJEsG8/Z81jsLLa/GnYXJ5uf7BluLL2PgCXGmu3krYzbrHN8ndW2rDu23tWwtGvLuhV8DxUbkjArtSXg+qlIOG4wFkZAxwWFfTraOnaQXnadZYM/BubR3UqfPHLL5lmUWCE8FIiylfZaXuiGysIxLuQpw37/BqFsxh86yEMa9fo8wAPn85E/1pY48frOBSRVO9XJajyjreF0JywZJzuMbdl4nkvHCzuN49GKHbh1uKxrh91j526ytGsJE89CsbyLYwTHLYkmz0ntmSmelVpydXagg/0iOmDPYInU37nC9EJxgFk4lmibsPIRV1atskM2KD2PTl9Gnj694LkkscIIOKuDtDqvePKi9vHA9aKkBb4ZXu2nv4rzfSEP8Fl8fj9tq00qw5et7Sx95FNZqi/CiyNQcZZw7VuxNSwbz+6pH0gxa3Ayo8UGKEuwyXPZhQGqMVBdHLAWS4ytixFgEkQiBbbeTpZ1bfcuZqXJ81E8F8U7pRP4s3dMxyyRxrIoAvhdp/2mfZo/BrANgZShuEWKFniy6MqvfJQNuo9nuxkP6eRXXYMC0/ZFz1hpPBwEAx0lftBq+kG7/TbxqOmr+t0IksUDRWkJokP/qJ1qF9QpjW3UtI02Kw1wLKEI4NksNj/ZazzJJqeFjU7YdYyv7dgScnJIhR1UUZm3wyrsowFYWsYstzY3Y89ssYQck+zFyNq4Yb+Vyqjt1sXsc8xmmfYctIJl2zHboTuGJd11rmbLuRUcbp/MWG3WmrwOszB7xTPTWFIj4P/OQ+OBPwZoG4L9PqnKSiCobtWrcAlqeiKC1yKkPJmx+k5qG/CgFvWjiA/0mTdFWruIzCK8andIN+3yZYZ4fZ7YzhmBJOFO256oU5ZU8UEAS6jJs1pLqvgCDxJv8h1Z1PZXW2gnSZoHV9hO5EQONlYNahK233+yI9dOMUqSoSXEpMamIcBczsV7oljSRVJdwFlyrWAJF8u7+EA4Xn9BPWJJN5a2IsAxIPSbJ60tBSV1Vlv8cU1pJanrGzGLloLpqAaAluoFJAya9iHvoNW+v+qf70vIX+C0j9/2ZaCtOhUO8RJHPl+X0gn7dR67/T6xnRUBPLe1Z7K2lOzmT9T/ACfPbeubpurPbO3Z7vysq+C92mTnMma4TLKYMaPt/aHZwBEGKiEAkVJAl/8IN/5TLLgGHQkTePlL2tgMtIBDGwfWj4xbZcu3SZJkoqzXNcxIkTDxTHTMvmWavO4SNxSlXKBL0P5Ykfd36vNpm/AlypogOL40YUvI0NFsHMrigRDVp3Ae/f3Io/42Eqsaqk4yeLxYIZr2BawKfFqv2mo3bNB2GkxbQUfx/fJjQj72Y618xKXVagt4stpKU5iygUPx7SY9Dw08lKP9ImxJLJmFYjZqy8lJ0rTaoS1/SJDgS3C2xIx3bpM/bpTizBc0JF/vz3C1BAcZkpBNbv3qmsoFvH1C3hojdr0sGeIVlOT1k3pdAYyzc+2v5qzGgfQ220wOpjcYNWafFcw6K5h9YuYJGHjMTNEfCXNBbvKKC3DWhrxENmgGx3LJby40Bvi/S20rjHBq24c13DoOKAwev6390mDVRR4fxzZqFB0vSAOeMPmAG8RCP2g7/VG/CyVW7RgSRkXDWPOmZAxC/vsB74c40F7aErIxhCN/rMuKgCZXWyrGc9zkb2G5eFEyZqKuJ+hakqwxaCFJLwxeSRKlbQu0pIl0i2edSIIGW13BQfOcjTYS4kKStaRZSZIikidwC0u9qG2mWk+USJ6xdDIC/njCdlGdHKeK9muVn3ZynGG7VXnD0A8xaCRWvSBZsDqeCFiYFSl+UGH1Gz5omzBqlDTf0/BJpxb/oW52VxuIQ008YNiBoji0Q/al8YI/lhiBGIHORiDt90c8tOsYoHAzWictp32hMYZ61VaFSWedRSPPINSNmJw7dy4ZgYnwjQ85DBwK+hD2+w1Ku5l/vh/qr8aM+HZiojJ8vdpO41M84JB9kOPj2WZ/1ZUGt9InTVbExwgMagTy/g6UD3Dot0YexEJ/v+RVOuOlfMSxzqKl2cC+rKnTl0WbwEce9tHa76e0QYU1duq7xiQ4Y/Ud1uBoZ+VTZcD7beUdFFj9VpsZAwaVbeUJwd2KidpN21R3v9odilnExQgMSgT0N5bXZu0T+l0SR3n6e1acz0danlptyMMPHu1D3bSNdF+Wjks+bRjaGpPUxKpB8OFQEFQo6H471Kffceo3bNW2D4d88WPgt0N9QjjVFaL7OOUHjALdKCFaQpB/fDv9trBGMEYgRmAhAvobA8pvhwKlvy2FyUsZbPu/Z+LbqX291Eldvmyf7rfBT5z21bFH8YMA05+8MWkkVnXOD4C2FUYfVQTlbCussvsN9v1Js8/n07bC6I82i8ZBYdDRRlH+BNHkH/KzP9lDeOCUT9sKQwb7A1ZbFfZpaMcSI3C5RoC/Lf52tB2CESf93bEf8Po7Y1/yk46604W61U7oDLWBJz9gLfQtja68/Q7Th1AMSIMP9PmSxJqnIwWRl8L6PTit2Ecfta+P0zZh1K0WxDdPf+qCHoXZpn7/ehGvfQijbrXktbtV+bFfjEAvI9DO/a2/QfiQp83fZF6fi/LnkZtlJ2l55AwTD/3mWKntBjw1NVWfNuX0XC+eD+cUMXRsfhwawW0xSaE/L1pWsNL0so/SidNa6T6sfHnhvHbnlRf5YgSGJQL+mKBtwvDV/x0qrRexoH7YhaJtwsCr3WgPc6HfWTG5ZMaaFhAVkgajL2mAfQOIUx7gBrXQD/gJWP0lDN/IB5h4H6dt8BUtqr9ZX+pqx+6QHyG9eflCfSMuRqBbEeBvgfqy7lulhWDI4G8MsMomP/AsPi/wzX7P7BOSR7lZdZpNlIu+aTy+XLVVYZ+v39u+vxoL2M5Y5/ExV2LNEuQrZ/BoBNppPOQdxLpTMdGL205c0uzTa6HXCLqUprqVjzzEqR7StG+EYwSGNQLNfqv8jcB//W0Qz98OacT78SIf5aTx+f1abat82gZZxOe1R/lataVf+tF32BOKCe0kLVdiZadWaipqpe+w9kmLCS5eGq0fYqG26Y0G25TWD7ZGG2IEOh0B/b36v4dO6y4qX23Vvv1ut9raLZgx4ZjGdhH9hRMrlFGRwr5SGkW830fpSiP/INUaB4V9H9Rn0NRvwEpXmi8nrZ2lG318urYV9uWDpkVtVRg8WXYrTWGVHeEYgU5GQO9XhVWn4hUGj99mP+D9or8bpetvTWH0Zx/q0X6+/Kw2+5PHbwOfJps2NONJ60+d/V43iwnj4POl+a3Xsq3EisAtEhYYgMnT70Fuxz6NAf1l8HlxKF/xCpPOWmmAfTnka1b7tim/T9O2r09tUFjlAS7Lbl9ubMcI9EME9N7nvQ67/N+L2so+5NffmfKpHPL69FbbtAH9VXZZdrdqV7/00/hk2UQ+xjDtWjYSKztkCQ3ReGGoKMQDnPIRBr5VvejbryUt2L695PPjQb4QXnHka1ZTTzt8IRlqC6+/4qCvrOtblpxmMYj0yycCee8p3tuIjP4O0mA/gsrn07rRpp/qB/Vm2ZZFY/9hqhkn+BSKFfB5Y1JKYs0ygkbCIB8OtROmAf8nK/ihOPCCahzJx1CQ5uNJz6qz7NF+WXzUSzvYz+9DPtLJTzza7EMceH0+9mfNfmzHOkYgbwTS7h0fr/dgCIY+3rtZsG+X9lFaGl558sBqa4iffipfCPb7ptmXhvf792ub8fDtUzzj4/OEfA/i0t5jpWB0QmFNfJZCKtI+hNGPMhRHeVk08vRLTftps28X6KApXwhGP+Xz5VA++/r0om3KoVztr7RmMPqVZTdtoc48spVXfYjw5RWBZvdg3vvEvwf9th9V1UtY+4RgX4a2YSf7KL4ZzD7002/7/UFXXexHPvZnexhq+uT7Ct+yaPRdeQiDpnEkb4JPS6zKlAbTSFUU4vWVs1+Id9Bx9K2VmGgflUPYjw34SVPY58vTVjlZ/ODz7fTb6J9mD3lVH2HVm9ZfeZrBZchopiPSuxOB0LX076U8lrAPeEP3HWWQL3S/g0fpfh+2tfblKK0IDL157Q7JLWp3SMYw4ULxgH/Eh3zNcy0rZ8+erWVdqJBg4tgvywjw+oawH+UMU03fWo2J9mPcKNOPE3hJU9jny9NWOVn8tIk8Wf1II6/vG/Ahu8nn96ecvHVIdt6+ka+/IhC6liFcM6t5b4GP91dIDvnAQ5h9tE0cah8PXNkFOprZTTp00ybfD9DIRx7gLrdC3xkL+k8821qHYql0wEliTQC7gcoqNFKNUxxh6Avx0A7SlJ+0QarVfvoE+4FnOw8PfVZe4jpRUw9tpI6y7aZ8Xx/b0EsewMSHcKDHMrgRwDXl9S3qRdr9kIZX+b5e9qEtbKNPCKeyyKN9fHpeHvD5tqksn0adIRtDON8O8lCv6iIMHuohbpBqtZ3+Kg6+qI/NeEL0xuYlCINwMqHdblHjKIu4MvVQ9qDWjAnt13YoTnoTkO5fO79N2Z2sQ3bTVqXBBt9u8oVordrsx8Bvtyo39ut+BPxrp22Fm1kGXpZm92Aar/ZXHuI7WdNX6g39rv7/9solBWAYBKL3v3VxMfA6SBTSj4V2k5ho+mYihHvB4jHX7mSdcLb8kmbdecZGnzTP8jprp4e1U7Cbw0ZYidz9z5fq6UlwM8484qVrnw30lvaMW6zccz5qkP4YWes1ndg98bhzxp8z0wHeJecVbeTqY09mPchc1UwZxVZxU2Owe/4UPU9wVH0iT69gOQA33VxOSz5C4gAAAABJRU5ErkJggg==;" parent="1" vertex="1">
          <mxGeometry x="1320" y="227.02" width="108.37" height="112.98" as="geometry" />
        </mxCell>
        <mxCell id="XejQ6Tq679sGkio31rRs-85" value="" style="shape=flexArrow;endArrow=classic;startArrow=classic;html=1;rounded=0;strokeWidth=3;opacity=50;fillColor=#bac8d3;strokeColor=#23445d;" parent="1" edge="1">
          <mxGeometry width="100" height="100" relative="1" as="geometry">
            <mxPoint x="1270" y="1590" as="sourcePoint" />
            <mxPoint x="1270" y="720" as="targetPoint" />
          </mxGeometry>
        </mxCell>
        <mxCell id="XejQ6Tq679sGkio31rRs-87" value="" style="shape=image;verticalLabelPosition=bottom;labelBackgroundColor=default;verticalAlign=top;aspect=fixed;imageAspect=0;image=data:image/png,iVBORw0KGgoAAAANSUhEUgAAAQQAAADCCAMAAACYEEwlAAABTVBMVEX////kNxcAAACOHhnmOBeKHRnkNhXpOBeJHBnoLQD99PL//v/87OnsORj+/PsFAADWMxi+LBiMFQ/639v++PbqLADlNBCKAADmJwD86uf40s3sMAANAACEGxnymYzkMAjNMBiiJBmtJxjdNRexaGX75N/2u7PzppztSS72r6X3wrrwX0gLCwvuaFS6KxiYIRmxcW/wfWzzemjykIP1oJPvUzvvh3j3zMbn5+ctLS26LBKrq6tXV1dmZmaEHQujJg9YEwfDkY/gxMPp1dTrRifra1rxXELvGgDVJQGUIg1vGQnDIQBDDQVNDwbQb2nRq6yKkZIAGx0sCQHshoAZJSbMx8jiPTU+Pz+vvr6ampozAADZ2dmmAAAlFBNNAAAmJSV8fHx1GwsnCAKfOTXYUkDEoKCnVlOsOzHNlZGkVlO8fHquZ2WWMCy6PC3izMsDXKUcAAASpklEQVR4nO1dbWPaSJIGISQkg4yNJMSLLWwGDMaYAMY4ziS2Y7DHWeeyl7tsbm92dybjG99dJjf//+N1Swi1UOuVFi+zPPNhYqGWuh9VV1dXVXfHYhtssMEGG2ywwQYrilxt2TVYOoojSWmll12LBYK3N5Zn5Xic6wm2H9L8Imq0cIj9u8H+bGv7XBxAqs9crnUHraadmfVHW5JlZeab5yTIQVweWL97usEx8n1zkbVbDIr3sLlKF70mtFWNhDjXRy/zDXiZafzxVIUu+HEFbW5d0TmIM1LOvCqOJ7ceL7ySEUMcMZOPbkp5eiBPSIirY/PWc85+7Y+BoWS0Vxoa1ybCoV+dfvZ9406GLiynroQgDoczV87VaXtLRf1SDuEA6EZRv3o2ZQsVGg38sBh5zclhSJdKDUuFC0ZvgF+Y1X9qyQgJcW5fuzhVExoxlqc21ZI0WBtlmY6D5smZI+QS2ra43ICW8jF6CQo/1I1DVDriCmJR832JgXaVuODGhMWxJtGMglR4rKKNUwe54+bAIgjgYrs+HCICA6XD5DHX0jkrrctM42zyObmGMfDVaEvj4rKiSDMcgIuSolhvY+4M26quTlhUZpXNqqKnTps1+ZRHXDwUFF17iN0pO9yRy4tXCQ3ze3JjzSCeFX2/0LVlrmVyaLUtVxcC+tm5QVHM7av29vkC02gWhDqNFF8XC6pmUfsy21JCdgbIgsS1LIpCbq3HHPtYsrbDquwCw9qTmNF6DA9NyaE5RMCtpNUo1M/qFhHth5d+H1BMB8wWsMuaZ6tAijhWOGXQNO0iYRxyKPCHiXmtobA/UjhpH1OrBeMMqkFGoo8MaeAbcyoBd5jDQ+Fc4uCrpKXbT+LEOcRwUl+f+fKlKDmYzqqKPckwTJduOojtqfBz9Dkwk9PRqgTAQlOICcWxOjUelk+CgEyNGC5z3hxEzAGYmLWbPQ6xn7jlK4WedX4oRaoQdMiS5Z1Ln05sxbphTWJiWDoJFr/ZskhYfoBiBUiYjV8tHlEPBt6Qlh+f2F86CaUVICFa28gPCUu3GGNn/5QkiKLF6320dBKsk2uR34qeg2KLbu0fmzGQ5tJJyJjB3Fr9fJDpRR69K97LjMxJyuj8WHt3cbAAE9EdchuKplhs9lQFzCsZbhS1B84wEGm1lBl068d0pM4Df1DvAAENlVNp/W8lYutJRAKIjKwq3NLlAELmOBWpCHceLQnC8qcK3lCinkwcRepFJYNS1G7HouJdiSUj+mQnfulWsifkdsQczKZWrCIW4G5b/qzRCwvIejteec2YiT5QV1t1SVhIyHa0EvaRM9SITSUN4xU3l0qLcDk2V9xSUHLebZgbxRVXCvQilggs373sjoicz+lhMVcrpHlREISV7w1awiyoKM+na7VcsUhoqDhSdHAljh5FHmqcH0xmMMqUSpxe6wwR08mSkTtvAtJigNaSUUjYTr0V1wFeIBKqbK/8jMkd3BkBElZ/xuQOIlG63NJ96nOBGRHgILYCGQjzgFDgvrjyk2cXEPO13a2xaiTmZqqvsSiopKZTAr0WJhIOate7eT5xtrajpEQuBFFbdW+SE+QWwXl1d01FwbYnwTzIrScJjEyQgxjfWsv+oPZIknC8npIQ5whGJYXVj73hQchU4ovHZ73RmnIAVyR2j45z4V1s6dzx2XhAl0qcvJYKQQejciU1ftc7GoagQug3MgqnrnP7TWiJRZlB4Pnk+SIWLiwWzH1A9wqv/OE4gJsTBLMfc4QnjgzDshkNrN8SNLgXFqKJVWJ2OycviGRz81Tlh8urhzfv3r15uMyyfnhQlT9dfbl+fP/uoeLrfl+1wGxv5gqiGfw//MuHV3/+V4ra3qYo6uO7S9rr68rVfwMl/l0rUb6+JMRC4A0ohBYpzyIT/+GTJlyvKQhIxHXVtVmM/BfNFXLxGRYoU9QXlkSfCGE55YiNjrLh3PmZ0gFouMy4FGAPLyYlXp7o9390Z81fNcK4nUlFXs0V3hc/nUxoKFMuIk7n/8Mo8elkwsJjdl5ZYEI52gRCKSl/MVXyXykD5Y+OrWIPP5uV+N4ocD1vNUIGotJE7CUFWb96QZm4dhKF6n/+2SzxatqDTufrEEFthClIeJkZ5RPyxJdGfwCtOsS3KvNAISV+pIwS7920iDdKob3OBLxq9N8ukAe+PjFF4dGhVX//6UezwIVBW7lcmacaSng/WyHs1kAm2H+gJPxskrBNXeK0Qubq5CekxMXnaYk3c4jCXC6m43lHCDpLOUjCNvUF16rM4wlWEoAqnYMEeRy6N/D7cwfg2AcKaVLse6Q7lD/iClSBEsDqhG1qnlFSlbrhloc17+efQNDX1CvziQKFkLBNVeytAqRRFGZ0gLc/zDU+qEqIMbI2JjA20Nky9dp85ifKAozBxL4D11+aJb5Hbn83p9UotYMKQ5FImhp7SZ2cmP3htZUE3Kd9LANpmQrPJ0R0yo/z1oYbBAvKDUtEfKuadE9FAW2Spu/tJFR/AfOlk5OJMhV+QnXI9tyms5wJMo+s38/5ugnYN6BJ1M8TDqwU4EgAg0kZ/qIPEBcv0buxOiQgGMW/LBBb2MFeU5CF738UhYu/znKAI6GikwDE59Wr17MFCPgVGN87exYzpGbR7HtKY+Hk8+eXVBAS4OzxJAISfC8J4RvEYi2aJGhtsrXIRSc4gYiHSfG3IRHBODzUCc64wo8ODiChEyB8+RWGBNPY2Ss3EpzsBDzKc5mMJlQfyyYFkmm8pqLDNaqKsRivoPMNf//cdsIEnLcoDMlGHN47tYkqv8d2cUcSqC+EnM4+tikjm9Tu/GUd5gIZp/5ASiX4SfStsWTjb6yzuq9iC2TLDqxdz+daQuC5AqJOeHUPfYnXCttOTpIMXnbKv5BRixCe6VznpBNzMg/4DvGIFwRA2zt7gW3q73M6WlFIXstAyC/xALaCXRbKvzhaPnT10XY39RjGUHISHY9QlCDM71W0IWM3Fra33YIv1V9mxIB6QwfngI1XHOJWXnuuOO8y6xlEdUYm+16PxU4aVaY+Zt0aBWXBuB+oye0v2cA6kaazB6m9BH5A8VpNnXZI4KVPOzvV0DzQ8atHLRS7vQ0b9/EBYyZZ7q8+fNQUwzYwkR6ygcOxdLxykEwmEqkdbEmvyKyTJNA7e6nEYdaxm3mBrR6+L+vK4PrKR3SVrV69uX5//ebhMh44SwNQ0EkBCgAJWewNHhG5LedDCPYSieRe57QaNmWCzWSvvry5qlR95qrAxJYQeSpAeZx29hIT4O+RvDK42g4GY+ZAe2pqD3SLsDzAZpFLvsGBpbOHQGQnSB7gK+qZ/++0AJCuGM9OJQ+AeiA3ahNEdaczZQCS4GBbKF6H5zjHnDrmw1OJgx18d1sq6MO9BIokfnCQ7zw4sB1RMwV7iJIM+oWTxbc8sAcJK/BV9JGp4JiakU1aXpAiNakjiBkOOvi7fOxK5jyDsvLs1OEWC/RD0NmZ3nCI7w0DTw5ivNN6J3bH0h8SHfQV1XksyrCg6SqqmYAtY5XVHexn8pW345jBWLX2hyTa47KJQ6Aq2cUxQQMGKocJNN2FPvDTYf0dGsM7+ddoa3/YQ9/BdlIpMGacAiKIJaA6ggavqJx2knvJBCoJTD7/9OSpF33uWOm0ClLuWl5h6XITMyK1l+pAkQDVjEYm4IOBBHRSe0mtCgjh8n/9eht73vXQiwztb0UQ77DQhWnc5i2ygDJtikkSTF0AExWgJoh2D/C0eLWyc9hJpKZijwoCDDP+bhozDnrR06FioO4gClLxV5QFyxyNrlg6ZBJUtHNwWslCjUnPyYX2AL394Lnme1KnyHPlOz4Wu8k7VM8AQ/tOdHeIQYEp6FfkLckDywB1ah08tHoAPdE5AFIBuAC6Iqhg0DQsozX/oJNMpax6L7FrkXftE39Dft7DOSU9504mRIdcpYwQe0a5tqhfurOb301gkEzt7WlknO7oksHqsEmIJjPGb/FqtrJzClsPSlubv7ubB3j+avFKcOAT/27prpgGyA3fHMAtRLDGgjKM8U9IQ//b4vFR/+fmt6cOqN4uygX4gkCEk5CJPe2fgI6DQ0DITgUgawG4sLNzClp+0JkWTOnQesGu1vzO84ubD7eCda6nRVTQ3rD7jBmlgm37jk9mhS6ZW0T3PPVQiZHb6Rif/v3DzW/PTwmdi5SmGPSm6n1aU+pQecLmaf9LJrT/tIuTS4nkhD9dfgAAMYnk0/P/wuaneS1Dt49WkVGB0t96MquW/25o3wsmaDojVi0wcP3MW+Q7H1vy29TBJMonpG8BF19/62h2A5R6XdA1+8auOvBIJQ61EcboPNXKPnqkrLWCmhmIDF67z2LT3gI14EYC+EUf2tqRD9N35T9YbQrZsrFTsWt3ItHAzDnYSwLtgUHexG7qoBKfsTXYkjQ2xDk3sr5YO5DZHLt2v6Ux++EEX/VRwFkLwNzaQrre7rNgVaGMNDCqWWxL+PkozVb/7+bm64sXv30H8AwA///ixYuvX29ubn798OHt29vb/RHW7lSlFvyYufOZxXocfKvwnSGju4lCLGbbaZ8JsdE9pk/pg3FMmA6U+VhRtb5L5tp10D3FM9UlsMu2YVMECFEUBR3Iq+t3qpPnX1b7xS4982w9TzM9lYPOLaiBrfqhkrxx5z7qB0oIhnWav7Xvay4ro+5Rz31dpVzqQza39PMotra2pgdTgH/kevaThtEqcLMMqdrZBrG3097wFkrLrEvAzxQag55dtUy6lTgZKPMfsCpUdegJCJSBU6pEXQ6YHMCUdDE35DP/VnvMrCSE2+F9C6McDWtjYi7kv4J/t0LFcGUH6ewGXW8jq/qgYYhn/nftz1mPQOjzDgr2PDbjgJW0xgIYiQAh7XCRbNwJBPw46LNkelKjwjeUA2Em2YRphD4EpWgfZoyaF75BFr5BSUwHrrleL8nm4wn+pCkHus2823k7YfPOKlABJg022DyOcsv4qQBGokRem53z3XCJTrM1E3pBU0RUc89yaCVMOYilrTFcOew6MA392eYp08G28JSHw4OGMyVMSH821ThwBqXSNof+r7vgq9waf82cQ3E/3x6lsxVDcl345/ykB4KX3oXJ82E41H4JehazqqJa5Xk3/4yczGSpzrznavIz0UlUy4o3nam64ffdzCMncMjeaIVgC21kzrqw6Tl/g4i8ZXCQG16BNy/UrEME00A/Xho5fis35oLTYB4FLATrDPKgbu3mt7foX5bBgcARejMbSrjslV7sBT5W3tRYwbJIGfdsdfSoJou4hYZVyZTcghfpflBhmJ7LESxljBm5jvtpJNkkzMQJgybaW909E7hplyuMY2qC7pOvuur7HDJCkjpUE1Uz7rYXxpXhgcn5dkGHR/clLAil5DZgO0c6LOc2EwlOgr6drhh0y0d3Ekwjz5hekQAyo3SNaDrFLJyh94fA3cj9eBtTdIluyWjOklwPmwrcGEAqLBdUgpiBazht6lsje1ieOVe0WgozyAXPRdcM8aBHZ6hj18mAMdTI7lwFRnrqXci4LB1xTol1JiEXC55TXXI3hI1MxMC7CnkhPZiw4GqA4dN9mJLkuJvdPSThzoU73E/urRMmn0Kac86AAT9hwXU6gk33YRrNo363PciUFEWRShynqrLMMPphFBIkwe4bZmRV5cD9pQbuhNaR22xA4HXi1JbLTWGR1j1prpqxgO0P0BcjiDxfyA3rzbP+eXfcbg0ao0yG4zhtmtsCrMig2Sq4AI9WUelBa9ztH9WLab5n7yoe08K0tn5HDu9Ncn24ph1p17AmNh2UoWdGNMBIulCr5XK54hCquPPBXavVHve65/2zZh2etDOJtuEHDsW9eQVIAqNGdOC0qO2qoLrdUsMOkurY48mCk7YvYGIQXlMijYQIz9PdV2R9ZHe+Azvkh97fBpNyzrAeAx/sDpGeJHvcUNzX1InYdB8mE66D7mNm2J5eU2Ek+1wTHRbpI49pGd5q5LphfJ24HaN9+Ad6mahPFPbEPtbfGMbrjQsLyz4O70gv4pQ8D3SxxkLgffBwMTBgd0V+ljwZiNgAguxq4eCAcTLIbkb7agHPQlBnH2ZLSLUR9cnZBIH3HQcbuo/tCpZrrY0caGjisgyCpI8VbRMuRunOG0BYNGote6YGI/uW5hotz1LQiP7EaPJoNmxBJT/jm4b0zODIcOzZAs5KjgCF/QY38z3VO18SbUzbDe64Rn9NRkYM0s2BZOWB8xMlF5H0F0aVpLsmWTfZwpE7aikKdCxpHgNOum95yoIIS0gcx0mSooy6zegPTl8A+GGz3223Wq127/xo6KNrC3yx3jw6O2rWi2suAlZAxxIvLuLQ5w022GCDDTbYYIMNNthggw022CBi/D+7SALGy+dA8wAAAABJRU5ErkJggg==;" parent="1" vertex="1">
          <mxGeometry x="1310" y="1045.54" width="140" height="104.46" as="geometry" />
        </mxCell>
        <mxCell id="XejQ6Tq679sGkio31rRs-88" value="" style="shape=flexArrow;endArrow=classic;startArrow=classic;html=1;rounded=0;strokeWidth=3;opacity=50;fillColor=#bac8d3;strokeColor=#23445d;" parent="1" edge="1">
          <mxGeometry width="100" height="100" relative="1" as="geometry">
            <mxPoint x="675" y="-30.004761904761892" as="sourcePoint" />
            <mxPoint x="1185" y="-28.099999999999994" as="targetPoint" />
          </mxGeometry>
        </mxCell>
        <mxCell id="XejQ6Tq679sGkio31rRs-90" value="Model processing" style="text;html=1;strokeColor=none;fillColor=none;align=center;verticalAlign=middle;whiteSpace=wrap;rounded=0;fontSize=25;fontStyle=1" parent="1" vertex="1">
          <mxGeometry x="230" y="-100" width="60" height="30" as="geometry" />
        </mxCell>
        <mxCell id="XejQ6Tq679sGkio31rRs-91" value="" style="shape=flexArrow;endArrow=classic;startArrow=classic;html=1;rounded=0;strokeWidth=3;opacity=50;fillColor=#bac8d3;strokeColor=#23445d;" parent="1" edge="1">
          <mxGeometry width="100" height="100" relative="1" as="geometry">
            <mxPoint x="-5" y="-30.004761904761892" as="sourcePoint" />
            <mxPoint x="505" y="-28.099999999999994" as="targetPoint" />
          </mxGeometry>
        </mxCell>
        <mxCell id="XejQ6Tq679sGkio31rRs-92" value="repo: upshot-witness-extraction" style="text;whiteSpace=wrap;fontFamily=Courier New;fontSize=14;fontStyle=1" parent="1" vertex="1">
          <mxGeometry x="1320" y="360" width="169" height="40" as="geometry" />
        </mxCell>
        <mxCell id="XejQ6Tq679sGkio31rRs-93" value=" remainder/src/zkdt/dt2zkdt.rs" style="text;whiteSpace=wrap;fontFamily=Courier New;fontSize=14;fontStyle=1" parent="1" vertex="1">
          <mxGeometry x="1291" y="1160" width="169" height="40" as="geometry" />
        </mxCell>
        <mxCell id="XejQ6Tq679sGkio31rRs-95" value="&lt;font style=&quot;font-size: 36px;&quot;&gt;&lt;b&gt;Upshot model &amp;amp; sample processing pipelines&lt;/b&gt;&lt;/font&gt;" style="text;html=1;strokeColor=none;fillColor=none;align=center;verticalAlign=middle;whiteSpace=wrap;rounded=0;" parent="1" vertex="1">
          <mxGeometry x="285" y="-230" width="630" height="60" as="geometry" />
        </mxCell>
        <mxCell id="XejQ6Tq679sGkio31rRs-97" value="ML" style="text;html=1;strokeColor=none;fillColor=none;align=center;verticalAlign=middle;whiteSpace=wrap;rounded=0;fontSize=45;fontStyle=1" parent="1" vertex="1">
          <mxGeometry x="1350" y="170" width="60" height="30" as="geometry" />
        </mxCell>
        <mxCell id="XejQ6Tq679sGkio31rRs-98" value="ZK" style="text;html=1;strokeColor=none;fillColor=none;align=center;verticalAlign=middle;whiteSpace=wrap;rounded=0;fontSize=45;fontStyle=1" parent="1" vertex="1">
          <mxGeometry x="1350" y="990" width="60" height="30" as="geometry" />
        </mxCell>
        <mxCell id="XejQ6Tq679sGkio31rRs-101" style="edgeStyle=orthogonalEdgeStyle;rounded=0;orthogonalLoop=1;jettySize=auto;html=1;exitX=1;exitY=0.5;exitDx=0;exitDy=0;entryX=0;entryY=0.5;entryDx=0;entryDy=0;strokeWidth=3;dashed=1;opacity=60;" parent="1" source="XejQ6Tq679sGkio31rRs-100" target="XejQ6Tq679sGkio31rRs-4" edge="1">
          <mxGeometry relative="1" as="geometry" />
        </mxCell>
        <mxCell id="XejQ6Tq679sGkio31rRs-100" value="XgBoost&lt;br&gt;(future)" style="rounded=1;whiteSpace=wrap;html=1;fontFamily=Courier New;fontStyle=1;fontSize=14;fillColor=#b1ddf0;strokeColor=#10739e;strokeWidth=2;dashed=1;opacity=60;" parent="1" vertex="1">
          <mxGeometry x="-20" y="312.5" width="90" height="55" as="geometry" />
        </mxCell>
        <mxCell id="XejQ6Tq679sGkio31rRs-103" style="edgeStyle=orthogonalEdgeStyle;rounded=0;orthogonalLoop=1;jettySize=auto;html=1;exitX=0;exitY=0.5;exitDx=0;exitDy=0;entryX=1;entryY=0.5;entryDx=0;entryDy=0;strokeWidth=3;dashed=1;opacity=60;" parent="1" source="XejQ6Tq679sGkio31rRs-102" target="XejQ6Tq679sGkio31rRs-8" edge="1">
          <mxGeometry relative="1" as="geometry" />
        </mxCell>
        <mxCell id="XejQ6Tq679sGkio31rRs-102" value="XgBoost&lt;br&gt;(future)" style="rounded=1;whiteSpace=wrap;html=1;fontFamily=Courier New;fontStyle=1;fontSize=14;fillColor=#b1ddf0;strokeColor=#10739e;strokeWidth=2;dashed=1;opacity=60;" parent="1" vertex="1">
          <mxGeometry x="1100" y="312.5" width="90" height="55" as="geometry" />
        </mxCell>
        <mxCell id="XejQ6Tq679sGkio31rRs-104" value="quantization of thresholds" style="text;whiteSpace=wrap;fontFamily=Courier New;fontSize=14;fontStyle=2" parent="1" vertex="1">
          <mxGeometry x="-39" y="440" width="169" height="40" as="geometry" />
        </mxCell>
        <mxCell id="XejQ6Tq679sGkio31rRs-105" value="quantization of samples" style="text;whiteSpace=wrap;fontFamily=Courier New;fontSize=14;fontStyle=2" parent="1" vertex="1">
          <mxGeometry x="1090" y="435" width="169" height="40" as="geometry" />
        </mxCell>
        <mxCell id="XejQ6Tq679sGkio31rRs-106" value="quantization of leaf values" style="text;whiteSpace=wrap;fontFamily=Courier New;fontSize=14;fontStyle=2" parent="1" vertex="1">
          <mxGeometry x="-208" y="760" width="169" height="40" as="geometry" />
        </mxCell>
        <mxCell id="XejQ6Tq679sGkio31rRs-112" value="" style="edgeStyle=orthogonalEdgeStyle;rounded=0;orthogonalLoop=1;jettySize=auto;html=1;strokeWidth=3;" parent="1" source="XejQ6Tq679sGkio31rRs-109" target="XejQ6Tq679sGkio31rRs-111" edge="1">
          <mxGeometry relative="1" as="geometry" />
        </mxCell>
        <mxCell id="XejQ6Tq679sGkio31rRs-109" value="&lt;font face=&quot;Courier New&quot;&gt;&lt;span style=&quot;background-color: initial;&quot;&gt;struct &lt;b&gt;Samples&lt;/b&gt; {&lt;/span&gt;&lt;br&gt;&lt;span style=&quot;background-color: initial;&quot;&gt;&amp;nbsp; &amp;nbsp; values: Vec&amp;lt;Vec&amp;lt;u16&amp;gt;&amp;gt;,&lt;br&gt;&lt;/span&gt;&amp;nbsp; &amp;nbsp; ...&lt;br&gt;&lt;/font&gt;&lt;span style=&quot;font-family: &amp;quot;Courier New&amp;quot;; background-color: initial;&quot;&gt;}&lt;/span&gt;&lt;font face=&quot;Courier New&quot;&gt;&lt;br&gt;&lt;/font&gt;" style="shape=document;whiteSpace=wrap;html=1;boundedLbl=1;align=left;strokeWidth=2;spacingTop=22;spacingLeft=16;fillColor=#fad7ac;strokeColor=#b46504;" parent="1" vertex="1">
          <mxGeometry x="810" y="910" width="240" height="120" as="geometry" />
        </mxCell>
        <mxCell id="kbwNqkGok2SKZy7Yzn7n-1" style="edgeStyle=orthogonalEdgeStyle;rounded=0;orthogonalLoop=1;jettySize=auto;html=1;exitX=0.5;exitY=1;exitDx=0;exitDy=0;exitPerimeter=0;entryX=0.5;entryY=0;entryDx=0;entryDy=0;strokeWidth=3;" edge="1" parent="1" source="XejQ6Tq679sGkio31rRs-111" target="XejQ6Tq679sGkio31rRs-49">
          <mxGeometry relative="1" as="geometry" />
        </mxCell>
        <mxCell id="XejQ6Tq679sGkio31rRs-111" value="&lt;span style=&quot;border-color: var(--border-color); color: rgb(0, 0, 0); font-family: &amp;quot;Courier New&amp;quot;; font-style: normal; font-variant-ligatures: normal; font-variant-caps: normal; letter-spacing: normal; orphans: 2; text-indent: 0px; text-transform: none; widows: 2; word-spacing: 0px; -webkit-text-stroke-width: 0px; background-color: initial; text-decoration-thickness: initial; text-decoration-style: initial; text-decoration-color: initial; font-size: 13px;&quot;&gt;&lt;b&gt;dt2zkdt.rs&lt;/b&gt;&lt;/span&gt;&lt;span style=&quot;border-color: var(--border-color); color: rgb(0, 0, 0); font-family: &amp;quot;Courier New&amp;quot;; font-style: normal; font-variant-ligatures: normal; font-variant-caps: normal; letter-spacing: normal; orphans: 2; text-indent: 0px; text-transform: none; widows: 2; word-spacing: 0px; -webkit-text-stroke-width: 0px; background-color: initial; text-decoration-thickness: initial; text-decoration-style: initial; text-decoration-color: initial; font-size: 13px; font-weight: normal;&quot;&gt;:&lt;/span&gt;&lt;br style=&quot;border-color: var(--border-color); color: rgb(0, 0, 0); font-family: &amp;quot;Courier New&amp;quot;; font-size: 14px; font-style: normal; font-variant-ligatures: normal; font-variant-caps: normal; font-weight: 700; letter-spacing: normal; orphans: 2; text-indent: 0px; text-transform: none; widows: 2; word-spacing: 0px; -webkit-text-stroke-width: 0px; background-color: rgb(251, 251, 251); text-decoration-thickness: initial; text-decoration-style: initial; text-decoration-color: initial;&quot;&gt;&lt;div&gt;&lt;span style=&quot;font-size: 13px; font-family: &amp;quot;Courier New&amp;quot;; background-color: initial;&quot;&gt;let csamples: CircuitizedSamples =&amp;nbsp;&lt;/span&gt;&lt;br&gt;&lt;/div&gt;&lt;div&gt;&lt;font face=&quot;Courier New&quot;&gt;&lt;span style=&quot;font-size: 13px;&quot;&gt;&lt;span style=&quot;white-space: pre;&quot;&gt;&#x9;&lt;/span&gt;circuitize_samples::&amp;lt;Fr&amp;gt;(&amp;amp;samples, &amp;amp;trees_model);&lt;/span&gt;&lt;/font&gt;&lt;/div&gt;" style="shape=note;whiteSpace=wrap;html=1;backgroundOutline=1;darkOpacity=0.05;align=left;spacingLeft=5;spacingRight=3;strokeWidth=2;fillColor=#fad9d5;strokeColor=#ae4132;" parent="1" vertex="1">
          <mxGeometry x="667.5" y="1135" width="525" height="120" as="geometry" />
        </mxCell>
        <mxCell id="XejQ6Tq679sGkio31rRs-114" value="" style="endArrow=classic;html=1;rounded=0;entryX=0;entryY=0.5;entryDx=0;entryDy=0;entryPerimeter=0;strokeWidth=3;" parent="1" target="XejQ6Tq679sGkio31rRs-111" edge="1">
          <mxGeometry width="50" height="50" relative="1" as="geometry">
            <mxPoint x="570" y="970" as="sourcePoint" />
            <mxPoint x="720" y="970" as="targetPoint" />
            <Array as="points">
              <mxPoint x="570" y="1195" />
            </Array>
          </mxGeometry>
        </mxCell>
      </root>
    </mxGraphModel>
  </diagram>
</mxfile>
